<svg width="24" height="24" viewBox="0 0 24 24" fill="none" xmlns="http://www.w3.org/2000/svg">
<circle cx="12" cy="12" r="12" fill="url(#paint0_linear_403_10386)"/>
<path d="M16.4264 14.6732C16.4197 15.5669 17.0163 16.2958 17.7501 16.3013C18.4838 16.3068 19.0913 15.587 19.098 14.6933C19.1047 13.7996 18.5081 13.0707 17.7743 13.0652C17.0405 13.0597 16.433 13.7795 16.4264 14.6732Z" fill="#3C3C3B"/>
<path d="M13.8535 13.9865C13.5807 13.9845 13.3565 13.7664 13.3492 13.4935C13.3325 13.2112 13.5507 12.9682 13.8424 12.961C17.4751 12.7906 20.9136 12.1672 21.2094 11.6238C21.2115 11.3416 21.4389 11.1269 21.7211 11.129C22.0033 11.1311 22.2272 11.3868 22.2251 11.669C22.2131 13.2683 17.6838 13.8082 13.8911 13.9868C13.8911 13.9868 13.8723 13.9866 13.8629 13.9866L13.8535 13.9865Z" fill="#3C3C3B"/>
<path d="M7.75137 14.6083C7.74467 15.502 7.13716 16.2219 6.40339 16.2164C5.66962 16.2109 5.07298 15.482 5.07967 14.5883C5.08637 13.6946 5.69387 12.9747 6.42764 12.9802C7.16141 12.9857 7.75807 13.7146 7.75137 14.6083Z" fill="#3C3C3B"/>
<path d="M10.3441 13.96C10.3441 13.96 10.3253 13.9598 10.3159 13.9598C6.52627 13.7244 2.00562 13.1166 2.01761 11.5174C2.01972 11.2352 2.24726 11.0017 2.53889 11.0039C2.83052 11.0061 3.05461 11.2335 3.05242 11.5251C3.32143 12.0352 6.75965 12.7101 10.3894 12.9349C10.6715 12.9558 10.8861 13.1926 10.8746 13.4748C10.8537 13.7474 10.6263 13.9621 10.3629 13.9601L10.3441 13.96Z" fill="#3C3C3B"/>
<path d="M15.2761 19.8583C15.2761 19.8583 15.1821 19.8575 15.1352 19.8384C12.0843 18.95 8.85105 19.7913 8.82283 19.7911C8.54945 19.8643 8.26843 19.7022 8.19522 19.4289C8.122 19.1555 8.28405 18.8745 8.55742 18.8013C8.69882 18.7647 12.0923 17.8776 15.4248 18.8527C15.697 18.93 15.8548 19.2134 15.7775 19.4857C15.71 19.711 15.5019 19.86 15.2761 19.8583Z" fill="#3C3C3B"/>
<defs>
<linearGradient id="paint0_linear_403_10386" x1="12" y1="0" x2="12" y2="24" gradientUnits="userSpaceOnUse">
<stop stop-color="#E64850"/>
<stop offset="1" stop-color="#FDDA74"/>
</linearGradient>
</defs>
</svg>
