<svg width="10" height="16" viewBox="0 0 10 16" fill="none" xmlns="http://www.w3.org/2000/svg">
<path d="M9.75524 0.269068C9.75596 0.220977 9.74353 0.173603 9.71929 0.132059C9.69506 0.0905152 9.65994 0.0563784 9.61772 0.0333331C9.57551 0.0102879 9.5278 -0.000790635 9.47975 0.00129327C9.4317 0.00337718 9.38513 0.0185444 9.34507 0.0451579C8.47997 0.631414 7.65357 1.27285 6.87102 1.96546L7.0397 4.08909L6.04516 2.7391C5.09531 3.67942 4.16754 4.79395 3.54551 6.00437L3.666 7.51852L3.17049 6.84679C2.67447 8.17167 2.59414 9.58592 3.26487 10.9982L2.77739 11.8873L2.76885 11.8968H1.99571C1.7226 11.8968 1.50773 12.1292 1.50773 12.4024V13.1243H1.63324L0.47353 15.1445C0.442886 15.1446 0.412563 15.1507 0.384351 15.1627C0.356139 15.1747 0.330611 15.1922 0.309272 15.2142C0.287933 15.2362 0.271217 15.2622 0.260109 15.2908C0.249002 15.3193 0.243728 15.3498 0.2446 15.3805V15.7851C0.2446 15.9106 0.330448 16.001 0.455958 16.001H5.08828C5.21379 16.001 5.33026 15.9106 5.33026 15.7851V15.3719C5.33026 15.2464 5.22081 15.146 5.09581 15.146L3.8628 13.1253H4.03199V12.4034C4.03199 12.1303 3.82213 11.8978 3.54902 11.8978H3.54099V11.8938L3.85025 11.3149C4.58559 11.2238 5.29035 10.9657 5.91062 10.5604L4.93716 10.2481L6.85997 9.76816C7.52467 9.07484 8.03675 8.20832 8.43236 7.27754L7.22696 7.20223L8.77726 6.36885C9.59157 3.9455 9.73365 1.33239 9.75524 0.269068ZM2.37475 13.5365L1.59659 14.9989C1.57264 15.0442 1.53679 15.082 1.49291 15.1084C1.44902 15.1347 1.39877 15.1486 1.34758 15.1485C1.30155 15.1484 1.25618 15.1376 1.21504 15.1169C1.14901 15.0813 1.0997 15.0211 1.07788 14.9494C1.05607 14.8776 1.0635 14.8001 1.09857 14.7338L1.87673 13.2709C1.91195 13.2048 1.97196 13.1555 2.04356 13.1337C2.11516 13.1119 2.19249 13.1194 2.25853 13.1547C2.32457 13.1899 2.37392 13.2499 2.39572 13.3215C2.41751 13.3931 2.40997 13.4704 2.37475 13.5365ZM2.22213 12.8437C2.18406 12.8437 2.14635 12.8362 2.11116 12.8217C2.07598 12.8071 2.044 12.7858 2.01705 12.7589C1.9901 12.732 1.96872 12.7001 1.95412 12.6649C1.93952 12.6297 1.93199 12.592 1.93195 12.554C1.93192 12.5159 1.93939 12.4782 1.95393 12.443C1.96847 12.4078 1.9898 12.3758 2.01669 12.3489C2.04359 12.3219 2.07554 12.3006 2.1107 12.286C2.14586 12.2714 2.18356 12.2638 2.22163 12.2638C2.29853 12.2637 2.3723 12.2942 2.42671 12.3485C2.48113 12.4029 2.51174 12.4766 2.51181 12.5535C2.51188 12.6304 2.48139 12.7041 2.42707 12.7586C2.37274 12.813 2.29903 12.8436 2.22213 12.8437Z" fill="white"/>
</svg>
