<svg width="16" height="16" viewBox="0 0 16 16" fill="none" xmlns="http://www.w3.org/2000/svg">
<path fill-rule="evenodd" clip-rule="evenodd" d="M12.5505 8.62719L13.8885 10.5385C13.9509 10.6272 13.9826 10.7338 13.979 10.8422C13.9754 10.9506 13.9366 11.0548 13.8685 11.1392C12.7912 12.4752 11.4432 13.4232 9.8172 13.9752C9.71478 14.0099 9.60387 14.0105 9.50111 13.9768C9.39834 13.9432 9.30925 13.8771 9.2472 13.7885L7.90854 11.8772C7.84834 11.7912 7.81673 11.6885 7.81816 11.5836C7.8196 11.4786 7.85401 11.3768 7.91654 11.2925C8.95987 9.88719 10.3225 8.93786 11.9972 8.43519C12.0979 8.40495 12.2056 8.40722 12.3049 8.44169C12.4043 8.47616 12.4902 8.54107 12.5505 8.62719ZM11.9439 9.50386C10.7663 9.9113 9.72583 10.6395 8.93987 11.6065L9.84587 12.9005C11.0024 12.4527 12.0329 11.7309 12.8492 10.7972L11.9439 9.50386Z" fill="white"/>
<path fill-rule="evenodd" clip-rule="evenodd" d="M11.5084 8.88212C11.4682 8.8285 11.4391 8.76733 11.423 8.70225C11.4069 8.63718 11.404 8.56953 11.4146 8.50333C11.4251 8.43712 11.4489 8.37372 11.4845 8.31688C11.52 8.26004 11.5666 8.21094 11.6215 8.17248C11.6765 8.13402 11.7385 8.107 11.8041 8.09302C11.8697 8.07904 11.9374 8.07839 12.0032 8.09111C12.069 8.10383 12.1316 8.12965 12.1873 8.16704C12.2429 8.20444 12.2905 8.25264 12.3271 8.30879L14.1118 10.8575C14.1494 10.9112 14.1761 10.9719 14.1903 11.036C14.2045 11.1002 14.2059 11.1664 14.1945 11.2311C14.1831 11.2958 14.159 11.3575 14.1237 11.4129C14.0884 11.4683 14.0426 11.5161 13.9888 11.5538C13.935 11.5914 13.8743 11.6181 13.8102 11.6323C13.7461 11.6465 13.6798 11.6479 13.6151 11.6365C13.5505 11.6251 13.4887 11.601 13.4333 11.5657C13.3779 11.5304 13.3301 11.4846 13.2924 11.4308L11.5084 8.88212ZM7.68576 11.5588C7.64552 11.5052 7.61648 11.444 7.60036 11.3789C7.58424 11.3138 7.58137 11.2462 7.59193 11.18C7.60248 11.1138 7.62624 11.0504 7.66179 10.9935C7.69734 10.9367 7.74396 10.8876 7.79887 10.8491C7.85379 10.8107 7.91587 10.7837 7.98144 10.7697C8.047 10.7557 8.11471 10.7551 8.18054 10.7678C8.24636 10.7805 8.30895 10.8063 8.36459 10.8437C8.42024 10.8811 8.46779 10.9293 8.50442 10.9855L10.2891 13.5341C10.3651 13.6428 10.3949 13.7772 10.3718 13.9078C10.3487 14.0383 10.2747 14.1544 10.1661 14.2305C10.0574 14.3065 9.92304 14.3362 9.79245 14.3132C9.66186 14.2901 9.54579 14.2161 9.46976 14.1075L7.68576 11.5588ZM11.4958 12.9328C11.4197 12.8241 11.39 12.6897 11.413 12.5591C11.4361 12.4286 11.5101 12.3125 11.6188 12.2365C11.7274 12.1604 11.8618 12.1307 11.9924 12.1537C12.123 12.1768 12.2391 12.2508 12.3151 12.3595L13.7298 14.3801C13.77 14.4337 13.799 14.4949 13.8152 14.56C13.8313 14.6251 13.8341 14.6927 13.8236 14.7589C13.813 14.8251 13.7893 14.8885 13.7537 14.9454C13.7182 15.0022 13.6716 15.0513 13.6166 15.0898C13.5617 15.1282 13.4996 15.1552 13.4341 15.1692C13.3685 15.1832 13.3008 15.1838 13.235 15.1711C13.1692 15.1584 13.1066 15.1326 13.0509 15.0952C12.9953 15.0578 12.9477 15.0096 12.9111 14.9535L11.4958 12.9328Z" fill="white"/>
<path fill-rule="evenodd" clip-rule="evenodd" d="M13.6071 7.33301C13.6071 7.46562 13.5544 7.59279 13.4607 7.68656C13.3669 7.78033 13.2397 7.83301 13.1071 7.83301C12.9745 7.83301 12.8473 7.78033 12.7536 7.68656C12.6598 7.59279 12.6071 7.46562 12.6071 7.33301V5.21834C12.607 4.99754 12.5192 4.78582 12.3631 4.62967L9.81045 2.07701C9.6543 1.9209 9.44258 1.83314 9.22179 1.83301H3.63045C3.40966 1.83371 3.1981 1.92173 3.04197 2.07786C2.88585 2.23399 2.79782 2.44554 2.79712 2.66634V13.333C2.79747 13.5539 2.88538 13.7657 3.04159 13.9219C3.19779 14.0781 3.40955 14.166 3.63045 14.1663H7.70245C7.83506 14.1663 7.96224 14.219 8.05601 14.3128C8.14977 14.4066 8.20245 14.5337 8.20245 14.6663C8.20245 14.7989 8.14977 14.9261 8.05601 15.0199C7.96224 15.1137 7.83506 15.1663 7.70245 15.1663H3.63045C3.14433 15.166 2.67822 14.9727 2.33448 14.629C1.99074 14.2852 1.79747 13.8191 1.79712 13.333V2.66634C1.79747 2.18022 1.99074 1.71411 2.33448 1.37037C2.67822 1.02663 3.14433 0.833361 3.63045 0.833008H9.22179C9.70779 0.833008 10.1738 1.02634 10.5178 1.36967L13.0705 3.92234C13.4138 4.26634 13.6071 4.73234 13.6071 5.21834V7.33301Z" fill="white"/>
<path fill-rule="evenodd" clip-rule="evenodd" d="M9.2737 1.66602C9.2737 1.53341 9.32638 1.40623 9.42015 1.31246C9.51392 1.21869 9.6411 1.16602 9.7737 1.16602C9.90631 1.16602 10.0335 1.21869 10.1273 1.31246C10.221 1.40623 10.2737 1.53341 10.2737 1.66602V3.99935C10.2737 4.09135 10.3484 4.16602 10.4404 4.16602H12.7737C12.9063 4.16602 13.0335 4.21869 13.1273 4.31246C13.221 4.40623 13.2737 4.53341 13.2737 4.66602C13.2737 4.79862 13.221 4.9258 13.1273 5.01957C13.0335 5.11334 12.9063 5.16602 12.7737 5.16602H10.4404C10.2872 5.16602 10.1355 5.13584 9.99391 5.07721C9.85236 5.01858 9.72375 4.93264 9.61541 4.82431C9.50708 4.71597 9.42114 4.58736 9.36251 4.44581C9.30388 4.30427 9.2737 4.15256 9.2737 3.99935V1.66602ZM4.63037 5.16602C4.49776 5.16602 4.37059 5.11334 4.27682 5.01957C4.18305 4.9258 4.13037 4.79862 4.13037 4.66602C4.13037 4.53341 4.18305 4.40623 4.27682 4.31246C4.37059 4.21869 4.49776 4.16602 4.63037 4.16602H6.63037C6.76298 4.16602 6.89016 4.21869 6.98392 4.31246C7.07769 4.40623 7.13037 4.53341 7.13037 4.66602C7.13037 4.79862 7.07769 4.9258 6.98392 5.01957C6.89016 5.11334 6.76298 5.16602 6.63037 5.16602H4.63037ZM4.63037 9.16602C4.49776 9.16602 4.37059 9.11334 4.27682 9.01957C4.18305 8.9258 4.13037 8.79862 4.13037 8.66602C4.13037 8.53341 4.18305 8.40623 4.27682 8.31246C4.37059 8.21869 4.49776 8.16602 4.63037 8.16602H6.63037C6.76298 8.16602 6.89016 8.21869 6.98392 8.31246C7.07769 8.40623 7.13037 8.53341 7.13037 8.66602C7.13037 8.79862 7.07769 8.9258 6.98392 9.01957C6.89016 9.11334 6.76298 9.16602 6.63037 9.16602H4.63037ZM4.63037 7.16602C4.49776 7.16602 4.37059 7.11334 4.27682 7.01957C4.18305 6.9258 4.13037 6.79862 4.13037 6.66602C4.13037 6.53341 4.18305 6.40623 4.27682 6.31246C4.37059 6.21869 4.49776 6.16602 4.63037 6.16602H8.63037C8.76298 6.16602 8.89016 6.21869 8.98392 6.31246C9.07769 6.40623 9.13037 6.53341 9.13037 6.66602C9.13037 6.79862 9.07769 6.9258 8.98392 7.01957C8.89016 7.11334 8.76298 7.16602 8.63037 7.16602H4.63037Z" fill="white"/>
</svg>
