<svg width="203" height="151" viewBox="0 0 203 151" fill="none" xmlns="http://www.w3.org/2000/svg">
<g opacity="0.2">
<path d="M92.8013 120.674C101.894 111.891 102.62 97.8923 94.4236 89.4079C86.2274 80.9234 72.2123 81.1656 63.1201 89.9489C54.0279 98.7323 53.3016 112.731 61.4978 121.215C69.6941 129.7 83.7091 129.457 92.8013 120.674Z" fill="#407BFF"/>
<path d="M89.8346 117.603C97.1115 110.573 97.6945 99.371 91.1368 92.5826C84.579 85.7942 73.3638 85.9899 66.0868 93.0196C58.8099 100.049 58.2269 111.251 64.7846 118.04C71.3424 124.828 82.5576 124.632 89.8346 117.603Z" fill="white"/>
<path d="M86.8678 114.531C92.3255 109.259 92.762 100.857 87.8428 95.7644C82.9235 90.6722 74.5113 90.8181 69.0536 96.0904C63.5959 101.363 63.1594 109.765 68.0786 114.857C72.9979 119.949 81.4101 119.803 86.8678 114.531Z" fill="#407BFF"/>
<path d="M86.8125 105.312C86.6187 107.699 85.5422 109.929 83.793 111.565C82.0438 113.201 79.7475 114.127 77.3525 114.162C76.2131 114.178 75.0829 113.956 74.0348 113.509C72.9867 113.062 72.0439 112.4 71.2675 111.566C70.491 110.732 69.898 109.745 69.5268 108.667C69.1556 107.59 69.0145 106.447 69.1125 105.312C69.3062 102.924 70.3828 100.695 72.132 99.0583C73.8812 97.4219 76.1774 96.4961 78.5725 96.4617C79.7114 96.4464 80.8409 96.6698 81.8883 97.1174C82.9357 97.5649 83.8777 98.2268 84.6539 99.0604C85.4301 99.8941 86.0231 100.881 86.3949 101.958C86.7666 103.034 86.9089 104.177 86.8125 105.312Z" fill="white"/>
<path d="M82.3825 105.312C82.2855 106.505 81.747 107.619 80.8723 108.437C79.9976 109.254 78.8495 109.716 77.6524 109.732C77.0838 109.74 76.5199 109.628 75.9971 109.405C75.4742 109.181 75.004 108.85 74.6168 108.434C74.2296 108.017 73.9339 107.524 73.7488 106.987C73.5638 106.449 73.4935 105.879 73.5425 105.312C73.6372 104.118 74.175 103.002 75.0502 102.185C75.9254 101.367 77.0747 100.906 78.2724 100.892C78.841 100.884 79.405 100.996 79.9278 101.219C80.4507 101.443 80.9209 101.774 81.3081 102.19C81.6953 102.607 81.991 103.1 82.1761 103.637C82.3611 104.175 82.4314 104.745 82.3825 105.312Z" fill="#407BFF"/>
</g>
<path d="M21.6624 138.012H10.6624C9.89706 138.028 9.15256 137.762 8.57136 137.264C7.99017 136.766 7.61311 136.071 7.51237 135.312C7.08593 131.828 5.89413 128.481 4.02237 125.512C1.20006 121.118 -0.196888 115.96 0.0223684 110.742C0.414512 105.891 2.59933 101.359 6.15085 98.0316C9.70236 94.7038 14.366 92.8179 19.2324 92.7418C21.5503 92.7101 23.8493 93.1636 25.9815 94.0732C28.1138 94.9829 30.0322 96.3285 31.6134 98.0237C33.1946 99.7189 34.4037 101.726 35.1631 103.916C35.9224 106.107 36.2151 108.432 36.0224 110.742C35.4628 116.128 33.3817 121.244 30.0224 125.492C27.7633 128.408 26.1108 131.747 25.1624 135.312C24.9591 136.085 24.5055 136.77 23.8723 137.258C23.2391 137.746 22.4621 138.012 21.6624 138.012ZM19.2224 93.7718C14.6192 93.8424 10.2066 95.6211 6.84146 98.7627C3.47629 101.904 1.39878 106.184 1.01237 110.772C0.804626 115.781 2.14546 120.732 4.85237 124.952C6.80744 128.04 8.05083 131.524 8.49237 135.152C8.56572 135.668 8.82618 136.14 9.22435 136.478C9.62251 136.815 10.1307 136.994 10.6524 136.982H21.6524C22.2166 136.981 22.7652 136.796 23.2147 136.455C23.6641 136.114 23.9899 135.635 24.1424 135.092C25.1163 131.4 26.816 127.939 29.1424 124.912C32.3877 120.825 34.4059 115.901 34.9624 110.712C35.1558 108.533 34.8896 106.338 34.1809 104.269C33.4723 102.2 32.3369 100.302 30.8484 98.6999C29.3599 97.0973 27.5514 95.8252 25.5401 94.9659C23.5287 94.1067 21.3593 93.6794 19.1724 93.7118L19.2224 93.7718Z" fill="#407BFF"/>
<path d="M27.7724 111.381C27.2124 111.171 26.3124 111.261 25.1224 113.061C23.743 115.386 22.6993 117.894 22.0224 120.511C21.59 120.552 21.1548 120.552 20.7224 120.511C20.1331 120.505 19.5523 120.37 19.0204 120.116C18.4885 119.862 18.0183 119.495 17.6424 119.041C18.5524 117.781 19.2224 115.621 19.2924 112.121C19.3524 109.041 18.9624 107.601 18.0224 107.611C16.6824 107.611 15.7424 110.981 15.5324 113.231C15.2348 115.225 15.5853 117.262 16.5324 119.041C16.0055 119.582 15.2873 119.895 14.5324 119.911C14.1363 119.932 13.7393 119.898 13.3524 119.811C13.1424 116.131 12.4224 113.591 11.1924 112.221C10.8291 111.788 10.3666 111.45 9.84433 111.234C9.32202 111.018 8.75531 110.931 8.19237 110.981C6.19237 111.101 5.92236 112.481 5.92236 113.051C5.92236 115.381 9.13236 119.371 12.5324 120.501C12.7424 125.201 12.1824 132.381 10.2024 143.331L10.1324 143.741H11.0224V143.441C12.7924 133.701 13.5924 126.111 13.3924 120.731C13.7627 120.79 14.1377 120.813 14.5124 120.801C15.4375 120.77 16.3178 120.396 16.9824 119.751C17.43 120.259 17.9787 120.669 18.5934 120.953C19.2081 121.237 19.8753 121.39 20.5524 121.401C20.9351 121.431 21.3196 121.431 21.7024 121.401C19.5824 129.191 18.5524 139.261 20.2324 143.741H21.2324C19.4024 139.691 20.5124 129.181 22.6924 121.291C24.0625 121.024 25.33 120.377 26.3502 119.424C27.3703 118.471 28.1022 117.25 28.4624 115.901C29.1024 113.751 28.8024 111.811 27.7724 111.381ZM6.77237 113.001C6.77237 112.551 6.92237 111.941 8.15237 111.861H8.38237C8.7902 111.854 9.19425 111.941 9.56348 112.114C9.93271 112.287 10.2573 112.543 10.5124 112.861C11.3824 113.861 12.1724 115.801 12.4424 119.551C9.66237 118.341 6.81237 114.911 6.82237 113.001H6.77237ZM17.0824 118.261C16.6433 117.336 16.3885 116.334 16.3324 115.311C16.1124 111.971 17.3824 108.701 17.8824 108.501C17.8824 108.501 18.4124 108.851 18.3524 112.171C18.4275 114.269 18.0097 116.355 17.1324 118.261H17.0824ZM27.6624 115.671C27.3684 116.788 26.7844 117.807 25.9696 118.626C25.1547 119.444 24.1379 120.033 23.0224 120.331C23.6582 117.93 24.6241 115.628 25.8924 113.491C26.5524 112.491 27.0524 112.161 27.3224 112.161H27.4324C27.8424 112.391 28.1724 113.851 27.6624 115.671Z" fill="#407BFF"/>
<path d="M21.6625 145.132H9.66249C9.48921 145.136 9.31715 145.103 9.15741 145.035C8.99767 144.968 8.8538 144.868 8.73508 144.742C8.61635 144.616 8.52541 144.466 8.46812 144.302C8.41084 144.139 8.38849 143.965 8.4025 143.792L8.50249 142.342C8.53438 141.98 8.6989 141.641 8.96457 141.392C9.23024 141.143 9.57842 141.001 9.94249 140.992H21.9425C22.1162 140.99 22.2885 141.025 22.4483 141.093C22.608 141.161 22.7517 141.262 22.8703 141.389C22.9889 141.516 23.0797 141.667 23.1369 141.831C23.194 141.995 23.2164 142.169 23.2025 142.342L23.1025 143.792C23.0704 144.154 22.9055 144.491 22.6396 144.739C22.3737 144.986 22.0257 145.126 21.6625 145.132Z" fill="#407BFF"/>
<path d="M21.6623 145.671H9.66229C9.4207 145.675 9.18096 145.629 8.95869 145.534C8.73642 145.439 8.53662 145.298 8.3723 145.121C8.20723 144.944 8.08104 144.734 8.00183 144.505C7.92261 144.276 7.89212 144.033 7.91229 143.791L8.01229 142.341C8.05835 141.856 8.27985 141.405 8.6352 141.072C8.99056 140.738 9.45534 140.546 9.94229 140.531H21.9423C22.1845 140.529 22.4245 140.578 22.6468 140.674C22.869 140.771 23.0685 140.913 23.2323 141.091C23.3976 141.267 23.5241 141.475 23.6033 141.702C23.6826 141.93 23.7129 142.171 23.6923 142.411L23.5923 143.861C23.5462 144.346 23.3247 144.798 22.9694 145.131C22.614 145.464 22.1492 145.656 21.6623 145.671ZM9.89228 141.531C9.65705 141.544 9.43377 141.639 9.26181 141.8C9.08984 141.961 8.98022 142.177 8.95228 142.411L8.85229 143.861C8.84033 144.073 8.91215 144.282 9.05229 144.441C9.12452 144.516 9.21164 144.576 9.30806 144.615C9.40448 144.655 9.50808 144.674 9.61229 144.671H21.6123C21.8475 144.659 22.0708 144.564 22.2428 144.403C22.4147 144.242 22.5244 144.025 22.5523 143.791L22.6523 142.341C22.6585 142.238 22.644 142.134 22.6097 142.036C22.5754 141.938 22.5218 141.848 22.4523 141.771C22.3805 141.695 22.2938 141.634 22.1974 141.593C22.101 141.551 21.9971 141.531 21.8923 141.531H9.89228Z" fill="#407BFF"/>
<path d="M171.452 70.3423L159.692 57.7123L166.402 53.5723L176.032 63.9223L171.452 70.3423Z" fill="#407BFF"/>
<path d="M168.642 68.8517L160.992 60.6317L168.472 55.0117L174.742 61.7417L168.642 68.8517Z" fill="#407BFF"/>
<path d="M177.122 42.2415L168.312 49.9515C167.801 50.4276 167.191 50.7848 166.525 50.9974C165.86 51.2101 165.155 51.2729 164.462 51.1815C162.162 50.7415 157.583 52.3215 157.583 52.3215C161.323 48.4715 165.922 38.7815 177.122 42.2415Z" fill="#407BFF"/>
<path d="M188.052 53.9922C188.052 53.9922 183.602 58.4222 179.772 62.2622C179.261 62.7398 178.863 63.3247 178.605 63.9749C178.347 64.6251 178.237 65.3243 178.282 66.0222C178.562 68.3522 176.662 72.8322 176.662 72.8322C180.752 69.3622 190.722 65.4222 188.052 53.9922Z" fill="#407BFF"/>
<path d="M195.123 47.7914C201.623 41.0214 204.123 33.6614 201.263 30.6414C198.403 27.6214 190.963 29.5714 183.773 35.6414L165.943 50.6414C165.596 50.915 165.307 51.256 165.095 51.6439C164.883 52.0317 164.752 52.4584 164.709 52.8983C164.666 53.3383 164.712 53.7823 164.845 54.2039C164.978 54.6254 165.195 55.0157 165.483 55.3514L174.253 64.7814C174.567 65.0936 174.941 65.3386 175.353 65.5014C175.765 65.6642 176.205 65.7414 176.648 65.7283C177.09 65.7152 177.526 65.612 177.927 65.4252C178.329 65.2383 178.688 64.9716 178.983 64.6414L195.123 47.7914Z" fill="white"/>
<path d="M176.482 66.1717C176.002 66.1722 175.527 66.0738 175.087 65.8829C174.647 65.6919 174.25 65.4124 173.922 65.0617L165.122 55.6717C164.794 55.3194 164.542 54.903 164.382 54.4487C164.222 53.9945 164.157 53.5121 164.192 53.0317C164.229 52.4926 164.375 51.9666 164.621 51.4854C164.866 51.0041 165.207 50.5777 165.622 50.2317L183.452 35.2317C190.732 29.1117 198.552 27.0017 201.632 30.3117C204.712 33.6217 202.072 41.3117 195.482 48.1517L179.342 64.9417C178.972 65.3275 178.528 65.6351 178.037 65.8464C177.546 66.0577 177.017 66.1683 176.482 66.1717ZM197.412 29.7317C193.902 29.7317 188.842 32.0017 184.092 35.9817L166.272 50.9817C165.96 51.2405 165.703 51.56 165.517 51.921C165.331 52.282 165.221 52.6769 165.192 53.0817C165.166 53.4253 165.21 53.7707 165.324 54.096C165.438 54.4213 165.618 54.7195 165.852 54.9717L174.622 64.4017C174.859 64.6512 175.145 64.8499 175.461 64.9857C175.778 65.1215 176.118 65.1916 176.462 65.1917C177.277 65.1775 178.052 64.8434 178.622 64.2617L194.762 47.4617C200.872 41.1017 203.572 33.8717 200.902 31.0017C200.441 30.5586 199.893 30.2167 199.292 29.998C198.691 29.7793 198.05 29.6886 197.412 29.7317Z" fill="#407BFF"/>
<path d="M192.122 46.8818C191.273 47.5766 190.239 48.0082 189.148 48.1234C188.057 48.2386 186.956 48.0325 185.98 47.5303C185.005 47.0282 184.197 46.2519 183.657 45.2969C183.116 44.3419 182.867 43.2499 182.939 42.155C183.011 41.0602 183.401 40.0102 184.062 39.1342C184.723 38.2582 185.625 37.5944 186.658 37.2244C187.691 36.8543 188.81 36.7942 189.876 37.0513C190.943 37.3085 191.911 37.8717 192.662 38.6718C193.167 39.2459 193.553 39.9139 193.799 40.6375C194.045 41.3611 194.146 42.1262 194.096 42.8889C194.046 43.6515 193.845 44.3968 193.507 45.082C193.168 45.7671 192.697 46.3788 192.122 46.8818Z" fill="#407BFF"/>
<path opacity="0.3" d="M190.942 45.6118C190.354 46.0889 189.639 46.3838 188.885 46.4603C188.132 46.5368 187.372 46.3915 186.7 46.0423C186.027 45.6932 185.472 45.1553 185.101 44.4947C184.73 43.8341 184.56 43.0795 184.612 42.3237C184.664 41.5679 184.935 40.8437 185.393 40.24C185.85 39.6363 186.474 39.1794 187.188 38.9254C187.902 38.6714 188.674 38.6313 189.411 38.8101C190.147 38.9888 190.815 39.3787 191.332 39.9318C191.683 40.3288 191.951 40.7915 192.122 41.293C192.292 41.7946 192.361 42.3249 192.325 42.8533C192.288 43.3817 192.147 43.8977 191.91 44.3712C191.673 44.8447 191.344 45.2664 190.942 45.6118Z" fill="white"/>
<path d="M146.058 137.073C153.764 129.628 154.38 117.765 147.435 110.576C140.49 103.386 128.612 103.593 120.906 111.037C113.201 118.481 112.584 130.344 119.529 137.533C126.475 144.723 138.352 144.517 146.058 137.073Z" fill="#407BFF"/>
<path d="M150.322 124.052C150.112 126.888 149.224 129.631 147.732 132.052C146.126 134.712 143.868 136.918 141.172 138.461C138.475 140.005 135.429 140.835 132.322 140.872C129.361 140.916 126.449 140.108 123.933 138.544C121.418 136.981 119.404 134.727 118.132 132.052C116.958 129.558 116.448 126.802 116.652 124.052C117.02 119.509 119.068 115.266 122.397 112.152C125.725 109.038 130.095 107.277 134.652 107.212C136.819 107.183 138.968 107.609 140.96 108.461C142.953 109.312 144.745 110.572 146.221 112.158C147.697 113.745 148.824 115.623 149.531 117.671C150.237 119.72 150.507 121.893 150.322 124.052Z" fill="white"/>
<path opacity="0.6" d="M147.732 132.062C146.126 134.721 143.868 136.927 141.172 138.471C138.475 140.014 135.429 140.844 132.322 140.882C129.361 140.925 126.449 140.117 123.933 138.554C121.418 136.99 119.404 134.737 118.132 132.062C122.637 129.155 127.881 127.6 133.242 127.582C138.419 127.546 143.479 129.111 147.732 132.062Z" fill="#407BFF"/>
<path opacity="0.6" d="M141.382 118.292C141.216 120.312 140.306 122.198 138.827 123.584C137.349 124.97 135.408 125.757 133.382 125.792C132.415 125.808 131.456 125.621 130.566 125.243C129.676 124.865 128.875 124.305 128.215 123.598C127.556 122.891 127.051 122.053 126.736 121.139C126.42 120.225 126.3 119.255 126.382 118.292C126.548 116.272 127.459 114.386 128.937 113C130.415 111.614 132.356 110.827 134.382 110.792C135.349 110.776 136.309 110.963 137.199 111.341C138.089 111.719 138.889 112.279 139.549 112.986C140.209 113.693 140.713 114.531 141.029 115.445C141.345 116.359 141.465 117.329 141.382 118.292Z" fill="#407BFF"/>
<path d="M96.4321 52.7718C97.1934 48.206 96.2618 43.5193 93.8121 39.5918L76.6621 51.0318L80.4921 70.3018C82.2192 69.8447 83.8822 69.1728 85.4421 68.3018C87.0157 67.4261 88.4766 66.3616 89.7921 65.1318C93.3198 61.8659 95.6566 57.5161 96.4321 52.7718Z" fill="white"/>
<path d="M93.4921 41.0123C95.4232 44.555 96.1265 48.6376 95.4921 52.6223C94.7512 57.1444 92.528 61.2919 89.1721 64.4123C87.9117 65.5766 86.5148 66.5839 85.0121 67.4123C83.8381 68.0691 82.6021 68.6084 81.3221 69.0223L77.8321 51.4723L93.5321 40.9923M93.8521 39.5723L76.6621 51.0323L80.4921 70.3023C82.2192 69.8451 83.8822 69.1732 85.4421 68.3023C87.0157 67.4266 88.4766 66.3621 89.7921 65.1323C93.3144 61.8609 95.6441 57.5076 96.4121 52.7623C97.1734 48.1965 96.2418 43.5098 93.7921 39.5823L93.8521 39.5723Z" fill="#407BFF"/>
<path d="M76.6621 51.032L59.1621 42.602C60.2976 40.4849 61.774 38.5692 63.5321 36.932C71.8021 29.192 84.5321 29.192 91.7421 36.932C92.4912 37.7535 93.1609 38.6441 93.7421 39.592L76.6621 51.032Z" fill="#407BFF"/>
<path d="M76.6624 51.0316L80.4924 70.3016C77.169 71.2413 73.6524 71.2575 70.3206 70.3484C66.9888 69.4392 63.9678 67.6391 61.5824 65.1416C56.0724 59.2216 55.1024 50.1416 59.1624 42.6016L76.6624 51.0316Z" fill="#E0E0E0"/>
<path d="M19.2021 86.1012C19.1514 85.4122 19.1514 84.7203 19.2021 84.0312H20.2021C20.1563 84.6738 20.1563 85.3187 20.2021 85.9612L19.2021 86.1012Z" fill="#407BFF"/>
<path d="M20.8623 79.9722L19.8623 79.7122C20.2523 78.3078 20.7368 76.9313 21.3123 75.5922L22.2323 75.9922C21.6865 77.2865 21.2288 78.6162 20.8623 79.9722ZM24.1323 72.1822L23.2623 71.6922C23.9423 70.4622 24.7023 69.2222 25.5223 67.9922L26.3523 68.5522C25.5523 69.7522 24.8023 70.9722 24.1323 72.1822ZM28.8523 65.1022L28.0623 64.4822C28.9523 63.3522 29.8923 62.2422 30.8623 61.1822L31.6023 61.8522C30.6623 62.8922 29.7223 63.9922 28.8523 65.1022ZM34.5823 58.8122L33.8923 58.0822C34.9623 57.0822 36.0623 56.0822 37.1623 55.2322L37.7823 56.0122C36.6623 56.8722 35.6623 57.8122 34.5823 58.8122ZM41.2123 53.5122L40.6623 52.6722C41.8702 51.8697 43.1258 51.1417 44.4223 50.4922L44.8723 51.3822C43.6144 52.025 42.3926 52.736 41.2123 53.5122Z" fill="#407BFF"/>
<path d="M48.7727 49.7922L48.4727 48.7922C49.1327 48.5722 49.8027 48.3922 50.4727 48.2422L50.6927 49.2422C50.0527 49.4122 49.4127 49.5822 48.7727 49.7922Z" fill="#407BFF"/>
<path d="M185.983 77.5319C185.923 76.8619 185.833 76.2119 185.723 75.5919L186.723 75.4219C186.843 76.0619 186.933 76.7419 187.003 77.4219L185.983 77.5319Z" fill="#407BFF"/>
<path d="M166.662 116.101L166.152 115.241C167.212 114.611 168.262 113.911 169.252 113.181L169.842 113.991C168.822 114.741 167.752 115.451 166.662 116.101ZM172.822 111.591L172.152 110.841C173.072 110.021 173.972 109.141 174.822 108.231L175.552 108.911C174.662 109.841 173.762 110.741 172.822 111.591ZM178.022 106.001L177.232 105.391C177.982 104.391 178.702 103.391 179.372 102.341L180.222 102.881C179.532 103.951 178.792 105.001 178.022 106.001ZM182.132 99.5712L181.242 99.1113C181.812 98.0113 182.352 96.8712 182.832 95.7312L183.752 96.1113C183.262 97.2913 182.712 98.4512 182.132 99.5712ZM185.072 92.5712L184.072 92.2713C184.452 91.0813 184.782 89.8712 185.072 88.6712L186.072 88.8913C185.802 90.0813 185.462 91.3212 185.072 92.5312V92.5712ZM186.772 85.1313L185.772 84.9913C185.938 83.7606 186.042 82.5223 186.082 81.2812H187.082C187.052 82.5113 186.942 83.7912 186.772 85.0912V85.1313Z" fill="#407BFF"/>
<path d="M161.432 118.751L161.042 117.831C161.662 117.571 162.262 117.301 162.852 117.021L163.282 117.921C162.662 118.211 162.062 118.481 161.432 118.751Z" fill="#407BFF"/>
<path d="M106.213 48.3512C105.573 48.1912 104.933 48.0512 104.303 47.9512L104.463 46.9512C105.123 47.0612 105.793 47.2012 106.463 47.3712L106.213 48.3512Z" fill="#407BFF"/>
<path d="M136.753 93.5719L135.753 93.5119C135.753 92.9419 135.803 92.3519 135.803 91.7619C135.803 90.9919 135.803 90.212 135.723 89.422L136.723 89.3519C136.783 90.1619 136.812 90.9719 136.812 91.7619C136.802 92.3719 136.783 92.9819 136.753 93.5719ZM135.233 85.332C135.003 84.012 134.713 82.662 134.363 81.332L135.363 81.082C135.723 82.452 136.023 83.842 136.253 85.192L135.233 85.332ZM133.163 77.332C132.713 76.042 132.213 74.752 131.673 73.492L132.583 73.0919C133.143 74.382 133.653 75.6919 134.103 77.0119L133.163 77.332ZM129.902 69.7619C129.262 68.5419 128.582 67.332 127.902 66.172L128.753 65.642C129.483 66.822 130.183 68.052 130.823 69.302L129.902 69.7619ZM125.573 62.7619C124.753 61.6419 123.893 60.552 123.013 59.532L123.772 58.882C124.672 59.882 125.553 61.032 126.383 62.172L125.573 62.7619ZM120.193 56.5419C119.206 55.59 118.171 54.6888 117.092 53.8419L117.703 53.062C118.81 53.9262 119.871 54.8474 120.883 55.8219L120.193 56.5419ZM113.712 51.5419C112.548 50.8341 111.335 50.2092 110.083 49.672L110.473 48.752C111.768 49.3093 113.024 49.9541 114.233 50.6819L113.712 51.5419Z" fill="#407BFF"/>
<path d="M135.662 99.7623L134.712 99.4523C134.902 98.8523 135.072 98.2123 135.212 97.5723L136.212 97.7823C136.032 98.4623 135.852 99.1323 135.662 99.7623Z" fill="#407BFF"/>
<path opacity="0.2" d="M39.8024 21.1814C39.8706 20.3 39.7543 19.414 39.4609 18.5801C39.1675 17.7462 38.7035 16.9825 38.0984 16.338C37.4934 15.6934 36.7606 15.1821 35.9469 14.8366C35.1331 14.4911 34.2563 14.319 33.3724 14.3314C32.4722 14.3329 31.5803 14.5025 30.7424 14.8314C30.1506 13.4242 29.1519 12.2259 27.8744 11.3902C26.5969 10.5546 25.0988 10.1197 23.5724 10.1414C21.6283 10.1698 19.7444 10.8201 18.1967 11.997C16.6491 13.1739 15.5191 14.8156 14.9724 16.6814C13.1137 16.8202 11.3654 17.6175 10.042 18.93C8.71854 20.2424 7.90668 21.9839 7.75236 23.8414C7.75236 24.0214 7.75236 24.1914 7.75236 24.3714C6.85107 24.3776 5.98431 24.7189 5.32075 25.3288C4.65719 25.9388 4.24428 26.7738 4.16237 27.6714C4.12445 28.0987 4.17681 28.5293 4.31607 28.9351C4.45532 29.3409 4.67836 29.7128 4.97068 30.0269C5.26301 30.3409 5.6181 30.5899 6.01291 30.7578C6.40771 30.9257 6.83341 31.0087 7.26237 31.0014H37.3124C38.6896 30.9811 40.0099 30.4484 41.0157 29.5074C42.0215 28.5663 42.6406 27.2843 42.7524 25.9114C42.8329 24.9109 42.5896 23.911 42.0584 23.0593C41.5273 22.2076 40.7363 21.5492 39.8024 21.1814Z" fill="#407BFF"/>
<path opacity="0.2" d="M169.352 21.1117C169.414 20.3403 169.313 19.5647 169.058 18.8343C168.802 18.1039 168.397 17.435 167.868 16.8702C167.339 16.3055 166.698 15.8574 165.986 15.5546C165.273 15.2518 164.506 15.1009 163.732 15.1117C162.944 15.1131 162.163 15.2659 161.432 15.5617C160.915 14.3304 160.042 13.2816 158.925 12.5494C157.808 11.8172 156.498 11.435 155.162 11.4517C153.467 11.4875 151.828 12.0607 150.48 13.0888C149.132 14.1169 148.145 15.5466 147.662 17.1717C146.039 17.2947 144.513 17.9927 143.358 19.1401C142.203 20.2876 141.496 21.8093 141.362 23.4317C141.362 23.5917 141.362 23.7417 141.362 23.8917C140.573 23.9015 139.816 24.2051 139.239 24.7433C138.663 25.2814 138.307 26.0154 138.242 26.8017C138.21 27.1755 138.257 27.5519 138.379 27.9067C138.501 28.2614 138.696 28.5868 138.951 28.8618C139.206 29.1368 139.516 29.3553 139.861 29.5034C140.205 29.6515 140.577 29.7259 140.952 29.7217H167.222C168.428 29.7032 169.584 29.2361 170.464 28.4114C171.344 27.5868 171.885 26.4639 171.982 25.2617C172.054 24.3782 171.837 23.4952 171.362 22.7464C170.887 21.9977 170.182 21.4238 169.352 21.1117Z" fill="#407BFF"/>
<path opacity="0.1" d="M101.082 7.29159C101.197 6.07069 101.757 4.93462 102.655 4.0994C103.553 3.26419 104.726 2.78807 105.952 2.76159C106.533 2.75829 107.108 2.874 107.642 3.10159C108.153 2.17613 108.899 1.40204 109.805 0.857674C110.712 0.313305 111.745 0.0179826 112.802 0.00159523C114.032 -0.029467 115.23 0.394026 116.168 1.19105C117.105 1.98807 117.715 3.10265 117.882 4.32159C118.466 4.35163 119.037 4.49883 119.562 4.75442C120.087 5.01 120.556 5.36874 120.939 5.80923C121.323 6.24971 121.614 6.76292 121.795 7.31826C121.976 7.8736 122.043 8.4597 121.992 9.04159C122.002 9.15805 122.002 9.27513 121.992 9.39159C122.277 9.38304 122.56 9.43531 122.823 9.54493C123.085 9.65455 123.322 9.81899 123.516 10.0272C123.71 10.2355 123.857 10.4828 123.948 10.7525C124.039 11.0223 124.071 11.3084 124.042 11.5916C123.993 12.1843 123.725 12.7375 123.291 13.144C122.857 13.5505 122.287 13.7813 121.692 13.7916H101.832C101.4 13.7973 100.971 13.7125 100.573 13.5425C100.176 13.3726 99.8179 13.1213 99.5231 12.8049C99.2283 12.4884 99.003 12.1138 98.8617 11.7051C98.7203 11.2963 98.666 10.8625 98.7024 10.4316C98.7583 9.73572 99.0121 9.07036 99.4338 8.514C99.8555 7.95764 100.427 7.53349 101.082 7.29159Z" fill="#407BFF"/>
</svg>
