<svg width="66" height="67" viewBox="0 0 66 67" fill="none" xmlns="http://www.w3.org/2000/svg">
<g clip-path="url(#clip0_4423_135067)">
<path d="M41.7167 46.3207L41.6203 46.417L33.7175 49.7902L28.9951 51.8141L21.4778 54.9945L17.5264 56.6328L10.3947 59.7169L6.82876 61.2589L3.9375 62.5117L4.90125 60.1987L6.05776 57.5002L8.46715 51.8141L9.62365 49.1156L12.2258 43.0439L13.4787 40.1526L16.2736 33.5027L17.7192 30.0332L19.9358 24.9253C20.0322 24.7326 20.225 24.7326 20.4177 24.8289L41.7167 46.1279V46.3207Z" fill="url(#paint0_linear_4423_135067)"/>
<path d="M41.7165 46.3213C38.247 46.3213 34.1992 45.0685 33.1391 44.6829C28.0312 43.0446 22.5378 40.2497 18.7791 36.5874C17.8154 35.6237 16.948 34.5635 16.2734 33.407L17.719 29.9375C19.6465 35.4309 26.8747 39.575 33.3318 41.7917C35.3557 42.4663 37.2832 42.9482 38.8252 43.2373L41.7165 46.1286V46.3213ZM33.7173 49.6945L28.9949 51.7184C27.9348 51.4292 27.1638 51.2365 26.6819 51.0437C21.574 49.4053 16.0806 46.6105 12.322 42.9482L12.2256 42.8518L13.4785 39.9606C16.5625 43.6228 21.9595 46.5141 26.9711 48.1525C29.5732 49.0198 31.8862 49.5017 33.7173 49.6945ZM21.3813 54.8988L17.4299 56.5371C14.2495 55.2843 11.0691 53.6459 8.37058 51.622L9.52709 48.9235C12.6111 51.4292 16.5625 53.3567 20.3211 54.6096C20.7066 54.706 21.0921 54.8024 21.3813 54.8988ZM10.2981 59.7175L6.7322 61.2595C6.05757 60.874 5.38294 60.5849 4.80469 60.1994L5.96119 57.5009C7.31045 58.2719 8.85246 59.0429 10.2981 59.7175Z" fill="#F1B974"/>
<path d="M41.8226 46.2372C42.9141 45.1458 38.9172 39.3792 32.8953 33.3573C26.8734 27.3354 21.1068 23.3385 20.0153 24.43C18.9239 25.5214 22.9208 31.288 28.9427 37.3099C34.9646 43.3318 40.7312 47.3287 41.8226 46.2372Z" fill="#C26C08"/>
<path d="M35.5497 36.7771L34.5859 36.5843C34.7787 35.4278 34.9714 34.175 35.5497 33.0184C36.0316 31.8619 36.8026 30.9946 37.67 30.5127C37.8627 29.5489 38.3446 28.5852 39.0192 27.8142C41.0431 25.6939 44.609 25.212 47.0184 26.8504L46.4401 27.6214C44.4162 26.2722 41.3322 26.6577 39.6938 28.3924C39.212 28.8743 38.9228 29.4526 38.7301 29.9344C39.4047 29.7417 40.1757 29.7417 40.754 29.7417C41.525 29.7417 42.3923 29.8381 42.9706 30.3199C43.5489 30.8018 43.9344 31.6692 43.9344 32.8257C43.9344 33.2112 43.9344 33.6931 43.5489 34.0786C43.2597 34.4641 42.7779 34.5605 42.4887 34.5605C41.0431 34.8496 39.5975 34.5605 38.7301 33.6931C38.1518 33.1148 37.7663 32.3438 37.5736 31.4764C37.0917 31.8619 36.6098 32.4402 36.3207 33.2112C35.9352 34.4641 35.7424 35.6206 35.5497 36.7771ZM38.5373 31.1873C38.5373 31.9583 38.8265 32.7293 39.4047 33.3076C40.0793 33.8858 41.2358 34.175 42.3924 33.9822C42.5851 33.9822 42.7779 33.8858 42.8742 33.7894C42.9706 33.6931 42.9706 33.4039 42.9706 33.2112C42.9706 32.6329 42.8742 31.8619 42.3924 31.4764C42.0068 31.0909 41.3322 31.0909 40.754 31.0909C40.0793 30.8982 39.212 30.9946 38.5373 31.1873Z" fill="#E9FD05"/>
<path d="M28.801 30.611L27.9336 30.3219C28.8973 27.7198 31.0176 25.4068 33.8125 23.7684C36.0291 22.4191 38.824 21.5517 42.1972 21.1662C42.5827 21.0699 43.0645 21.0699 43.45 20.9735C46.3413 20.588 49.329 20.2025 51.2565 18.275C52.7021 16.8293 53.4731 14.5163 53.6658 11.3359H54.6296C54.4369 14.8055 53.5695 17.3112 51.9311 18.9496C49.7145 21.1662 46.6304 21.5517 43.5464 21.9372C43.1609 22.0336 42.679 22.0336 42.2935 22.13C39.0168 22.6119 36.4146 23.3829 34.2944 24.6358C31.6922 26.0814 29.7647 28.2016 28.801 30.611Z" fill="#E9FD05"/>
<path d="M32.5626 21.3594L32.2734 20.492C34.1046 19.8174 35.743 18.179 36.6103 16.1551C37.3813 14.324 37.5741 12.2037 37.1886 9.79431L38.1523 9.60156C38.5378 12.1073 38.3451 14.5167 37.5741 16.4442C36.4176 18.7572 34.5864 20.5884 32.5626 21.3594Z" fill="#C37D7D"/>
<path d="M24.6565 29.3589L23.7891 28.877C25.2348 26.564 25.9094 23.6727 25.813 20.2996C25.813 19.8177 25.813 19.1431 25.6203 18.5648C25.3311 17.1192 24.3674 15.7699 23.5 14.6134L24.271 14.0352C25.1384 15.288 26.1985 16.6373 26.4876 18.2757C26.584 18.9503 26.6804 19.6249 26.6804 20.2032C26.8731 23.7691 26.1985 26.8531 24.6565 29.3589Z" fill="#92CEBE"/>
<path d="M41.8138 17.1188L41.6211 16.155C43.0667 15.8659 44.416 15.1913 45.4761 14.2275C44.9942 14.1311 44.6087 13.842 44.3196 13.5529C43.5486 12.8783 43.2595 11.8181 43.1631 11.1435C43.0667 10.6616 42.9703 10.0834 43.1631 9.50512C43.4522 8.92687 43.8377 8.54137 44.5124 8.25224C45.187 7.96311 45.958 8.05949 46.6326 8.34862C47.6928 8.92687 48.271 10.2761 48.1746 11.6254C48.0783 12.1073 47.9819 12.6855 47.6927 13.1674C48.4638 12.7819 49.1384 12.0109 49.5239 10.9508C49.9094 9.987 50.0058 8.83049 50.1021 7.86674C50.1985 6.80661 50.1985 5.55373 49.7166 4.39722L50.584 4.01172C51.1623 5.2646 51.1623 6.61386 51.0659 7.86674C50.9695 9.02324 50.8731 10.1797 50.4876 11.2399C50.0058 12.4928 49.1384 13.4565 48.1746 13.9384C47.7891 14.1311 47.3072 14.2275 46.9217 14.3239L46.6326 14.613C45.187 15.9623 43.5486 16.8297 41.8138 17.1188ZM45.4761 9.02324C45.2834 9.02324 45.0906 9.02324 44.8979 9.11962C44.5124 9.21599 44.3196 9.50512 44.2232 9.79425C44.1269 10.1797 44.1269 10.5653 44.2232 10.9508C44.416 11.8181 44.7051 12.4928 45.0906 12.8783C45.3797 13.1674 45.8616 13.3601 46.3435 13.3601C46.729 12.8783 47.1145 12.2036 47.2109 11.4326C47.3072 10.4689 46.9217 9.50512 46.1507 9.11962C45.958 9.11962 45.6689 9.02324 45.4761 9.02324Z" fill="#B1FAFF"/>
<path d="M39.4038 42.2718L38.6328 41.6936C40.3676 39.5733 42.8733 38.0313 45.5718 37.5494C46.1501 37.4531 46.7284 37.3567 47.2102 37.3567C48.0776 37.2603 48.945 37.1639 49.8124 36.8748C52.029 36.2002 53.7638 34.1763 54.0529 31.8633L55.0166 31.9597C54.6311 34.6582 52.6073 36.9712 50.1015 37.7422C49.2341 38.0313 48.2704 38.1277 47.3066 38.2241C46.7284 38.3204 46.2465 38.3204 45.6682 38.4168C43.2588 38.8987 40.9458 40.3443 39.4038 42.2718Z" fill="#C37D7D"/>
<path d="M28.9971 0.734375L29.9608 3.91477H33.2376L30.6354 5.84228L31.5992 8.92629L28.9971 6.99878L26.2985 8.92629L27.2623 5.84228L24.6602 3.91477H27.9369L28.9971 0.734375Z" fill="#E9FD05"/>
<path d="M56.8466 19.8183C57.5386 19.8183 58.0995 19.2573 58.0995 18.5654C58.0995 17.8734 57.5386 17.3125 56.8466 17.3125C56.1547 17.3125 55.5938 17.8734 55.5938 18.5654C55.5938 19.2573 56.1547 19.8183 56.8466 19.8183Z" fill="#D3D3D3"/>
<path d="M35.9326 28.1034C36.6245 28.1034 37.1854 27.5425 37.1854 26.8505C37.1854 26.1586 36.6245 25.5977 35.9326 25.5977C35.2406 25.5977 34.6797 26.1586 34.6797 26.8505C34.6797 27.5425 35.2406 28.1034 35.9326 28.1034Z" fill="#E9FD05"/>
<path d="M61.5693 12.5878C62.2612 12.5878 62.8222 12.0269 62.8222 11.3349C62.8222 10.643 62.2612 10.082 61.5693 10.082C60.8773 10.082 60.3164 10.643 60.3164 11.3349C60.3164 12.0269 60.8773 12.5878 61.5693 12.5878Z" fill="#92CEBE"/>
<path d="M58.1005 28.9706C58.7925 28.9706 59.3534 28.4097 59.3534 27.7177C59.3534 27.0258 58.7925 26.4648 58.1005 26.4648C57.4086 26.4648 56.8477 27.0258 56.8477 27.7177C56.8477 28.4097 57.4086 28.9706 58.1005 28.9706Z" fill="#E9FD05"/>
<path d="M46.0537 4.20498C46.7456 4.20498 47.3065 3.64405 47.3065 2.9521C47.3065 2.26015 46.7456 1.69922 46.0537 1.69922C45.3617 1.69922 44.8008 2.26015 44.8008 2.9521C44.8008 3.64405 45.3617 4.20498 46.0537 4.20498Z" fill="#C37D7D"/>
<path d="M39.5966 6.13076C40.2886 6.13076 40.8495 5.56983 40.8495 4.87788C40.8495 4.18593 40.2886 3.625 39.5966 3.625C38.9047 3.625 38.3438 4.18593 38.3438 4.87788C38.3438 5.56983 38.9047 6.13076 39.5966 6.13076Z" fill="#D3D3D3"/>
<path d="M60.4135 0.734375L60.2208 3.43289L62.7266 4.39664L60.1244 5.16765L60.028 7.86616L58.486 5.55315L55.8839 6.22778L57.6187 4.20389L56.0766 1.89088L58.6788 2.85464L60.4135 0.734375ZM64.5577 22.5152L64.0758 24.1536L65.5214 25.1174L63.7867 25.2137L63.4012 26.8521L62.8229 25.2137L61.0882 25.3101L62.4374 24.25L61.7628 22.708L63.2084 23.5754L64.5577 22.5152ZM50.4869 28.4905L50.8724 29.8398H52.318L51.1615 30.7072L51.547 32.0564L50.4869 31.189L49.3304 32.0564L49.7159 30.7072L48.6557 29.8398H50.005L50.4869 28.4905ZM28.706 13.1668L29.8625 14.4197L31.4045 13.6487L30.6335 15.1907L31.79 16.3472L30.1516 16.0581L29.3806 17.6001L29.0915 15.8653L27.4531 15.5762L28.9951 14.9016L28.706 13.1668Z" fill="#E9FD05"/>
<path d="M47.5 24.0555C47.5 24.0555 51.9333 21.5497 54.5354 22.899L54.0535 24.5373C54.1499 24.5373 52.6079 23.2845 47.5 24.0555Z" fill="#C37D7D"/>
<path d="M52.0273 40.4422C52.0273 40.4422 56.4606 37.9364 59.0628 39.2857L58.5809 40.9241C58.5809 40.9241 57.1352 39.6712 52.0273 40.4422Z" fill="#EEEEEF"/>
<path d="M58.1016 35.5242C58.1016 35.5242 62.5348 33.0184 65.137 34.3677L64.6551 36.0061C64.6551 36.0061 63.2095 34.7532 58.1016 35.5242Z" fill="#92CEBE"/>
<path d="M42.5857 41.5031C42.5857 41.5031 47.019 38.9974 49.6211 40.3466L49.1392 41.985C49.1392 41.985 47.6936 40.7321 42.5857 41.5031ZM37.8633 25.1193C37.8633 25.1193 41.9111 22.0353 44.7059 22.9991L44.5132 24.6374C44.4168 24.6374 42.7784 23.6737 37.8633 25.1193Z" fill="#B1FAFF"/>
<path d="M43.3555 35.3342C43.3555 35.3342 47.4032 32.2501 50.1981 33.2139L50.0054 34.8523C50.0054 34.8523 48.367 33.8885 43.3555 35.3342Z" fill="#909192"/>
<path d="M57.5234 15.4812C57.5234 15.4812 61.9567 12.9755 64.5588 14.3247L64.077 15.9631C64.1733 15.9631 62.7277 14.7102 57.5234 15.4812Z" fill="#C37D7D"/>
<path d="M32.5625 11.5301C32.5625 11.5301 36.032 7.77145 35.3574 4.97656L33.6226 5.07294C33.6226 4.97656 34.49 6.71132 32.5625 11.5301Z" fill="#B1FAFF"/>
<path d="M52.3192 8.1551C52.3192 8.1551 55.7887 4.39645 55.1141 1.60156L53.3794 1.69794C53.3794 1.60156 54.2467 3.33632 52.3192 8.1551ZM27.8398 25.7918C27.8398 25.7918 31.3094 22.0332 30.6347 19.2383L28.9 19.3347C28.9 19.3347 29.7674 21.0694 27.8398 25.7918Z" fill="#92CEBE"/>
<path d="M44.7031 19.238C44.7031 19.238 49.7146 18.5633 51.0639 15.8648L49.7146 14.8047C49.7146 14.9011 49.3291 16.8286 44.7031 19.238Z" fill="#EEEEEF"/>
</g>
<path d="M4.47464 57.8633L3.47004 60.9551H0.219069L2.84916 62.866L1.84455 65.9579L4.47464 64.047L7.10473 65.9579L6.10013 62.866L8.73022 60.9551H5.47925L4.47464 57.8633Z" fill="#E9FD05"/>
<defs>
<linearGradient id="paint0_linear_4423_135067" x1="22.8271" y1="24.7656" x2="22.8271" y2="62.5117" gradientUnits="userSpaceOnUse">
<stop stop-color="#FDB805"/>
<stop offset="1" stop-color="#FD5E05"/>
</linearGradient>
<clipPath id="clip0_4423_135067">
<rect width="62.6441" height="62.6441" fill="white" transform="translate(3.35938 0.253906)"/>
</clipPath>
</defs>
</svg>
