<svg width="66" height="67" viewBox="0 0 66 67" fill="none" xmlns="http://www.w3.org/2000/svg">
<g clip-path="url(#clip0_4423_135097)">
<path d="M24.2833 46.3207L24.3797 46.417L32.2825 49.7902L37.0049 51.8141L44.5222 54.9945L48.4736 56.6328L55.6053 59.7169L59.1712 61.2589L62.0625 62.5117L61.0987 60.1987L59.9422 57.5002L57.5329 51.8141L56.3763 49.1156L53.7742 43.0439L52.5213 40.1526L49.7264 33.5027L48.2808 30.0332L46.0642 24.9253C45.9678 24.7326 45.775 24.7326 45.5823 24.8289L24.2833 46.1279V46.3207Z" fill="url(#paint0_linear_4423_135097)"/>
<path d="M24.2835 46.3213C27.753 46.3213 31.8008 45.0685 32.8609 44.6829C37.9688 43.0446 43.4622 40.2497 47.2209 36.5874C48.1846 35.6237 49.052 34.5635 49.7266 33.407L48.281 29.9375C46.3535 35.4309 39.1253 39.575 32.6682 41.7917C30.6443 42.4663 28.7168 42.9482 27.1748 43.2373L24.2835 46.1286V46.3213ZM32.2827 49.6945L37.0051 51.7184C38.0652 51.4292 38.8362 51.2365 39.3181 51.0437C44.426 49.4053 49.9194 46.6105 53.678 42.9482L53.7744 42.8518L52.5215 39.9606C49.4375 43.6228 44.0405 46.5141 39.0289 48.1525C36.4268 49.0198 34.1138 49.5017 32.2827 49.6945ZM44.6187 54.8988L48.5701 56.5371C51.7505 55.2843 54.9309 53.6459 57.6294 51.622L56.4729 48.9235C53.3889 51.4292 49.4375 53.3567 45.6789 54.6096C45.2934 54.706 44.9079 54.8024 44.6187 54.8988ZM55.7019 59.7175L59.2678 61.2595C59.9424 60.874 60.6171 60.5849 61.1953 60.1994L60.0388 57.5009C58.6895 58.2719 57.1475 59.0429 55.7019 59.7175Z" fill="#F1B974"/>
<path d="M24.1774 46.2372C23.0859 45.1458 27.0828 39.3792 33.1047 33.3573C39.1266 27.3354 44.8932 23.3385 45.9847 24.43C47.0761 25.5214 43.0792 31.288 37.0573 37.3099C31.0354 43.3318 25.2688 47.3287 24.1774 46.2372Z" fill="#C26C08"/>
<path d="M30.4503 36.7771L31.4141 36.5843C31.2213 35.4278 31.0286 34.175 30.4503 33.0184C29.9684 31.8619 29.1974 30.9946 28.33 30.5127C28.1373 29.5489 27.6554 28.5852 26.9808 27.8142C24.9569 25.6939 21.391 25.212 18.9816 26.8504L19.5599 27.6214C21.5838 26.2722 24.6678 26.6577 26.3062 28.3924C26.788 28.8743 27.0772 29.4526 27.2699 29.9344C26.5953 29.7417 25.8243 29.7417 25.246 29.7417C24.475 29.7417 23.6077 29.8381 23.0294 30.3199C22.4511 30.8018 22.0656 31.6692 22.0656 32.8257C22.0656 33.2112 22.0656 33.6931 22.4511 34.0786C22.7403 34.4641 23.2221 34.5605 23.5113 34.5605C24.9569 34.8496 26.4025 34.5605 27.2699 33.6931C27.8482 33.1148 28.2337 32.3438 28.4264 31.4764C28.9083 31.8619 29.3902 32.4402 29.6793 33.2112C30.0648 34.4641 30.2576 35.6206 30.4503 36.7771ZM27.4627 31.1873C27.4627 31.9583 27.1735 32.7293 26.5953 33.3076C25.9207 33.8858 24.7642 34.175 23.6076 33.9822C23.4149 33.9822 23.2221 33.8858 23.1258 33.7894C23.0294 33.6931 23.0294 33.4039 23.0294 33.2112C23.0294 32.6329 23.1258 31.8619 23.6076 31.4764C23.9932 31.0909 24.6678 31.0909 25.246 31.0909C25.9207 30.8982 26.788 30.9946 27.4627 31.1873Z" fill="#E9FD05"/>
<path d="M37.199 30.611L38.0664 30.3219C37.1027 27.7198 34.9824 25.4068 32.1875 23.7684C29.9709 22.4191 27.176 21.5517 23.8028 21.1662C23.4173 21.0699 22.9355 21.0699 22.55 20.9735C19.6587 20.588 16.671 20.2025 14.7435 18.275C13.2979 16.8293 12.5269 14.5163 12.3342 11.3359H11.3704C11.5631 14.8055 12.4305 17.3112 14.0689 18.9496C16.2855 21.1662 19.3696 21.5517 22.4536 21.9372C22.8391 22.0336 23.321 22.0336 23.7065 22.13C26.9832 22.6119 29.5854 23.3829 31.7056 24.6358C34.3078 26.0814 36.2353 28.2016 37.199 30.611Z" fill="#E9FD05"/>
<path d="M33.4374 21.3594L33.7266 20.492C31.8954 19.8174 30.257 18.179 29.3897 16.1551C28.6187 14.324 28.4259 12.2037 28.8114 9.79431L27.8477 9.60156C27.4622 12.1073 27.6549 14.5167 28.4259 16.4442C29.5824 18.7572 31.4136 20.5884 33.4374 21.3594Z" fill="#C37D7D"/>
<path d="M41.3435 29.3589L42.2109 28.877C40.7652 26.564 40.0906 23.6727 40.187 20.2996C40.187 19.8177 40.187 19.1431 40.3797 18.5648C40.6689 17.1192 41.6326 15.7699 42.5 14.6134L41.729 14.0352C40.8616 15.288 39.8015 16.6373 39.5124 18.2757C39.416 18.9503 39.3196 19.6249 39.3196 20.2032C39.1269 23.7691 39.8015 26.8531 41.3435 29.3589Z" fill="#92CEBE"/>
<path d="M24.1862 17.1188L24.3789 16.155C22.9333 15.8659 21.584 15.1913 20.5239 14.2275C21.0058 14.1311 21.3913 13.842 21.6804 13.5529C22.4514 12.8783 22.7405 11.8181 22.8369 11.1435C22.9333 10.6616 23.0297 10.0834 22.8369 9.50512C22.5478 8.92687 22.1623 8.54137 21.4876 8.25224C20.813 7.96311 20.042 8.05949 19.3674 8.34862C18.3072 8.92687 17.729 10.2761 17.8254 11.6254C17.9217 12.1073 18.0181 12.6855 18.3073 13.1674C17.5362 12.7819 16.8616 12.0109 16.4761 10.9508C16.0906 9.987 15.9942 8.83049 15.8979 7.86674C15.8015 6.80661 15.8015 5.55373 16.2834 4.39722L15.416 4.01172C14.8377 5.2646 14.8377 6.61386 14.9341 7.86674C15.0305 9.02324 15.1269 10.1797 15.5124 11.2399C15.9942 12.4928 16.8616 13.4565 17.8254 13.9384C18.2109 14.1311 18.6928 14.2275 19.0783 14.3239L19.3674 14.613C20.813 15.9623 22.4514 16.8297 24.1862 17.1188ZM20.5239 9.02324C20.7166 9.02324 20.9094 9.02324 21.1021 9.11962C21.4876 9.21599 21.6804 9.50512 21.7768 9.79425C21.8731 10.1797 21.8731 10.5653 21.7768 10.9508C21.584 11.8181 21.2949 12.4928 20.9094 12.8783C20.6203 13.1674 20.1384 13.3601 19.6565 13.3601C19.271 12.8783 18.8855 12.2036 18.7891 11.4326C18.6928 10.4689 19.0783 9.50512 19.8493 9.11962C20.042 9.11962 20.3311 9.02324 20.5239 9.02324Z" fill="#B1FAFF"/>
<path d="M26.5962 42.2718L27.3672 41.6936C25.6324 39.5733 23.1267 38.0313 20.4282 37.5494C19.8499 37.4531 19.2716 37.3567 18.7898 37.3567C17.9224 37.2603 17.055 37.1639 16.1876 36.8748C13.971 36.2002 12.2362 34.1763 11.9471 31.8633L10.9834 31.9597C11.3689 34.6582 13.3927 36.9712 15.8985 37.7422C16.7659 38.0313 17.7296 38.1277 18.6934 38.2241C19.2716 38.3204 19.7535 38.3204 20.3318 38.4168C22.7412 38.8987 25.0542 40.3443 26.5962 42.2718Z" fill="#C37D7D"/>
<path d="M37.0029 0.734375L36.0392 3.91477H32.7624L35.3646 5.84228L34.4008 8.92629L37.0029 6.99878L39.7015 8.92629L38.7377 5.84228L41.3398 3.91477H38.0631L37.0029 0.734375Z" fill="#E9FD05"/>
<path d="M9.15337 19.8183C8.46142 19.8183 7.90049 19.2573 7.90049 18.5654C7.90049 17.8734 8.46142 17.3125 9.15337 17.3125C9.84532 17.3125 10.4062 17.8734 10.4062 18.5654C10.4062 19.2573 9.84532 19.8183 9.15337 19.8183Z" fill="#D3D3D3"/>
<path d="M30.0674 28.1034C29.3755 28.1034 28.8146 27.5425 28.8146 26.8505C28.8146 26.1586 29.3755 25.5977 30.0674 25.5977C30.7594 25.5977 31.3203 26.1586 31.3203 26.8505C31.3203 27.5425 30.7594 28.1034 30.0674 28.1034Z" fill="#E9FD05"/>
<path d="M4.43071 12.5878C3.73876 12.5878 3.17783 12.0269 3.17783 11.3349C3.17783 10.643 3.73876 10.082 4.43071 10.082C5.12266 10.082 5.68359 10.643 5.68359 11.3349C5.68359 12.0269 5.12266 12.5878 4.43071 12.5878Z" fill="#92CEBE"/>
<path d="M7.89946 28.9706C7.20752 28.9706 6.64658 28.4097 6.64658 27.7177C6.64658 27.0258 7.20752 26.4648 7.89946 26.4648C8.59141 26.4648 9.15234 27.0258 9.15234 27.7177C9.15234 28.4097 8.59141 28.9706 7.89946 28.9706Z" fill="#E9FD05"/>
<path d="M19.9463 4.20498C19.2544 4.20498 18.6935 3.64405 18.6935 2.9521C18.6935 2.26015 19.2544 1.69922 19.9463 1.69922C20.6383 1.69922 21.1992 2.26015 21.1992 2.9521C21.1992 3.64405 20.6383 4.20498 19.9463 4.20498Z" fill="#C37D7D"/>
<path d="M26.4034 6.13076C25.7114 6.13076 25.1505 5.56983 25.1505 4.87788C25.1505 4.18593 25.7114 3.625 26.4034 3.625C27.0953 3.625 27.6562 4.18593 27.6562 4.87788C27.6562 5.56983 27.0953 6.13076 26.4034 6.13076Z" fill="#D3D3D3"/>
<path d="M5.58646 0.734375L5.77921 3.43289L3.27345 4.39664L5.87558 5.16765L5.97196 7.86616L7.51397 5.55315L10.1161 6.22778L8.38135 4.20389L9.92335 1.89088L7.32121 2.85464L5.58646 0.734375ZM1.44231 22.5152L1.92419 24.1536L0.478554 25.1174L2.21331 25.2137L2.59882 26.8521L3.17707 25.2137L4.91183 25.3101L3.56257 24.25L4.2372 22.708L2.79157 23.5754L1.44231 22.5152ZM15.5131 28.4905L15.1276 29.8398H13.682L14.8385 30.7072L14.453 32.0564L15.5131 31.189L16.6696 32.0564L16.2841 30.7072L17.3443 29.8398H15.995L15.5131 28.4905ZM37.294 13.1668L36.1375 14.4197L34.5955 13.6487L35.3665 15.1907L34.21 16.3472L35.8484 16.0581L36.6194 17.6001L36.9085 15.8653L38.5469 15.5762L37.0049 14.9016L37.294 13.1668Z" fill="#E9FD05"/>
<path d="M18.5 24.0555C18.5 24.0555 14.0667 21.5497 11.4646 22.899L11.9465 24.5373C11.8501 24.5373 13.3921 23.2845 18.5 24.0555Z" fill="#C37D7D"/>
<path d="M13.9727 40.4422C13.9727 40.4422 9.53938 37.9364 6.93725 39.2857L7.41912 40.9241C7.41912 40.9241 8.86476 39.6712 13.9727 40.4422Z" fill="#EEEEEF"/>
<path d="M7.89844 35.5242C7.89844 35.5242 3.46517 33.0184 0.863028 34.3677L1.3449 36.0061C1.3449 36.0061 2.79054 34.7532 7.89844 35.5242Z" fill="#92CEBE"/>
<path d="M23.4143 41.5031C23.4143 41.5031 18.981 38.9974 16.3789 40.3466L16.8608 41.985C16.8608 41.985 18.3064 40.7321 23.4143 41.5031ZM28.1367 25.1193C28.1367 25.1193 24.0889 22.0353 21.2941 22.9991L21.4868 24.6374C21.5832 24.6374 23.2216 23.6737 28.1367 25.1193Z" fill="#B1FAFF"/>
<path d="M22.6445 35.3342C22.6445 35.3342 18.5968 32.2501 15.8019 33.2139L15.9946 34.8523C15.9946 34.8523 17.633 33.8885 22.6445 35.3342Z" fill="#909192"/>
<path d="M8.47656 15.4812C8.47656 15.4812 4.04329 12.9755 1.44115 14.3247L1.92303 15.9631C1.82665 15.9631 3.27229 14.7102 8.47656 15.4812Z" fill="#C37D7D"/>
<path d="M33.4375 11.5301C33.4375 11.5301 29.968 7.77145 30.6426 4.97656L32.3774 5.07294C32.3774 4.97656 31.51 6.71132 33.4375 11.5301Z" fill="#B1FAFF"/>
<path d="M13.6808 8.1551C13.6808 8.1551 10.2113 4.39645 10.8859 1.60156L12.6206 1.69794C12.6206 1.60156 11.7533 3.33632 13.6808 8.1551ZM38.1602 25.7918C38.1602 25.7918 34.6906 22.0332 35.3653 19.2383L37.1 19.3347C37.1 19.3347 36.2326 21.0694 38.1602 25.7918Z" fill="#92CEBE"/>
<path d="M21.2969 19.238C21.2969 19.238 16.2854 18.5633 14.9361 15.8648L16.2854 14.8047C16.2854 14.9011 16.6709 16.8286 21.2969 19.238Z" fill="#EEEEEF"/>
</g>
<path d="M61.5254 57.8633L62.53 60.9551H65.7809L63.1508 62.866L64.1554 65.9579L61.5254 64.047L58.8953 65.9579L59.8999 62.866L57.2698 60.9551H60.5208L61.5254 57.8633Z" fill="#E9FD05"/>
<defs>
<linearGradient id="paint0_linear_4423_135097" x1="43.1729" y1="24.7656" x2="43.1729" y2="62.5117" gradientUnits="userSpaceOnUse">
<stop stop-color="#FDB805"/>
<stop offset="1" stop-color="#FD5E05"/>
</linearGradient>
<clipPath id="clip0_4423_135097">
<rect width="62.6441" height="62.6441" fill="white" transform="matrix(-1 0 0 1 62.6406 0.253906)"/>
</clipPath>
</defs>
</svg>
