<svg width="8" height="12" viewBox="0 0 8 12" fill="none" xmlns="http://www.w3.org/2000/svg">
<path d="M7.27855 8.22447C7.28552 7.2751 6.91023 6.52428 6.16167 5.99405C5.58352 5.58581 4.8819 5.37286 4.20329 5.16822C2.78964 4.73966 2.37956 4.51393 2.37956 3.8379C2.37956 3.08488 3.35817 2.81696 4.19593 2.81696C4.80604 2.81696 5.50798 3.00665 5.94391 3.28778L6.80814 1.94932C6.23842 1.57998 5.45867 1.32806 4.6887 1.24986V0H3.09445V1.33751C1.6773 1.64925 0.784569 2.57547 0.784569 3.8379C0.784569 4.72203 1.15196 5.42319 1.87447 5.91774C2.42398 6.29529 3.09417 6.49801 3.74156 6.69429C5.12816 7.1134 5.69124 7.3688 5.68483 8.21459L5.68479 8.22082C5.68479 8.93073 4.74403 9.18308 3.93805 9.18308C3.17672 9.18308 2.3488 8.84942 1.87949 8.35332L0.721313 9.44884C1.31564 10.0774 2.17914 10.5219 3.09442 10.6961V12H4.6887V10.7241C6.26344 10.4987 7.27699 9.55065 7.27855 8.22447Z" fill="#FDB805"/>
</svg>
