<svg width="21" height="19" viewBox="0 0 21 19" fill="none" xmlns="http://www.w3.org/2000/svg">
<path d="M0.199951 2.67845C0.199951 1.26015 1.35308 0.107025 2.77138 0.107025H18.1999C19.6183 0.107025 20.7714 1.26015 20.7714 2.67845V15.5356C20.7714 16.9539 19.6183 18.107 18.1999 18.107H2.77138C1.35308 18.107 0.199951 16.9539 0.199951 15.5356V2.67845ZM13.2098 6.95747C13.029 6.69229 12.7316 6.5356 12.4142 6.5356C12.0968 6.5356 11.7955 6.69229 11.6187 6.95747L8.12316 12.0843L7.05843 10.7543C6.87361 10.5253 6.59638 10.3927 6.30709 10.3927C6.01781 10.3927 5.73656 10.5253 5.55575 10.7543L2.98433 13.9686C2.75129 14.2579 2.70709 14.6557 2.86781 14.9892C3.02852 15.3226 3.36602 15.5356 3.73567 15.5356H7.59281H8.87852H17.2357C17.5933 15.5356 17.9227 15.3387 18.0875 15.0213C18.2522 14.7039 18.2321 14.3222 18.0312 14.0289L13.2098 6.95747ZM4.69995 6.5356C5.21144 6.5356 5.70198 6.33241 6.06366 5.97073C6.42533 5.60905 6.62852 5.11851 6.62852 4.60703C6.62852 4.09554 6.42533 3.605 6.06366 3.24332C5.70198 2.88164 5.21144 2.67845 4.69995 2.67845C4.18846 2.67845 3.69792 2.88164 3.33625 3.24332C2.97457 3.605 2.77138 4.09554 2.77138 4.60703C2.77138 5.11851 2.97457 5.60905 3.33625 5.97073C3.69792 6.33241 4.18846 6.5356 4.69995 6.5356Z" fill="#83B45D"/>
</svg>
