<svg width="20" height="20" viewBox="0 0 20 20" fill="none" xmlns="http://www.w3.org/2000/svg">
<circle cx="10" cy="10" r="10" fill="#FDDA74"/>
<path d="M17.1705 11.1437C17.142 14.9492 14.0315 18.0135 10.226 17.985C6.42048 17.9564 3.35625 14.8459 3.38477 11.0404L17.1705 11.1437Z" fill="#3C3C3B"/>
<path d="M10.2584 13.6628C8.28514 13.648 6.50702 14.4669 5.23527 15.7864C6.48039 17.1247 8.25275 17.9703 10.226 17.9851C12.1992 17.9999 13.9773 17.1809 15.2491 15.8614C14.004 14.5231 12.2316 13.6775 10.2584 13.6628Z" fill="#F25268"/>
<path d="M3.86314 9.03077C3.69535 9.02951 3.54188 8.90755 3.50958 8.7395C3.47082 8.53785 3.59975 8.35088 3.79474 8.30536L6.61802 7.74257L4.49271 6.52519C4.31896 6.4232 4.2535 6.20122 4.35549 6.02747C4.45747 5.85372 4.67946 5.78825 4.8532 5.89023L7.82733 7.59053C7.96101 7.66537 8.03373 7.81357 8.00572 7.96774C7.98443 8.12196 7.86277 8.23516 7.71486 8.26761L3.93702 9.0246C3.93702 9.0246 3.88328 9.03092 3.86314 9.03077Z" fill="#3C3C3B"/>
<path d="M16.7226 9.12735C16.7226 9.12735 16.6756 9.12699 16.6488 9.12008L12.8828 8.30656C12.7354 8.2719 12.6222 8.15022 12.5964 8.00236C12.5774 7.84784 12.6457 7.70069 12.7804 7.62787L15.7797 5.97233C15.955 5.87297 16.1827 5.94181 16.2753 6.11702C16.3747 6.29227 16.3059 6.51996 16.1307 6.61262L13.9873 7.79802L16.8019 8.40305C17.0029 8.44483 17.1223 8.64037 17.0805 8.84142C17.0456 9.01567 16.8904 9.12861 16.7226 9.12735Z" fill="#3C3C3B"/>
</svg>
