<svg width="224" height="223" viewBox="0 0 224 223" fill="none" xmlns="http://www.w3.org/2000/svg">
<path d="M130.942 50.3525C130.942 65.7814 143.623 78.405 159.121 78.405C174.619 78.405 187.299 65.7814 187.299 50.3525C187.299 34.9236 174.619 22.3 159.121 22.3C143.623 22.3 130.942 34.6431 130.942 50.3525ZM182.509 88.5039H150.104C139.396 88.5039 130.661 97.2002 130.661 107.86V191.457C130.661 196.506 134.887 200.714 139.959 200.714C145.032 200.714 149.258 196.506 149.258 191.457V172.661C149.258 167.612 153.485 163.404 158.557 163.404C163.629 163.404 167.856 167.612 167.856 172.661V191.457C167.856 196.506 172.083 200.714 177.155 200.714C182.227 200.714 186.454 196.506 186.454 191.457V119.923C186.454 118.24 188.708 117.398 189.835 118.52L204.206 132.827C207.869 136.474 213.787 136.474 217.45 132.827C221.113 129.18 221.113 123.289 217.45 119.642L190.68 91.8702C188.426 89.9065 185.608 88.5039 182.509 88.5039ZM6.11252 132.546C9.7757 136.193 15.6931 136.193 19.3563 132.546L25.2738 126.655C26.4009 125.533 28.3734 126.655 28.0916 128.058L18.7928 169.576C18.511 171.259 19.6381 172.661 21.3288 172.661H32.6001C35.1362 172.661 37.1087 174.625 37.1087 177.15V191.457C37.1087 196.506 41.3354 200.714 46.4075 200.714C51.4796 200.714 55.7063 196.506 55.7063 191.457V182.199C55.7063 177.15 59.9331 172.942 65.0052 172.942C70.0773 172.942 74.304 177.15 74.304 182.199V191.457C74.304 196.506 78.5308 200.714 83.6029 200.714C88.675 200.714 92.9017 196.506 92.9017 191.457V177.15C92.9017 174.625 94.8742 172.661 97.4102 172.661H108.682C110.372 172.661 111.499 171.259 111.218 169.576L96.0013 101.689C94.3106 93.8339 87.266 88.5039 79.3761 88.5039H52.3249C42.1807 88.5039 32.6001 92.4313 25.5555 99.4444L5.83074 119.081C2.44934 123.009 2.44934 128.9 6.11252 132.546ZM36.8269 50.3525C36.8269 65.7814 49.5071 78.405 65.0052 78.405C80.5032 78.405 93.1835 65.7814 93.1835 50.3525C93.1835 34.9236 80.5032 22.3 65.0052 22.3C49.5071 22.3 36.8269 34.6431 36.8269 50.3525Z" fill="#ACCDFF"/>
</svg>
