<svg width="24" height="24" viewBox="0 0 24 24" fill="none" xmlns="http://www.w3.org/2000/svg">
<circle cx="12" cy="12" r="12" fill="#05AAFD"/>
<g clip-path="url(#clip0_403_10351)">
<path d="M7.3335 10.25H6.16683C5.84466 10.25 5.5835 10.5112 5.5835 10.8333V17.25C5.5835 17.5722 5.84466 17.8333 6.16683 17.8333H7.3335C7.65566 17.8333 7.91683 17.5722 7.91683 17.25V10.8333C7.91683 10.5112 7.65566 10.25 7.3335 10.25Z" fill="white"/>
<path d="M16.0205 10.25H13.8225L14.1282 7.6454C14.1906 7.19282 14.0795 6.73338 13.817 6.35941C13.5546 5.98544 13.1603 5.72467 12.7135 5.62951C12.2666 5.53435 11.8003 5.61185 11.4083 5.84644C11.0162 6.08103 10.7275 6.45531 10.6002 6.89406L10.2671 8.06715C10.0427 8.84648 9.63711 9.56168 9.0835 10.1543V17.7563L9.14183 17.7966C9.7484 18.2017 10.4616 18.4175 11.1911 18.4166H14.1801C14.5048 18.4177 14.8244 18.3356 15.1084 18.1782C15.3923 18.0207 15.6313 17.7931 15.8023 17.5171L18.0522 13.9168C18.2791 13.5541 18.4046 13.1373 18.4159 12.7096C18.4272 12.282 18.3239 11.8591 18.1165 11.4849C17.9092 11.1107 17.6054 10.7988 17.2369 10.5817C16.8683 10.3645 16.4483 10.25 16.0205 10.25Z" fill="white"/>
</g>
<defs>
<clipPath id="clip0_403_10351">
<rect width="14" height="14" fill="white" transform="translate(5 5)"/>
</clipPath>
</defs>
</svg>
