<svg width="24" height="25" viewBox="0 0 24 25" fill="none" xmlns="http://www.w3.org/2000/svg">
<g clip-path="url(#clip0_4252_126691)">
<path d="M12.0002 0.707031C6.85527 0.707031 2.67004 4.89226 2.67004 10.0372C2.67004 18.2876 11.2538 24.3256 11.6203 24.5788C11.7314 24.6573 11.8641 24.6994 12.0002 24.6994C12.1362 24.6994 12.2689 24.6573 12.38 24.5788C12.7466 24.3256 21.3303 18.2876 21.3303 10.0372C21.3303 4.89226 17.1451 0.707031 12.0002 0.707031ZM12.0002 6.70497C13.8395 6.70497 15.3323 8.19778 15.3323 10.0372C15.3323 11.8765 13.8395 13.3693 12.0002 13.3693C10.1608 13.3693 8.66798 11.8765 8.66798 10.0372C8.66798 8.19778 10.1608 6.70497 12.0002 6.70497Z" fill="url(#paint0_linear_4252_126691)"/>
</g>
<defs>
<linearGradient id="paint0_linear_4252_126691" x1="12.0002" y1="24.6988" x2="12.0002" y2="0.707031" gradientUnits="userSpaceOnUse">
<stop stop-color="#0064E1"/>
<stop offset="0.994" stop-color="#26B7FF"/>
</linearGradient>
<clipPath id="clip0_4252_126691">
<rect width="24" height="24" fill="white" transform="translate(0 0.707031)"/>
</clipPath>
</defs>
</svg>
