<svg width="20" height="20" viewBox="0 0 20 20" fill="none" xmlns="http://www.w3.org/2000/svg">
<path d="M18.1716 10.4282C18.1716 10.6907 18.1716 10.9158 18.1343 11.1784C18.0597 12.2662 17.7612 13.279 17.3507 14.2168C17.1642 14.5919 16.9776 14.967 16.7537 15.3046C15.1493 17.8554 12.3134 19.5809 9.06716 19.5809C7.68657 19.5809 6.3806 19.2808 5.18657 18.7181C2.12687 17.2552 0 14.1042 0 10.4282C0 6.8646 2.05224 3.75118 5.03731 2.25073C4.81343 2.55082 4.58955 2.88842 4.40299 3.22602C4.40299 3.26353 4.36567 3.26353 4.36567 3.30104C4.25373 3.41358 4.14179 3.4886 4.02985 3.60113C3.8806 3.71367 3.76866 3.86371 3.6194 4.01375C3.58209 4.05127 3.54478 4.08878 3.54478 4.12629C3.50746 4.1638 3.47015 4.20131 3.47015 4.23882L3.3209 4.38887C3.20896 4.5014 3.13433 4.61393 3.0597 4.72647C2.68657 5.21411 2.38806 5.77678 2.12687 6.33944C2.08955 6.41447 2.08955 6.45198 2.05224 6.527C2.01493 6.60202 2.01493 6.67704 1.97761 6.71455C1.86567 6.78958 1.86567 6.82709 1.86567 6.8646L1.75373 7.2022C1.71642 7.27722 1.71642 7.35224 1.6791 7.42727C1.6791 7.46478 1.64179 7.50229 1.64179 7.5398C1.64179 7.61482 1.60448 7.68984 1.60448 7.76487C1.56716 7.95242 1.49254 8.17749 1.49254 8.40255C1.49254 8.47758 1.49254 8.51509 1.45522 8.59011V9.52789C1.45522 12.0036 2.57463 14.2168 4.36567 15.6797C5.74627 16.805 7.5 17.4802 9.40299 17.4802C11.1194 17.4802 12.7239 16.9176 14.0299 15.9798C15 15.3046 15.7836 14.4043 16.3433 13.354C16.4179 13.204 16.4925 13.0914 16.5672 12.9414C17.0149 11.9661 17.2761 10.9158 17.3134 9.79047V9.52789C17.3134 9.26531 17.3134 9.00273 17.2761 8.74016L17.3134 8.77767C17.4254 8.8902 17.5373 9.00273 17.6866 9.07776C17.7985 8.8902 17.9104 8.70264 18.0597 8.5526C18.1343 8.8902 18.1716 9.26531 18.209 9.60291C18.1343 9.903 18.1716 10.1656 18.1716 10.4282Z" fill="#EC1C24"/>
<path d="M17.2762 9.52771V9.79029C17.2762 11.4033 16.6045 12.7537 16.5299 12.9412C16.4553 13.0913 16.3807 13.2038 16.306 13.3538C15.7463 14.4042 14.9254 15.3044 13.9926 15.9796C12.6866 16.9174 11.0821 17.4801 9.36573 17.4801C7.46275 17.4801 5.70901 16.8049 4.32842 15.6795C2.53737 14.2166 1.41797 12.0034 1.41797 9.52771V8.58993C1.41797 8.51491 1.41797 8.4774 1.45528 8.40238C1.4926 8.17731 1.56722 7.95225 1.60454 7.72718C1.60454 7.65216 1.64185 7.57713 1.64185 7.50211C1.64185 7.4646 1.67916 7.42709 1.67916 7.38958C1.71648 7.31456 1.71648 7.23953 1.75379 7.16451C1.7911 7.05198 1.82842 6.97696 1.86573 6.86442C1.86573 6.82691 1.90304 6.7894 1.90304 6.75189C1.94036 6.67687 1.94036 6.60185 1.97767 6.56433C2.01498 6.48931 2.01498 6.4518 2.0523 6.37678C2.31349 5.7766 2.612 5.25145 2.98513 4.7638C3.05976 4.65127 3.1717 4.53873 3.24633 4.4262C3.28364 4.38869 3.32095 4.31367 3.39558 4.27616C3.43289 4.23865 3.43289 4.20113 3.47021 4.16362C3.50752 4.12611 3.54483 4.0886 3.54483 4.05109C3.65677 3.90105 3.80603 3.78851 3.95528 3.63847C4.06722 3.52593 4.17916 3.4134 4.2911 3.33838C4.2911 3.37589 4.25379 3.4134 4.25379 3.4134C4.25379 3.45091 4.21648 3.48842 4.21648 3.52593C3.76872 4.46371 3.47021 5.55153 3.35827 6.75189C3.32095 7.05198 3.32095 7.38958 3.32095 7.72718C3.32095 11.8909 5.74633 15.2669 8.76872 15.2669H9.10454C9.5523 15.2669 9.96275 15.1919 10.3732 15.0794C12.4254 14.5167 13.918 12.6411 13.918 10.428V10.2779C13.8807 8.96505 13.321 7.76469 12.4254 6.93945C13.0598 6.93945 13.6568 7.05198 14.2165 7.20202C15.3359 7.50211 16.3433 8.02727 17.2016 8.70247L17.2389 8.73998C17.2389 9.00256 17.2762 9.26513 17.2762 9.52771Z" fill="#F6921E"/>
<path d="M17.2759 9.52778V9.79036C17.2759 11.5159 16.5296 12.9413 16.5296 12.9788C16.455 13.1289 16.3804 13.2414 16.3057 13.3914C15.746 14.4417 14.9251 15.342 13.9923 16.0547C12.649 17.03 11.0072 17.5552 9.32813 17.5552C7.49977 17.5552 5.70873 16.9175 4.29082 15.7546C2.42515 14.2167 1.38037 11.966 1.38037 9.5653C1.38037 7.16458 2.46246 4.87641 4.32813 3.33845L4.40276 3.26343C4.40276 3.30094 4.36545 3.30094 4.36545 3.33845C4.36545 3.37596 4.32813 3.41347 4.32813 3.41347C2.49977 4.91392 1.49231 7.16458 1.49231 9.52778C1.49231 11.9285 2.53709 14.1417 4.40276 15.6796C5.74604 16.8425 7.49977 17.4801 9.32813 17.4801C11.0072 17.4801 12.5744 16.955 13.955 15.9797C14.8878 15.3045 15.7087 14.3667 16.2684 13.3539C16.3431 13.2039 16.4177 13.0913 16.4923 12.9413C16.4923 12.9413 17.2759 11.4784 17.2386 9.79036V9.52778C17.2386 9.26521 17.2386 9.00263 17.2013 8.77756V8.74005L17.2386 8.77756L17.2759 8.81507V9.52778Z" fill="#F6921E"/>
<path d="M15.1121 4.57631C15.1121 4.57631 8.61956 3.33844 5.59717 9.00262C5.59717 9.00262 6.11956 5.10146 10.7464 3.30093L9.81359 1.57542C9.81359 1.57542 11.6793 -0.112583 14.9255 0.337551L15.1121 4.57631Z" fill="#EC1C24"/>
<path d="M7.08936 7.57725C7.08936 7.57725 9.66398 4.16374 15.5968 5.06401L15.5222 3.07592C15.5222 3.07592 17.9849 3.0009 19.9998 4.72641L17.5371 8.47752C17.5371 8.47752 15.858 6.48943 12.3505 6.45192C10.8953 6.41441 9.14159 6.60196 7.08936 7.57725Z" fill="#F6921E"/>
<path d="M8.46998 8.89025C8.46998 8.89025 7.91027 9.00279 7.94759 8.74021C7.94759 8.62768 8.02221 8.59016 8.05953 8.62768C8.05953 8.59016 7.94759 8.44012 8.20878 8.3651C8.28341 8.25256 8.35803 8.14003 8.39535 8.06501C8.43266 7.98999 8.46997 7.87745 8.69386 7.95248C8.91774 7.98999 9.14162 8.21505 9.17893 8.29008C9.29087 8.29008 9.44012 8.32759 9.40281 8.32759L9.32818 8.40261C9.32818 8.40261 9.40281 8.44012 9.17893 8.44012C9.17893 8.47763 9.21624 8.51514 9.25356 8.51514C9.29087 8.55265 9.25356 8.55265 9.25356 8.59016C9.25356 8.59016 9.29087 8.7027 9.17893 8.66519C9.06699 8.62768 9.06699 8.59016 9.02968 8.59016C8.99236 8.59016 8.91774 8.59016 8.91774 8.62768C8.91774 8.66519 9.02968 8.74021 8.91774 8.74021C8.88042 8.77772 8.95505 8.81523 8.91774 8.81523C8.88042 8.85274 8.61923 9.0403 8.50729 9.07781C8.39535 9.07781 8.35803 9.0403 8.35803 9.00279C8.35803 8.96528 8.43266 8.92776 8.50729 8.92776C8.46997 8.92776 8.50729 8.89025 8.46998 8.89025Z" fill="#EC1C24"/>
<path d="M8.43291 9.49021C8.3956 9.49021 8.20903 9.37768 8.32097 9.34017C8.3956 9.26515 8.76873 9.04008 8.84336 9.00257C8.91798 8.96506 9.02992 9.07759 8.91798 9.15261C8.80604 9.26515 8.43291 9.49021 8.43291 9.49021Z" fill="#EC1C24"/>
<path d="M8.99268 9.22777C8.99268 9.15275 9.0673 8.92768 9.0673 8.89017C9.0673 8.85266 9.25387 8.81515 9.21656 9.04022C9.14193 9.22777 8.99268 9.30279 8.99268 9.22777Z" fill="#EC1C24"/>
<path d="M9.25379 8.77766C9.25379 8.77766 10.2986 8.74015 10.3732 8.77766C10.4478 8.81517 10.821 9.37784 10.709 9.86548C10.6344 10.3531 10.4851 10.4657 9.81349 10.5407C9.81349 10.3906 9.77618 9.97801 9.70155 9.86548C9.62692 9.75295 9.40304 9.49037 9.32842 9.49037C9.32842 9.6029 9.2911 9.9405 9.2911 9.9405C9.2911 9.9405 8.95528 9.97801 8.91797 9.90299V9.37784C8.91797 9.37784 9.21648 9.11526 9.25379 9.04024C9.2911 9.07775 9.32842 9.22779 9.66424 9.19028C9.66424 9.22779 9.25379 9.2653 9.25379 8.77766Z" fill="#EC1C24"/>
<path d="M8.84312 9.26514C8.84312 9.26514 8.5073 9.52771 8.43268 9.60274C8.39536 9.67776 8.35805 9.97785 8.7685 9.97785C8.84312 9.79029 8.84312 9.26514 8.84312 9.26514Z" fill="#EC1C24"/>
<path d="M8.05961 9.67799C7.94767 9.67799 7.87305 9.64048 7.87305 9.56545C7.87305 9.49043 8.0223 9.3779 8.13424 9.41541C8.20887 9.45292 8.39543 9.49043 8.39543 9.82803C8.47006 9.90305 8.65663 10.0531 8.91782 10.0531C9.17902 10.0531 9.32827 10.0531 9.32827 10.1281V10.6158C9.32827 10.6158 9.02976 10.6158 8.28349 10.0906C8.20887 10.0156 8.17155 9.94057 8.17155 9.82803C8.17155 9.7155 8.09693 9.67799 8.05961 9.67799Z" fill="#EC1C24"/>
<path d="M7.83583 9.71533C7.72389 9.71533 7.35075 10.0154 7.61195 10.128L7.7612 9.97791C7.7612 9.97791 7.68657 10.1655 7.83583 10.203C7.98508 10.2405 7.91046 10.128 7.98508 10.128C8.0224 10.203 8.0224 10.2405 8.09702 10.2405C8.17165 10.2405 8.17165 10.0154 8.09702 9.90289C8.05971 9.79035 7.98508 9.71533 7.83583 9.71533Z" fill="#EC1C24"/>
<path d="M9.40283 9.75293V10.7282C9.40283 10.7282 9.70134 10.6157 9.73865 10.5407C9.73865 10.3906 9.66403 9.75293 9.40283 9.75293Z" fill="#EC1C24"/>
<path d="M8.61963 10.3906C8.61963 10.3906 8.99276 10.6532 9.21664 10.7282C9.17933 10.7657 9.03008 10.9908 8.95545 10.9533C8.91814 10.9533 8.65694 10.5782 8.61963 10.3906Z" fill="#EC1C24"/>
<path d="M6.79102 10.7656H7.3134V10.9532H6.82833L6.79102 10.7656Z" fill="#EC1C24"/>
<path d="M12.351 10.6531H10.2241L10.5599 10.9157H12.351V10.6531Z" fill="#EC1C24"/>
<path d="M9.81327 10.6531C9.85058 10.6156 10.1118 10.8032 10.0372 10.8407C9.96252 10.8782 9.29088 11.1408 9.25357 11.1408C9.17894 11.1033 9.21626 10.9532 9.29088 10.9157C9.3282 10.8782 9.70133 10.7657 9.81327 10.6531Z" fill="#EC1C24"/>
<path d="M9.06737 11.1032C8.99275 11.0657 8.5823 11.4783 8.76887 11.5158C8.95543 11.5534 9.40319 11.6284 9.51513 11.7034C9.62708 11.6659 9.7017 11.5534 9.7017 11.5158C9.77633 11.5158 9.88827 11.6284 10.0002 11.5909C10.1121 11.5534 10.6345 11.1782 10.6345 11.1032C10.5226 11.0282 10.2987 10.8782 10.1868 10.8782C10.1121 10.8406 9.44051 11.2533 9.06737 11.1032Z" fill="#EC1C24"/>
<path d="M8.84316 11.6285C8.88047 11.6285 9.44017 11.816 9.55212 11.816C9.70137 11.7785 9.70137 11.666 9.776 11.666C9.85062 11.666 9.88794 11.741 9.99988 11.666C10.1118 11.5909 10.373 11.3659 10.4103 11.3284C10.4103 11.4034 10.4103 11.6285 9.92525 11.8535C9.44018 12.0786 8.28346 12.4162 8.24615 12.5662C8.28346 12.5662 8.43271 12.5287 8.54465 12.4912C8.61928 12.5287 8.73122 12.6788 8.69391 12.9413C8.65659 13.2039 8.47003 13.6165 8.47003 13.7291V14.4418C8.47003 14.4793 8.58197 14.8169 8.43271 14.7794C8.28346 14.7419 8.20883 14.7419 8.1342 14.7794C8.05958 14.7794 7.94764 14.8919 7.87301 14.8544C7.76107 14.8544 7.61182 14.7794 7.61182 14.7419C7.61182 14.7044 7.72376 14.7044 7.8357 14.6669C7.94764 14.6293 7.98495 14.5168 8.17152 14.4418C8.17152 14.3293 8.09689 13.3915 8.09689 13.2039C8.09689 13.0164 8.02226 12.6037 8.1342 12.4537C8.20883 12.2286 8.65659 11.5909 8.84316 11.6285Z" fill="#EC1C24"/>
<path d="M9.55225 12.1537C9.55225 12.2287 9.88807 13.0539 10.0373 13.0539C10.1866 13.0539 11.5672 12.7539 11.8284 12.8664C11.903 12.9789 12.0522 13.1665 12.0522 13.279C12.0522 13.279 12.0896 13.5416 12.0522 13.5791C12.0896 13.5791 12.2015 13.5416 12.2388 13.4666C12.2761 13.3915 12.2388 13.0164 12.2388 12.9414C12.2388 12.8664 12.4254 12.5288 12.2015 12.5663C11.9776 12.5663 11.3433 12.5663 11.1194 12.5288C10.9328 12.4913 10.4478 12.3787 10.3358 12.4538C10.2239 12.5288 10.0746 12.7163 10.0746 12.7539C10.0373 12.7539 10 12.7163 10.0746 12.5663C10.1119 12.4163 10.2985 12.0036 10.2612 11.7786C10.1493 11.8161 9.55225 12.1537 9.55225 12.1537Z" fill="#EC1C24"/>
<path d="M8.7689 10.8407C8.7689 10.8782 8.80622 10.9533 8.84353 10.9908L7.76144 10.9158C7.76144 10.9158 7.6495 10.8407 7.68681 10.8032L8.7689 10.8407Z" fill="#EC1C24"/>
<path d="M7.57455 10.7657H8.65664C8.65664 10.7657 8.58201 10.6531 8.5447 10.5781H7.53723C7.53723 10.5781 7.42529 10.5781 7.42529 10.8032C7.42529 10.8407 7.49992 10.9157 7.57455 10.7657Z" fill="#EC1C24"/>
<path d="M6.52973 10.9532H6.75361C6.75361 10.9532 6.82823 10.9157 6.75361 10.8406C6.67898 10.7656 6.52973 10.6906 6.64167 10.5405C6.52973 10.5405 6.38047 10.503 6.41779 10.8406H6.30585C6.30585 10.8406 6.26853 10.6531 6.00734 10.6531C5.74614 10.6531 5.11182 10.9157 5.11182 10.9157C5.11182 10.9157 5.82077 11.1032 6.00734 11.1032C6.19391 11.1032 6.30585 10.9157 6.30585 10.9157H6.38047C6.38047 10.9157 6.41779 11.0657 6.4551 11.1032V11.3283C6.4551 11.3283 6.34316 11.3658 6.38047 11.4783C6.38047 11.5909 6.4551 11.5909 6.49241 11.5909C6.52973 11.5909 6.52973 11.5533 6.64167 11.5533C6.67898 11.5158 6.64167 11.3658 6.56704 11.3283V11.1782C6.56704 11.1782 6.64167 11.1032 6.64167 11.0657C6.60435 10.9907 6.52973 11.0282 6.52973 10.9532Z" fill="#EC1C24"/>
<path d="M7.83573 12.0037C7.91036 11.9662 7.94767 11.8536 7.94767 11.8536V11.2159C7.94767 11.0659 7.68648 10.9534 7.64916 10.9534C7.61185 10.9909 7.53722 11.0284 7.49991 11.0284C7.42528 11.0284 7.38797 11.0284 7.31334 10.9534C7.08946 10.9534 6.97752 11.2159 6.97752 11.2535C6.97752 11.291 6.94021 11.7786 6.97752 11.8536C6.97752 11.9287 7.05215 12.0037 7.08946 12.0412C7.05215 12.1912 6.82827 13.054 7.12677 13.1665V13.3166H7.87304V13.1665C8.09692 12.979 7.91036 12.2287 7.83573 12.0037ZM6.97752 11.2159C6.97752 11.1784 7.08946 10.9909 7.23871 10.9909C7.31334 11.0659 7.38797 11.0659 7.4626 11.0659C7.53722 11.0659 7.61185 10.9909 7.64916 10.9909C7.72379 11.0284 7.87304 11.1034 7.87304 11.2159V11.8536C7.87304 11.8911 7.83573 11.9287 7.79842 11.9662H7.64916V11.6661H7.16409V11.9287H7.05215C7.01483 11.8911 6.97752 11.8536 6.97752 11.7786V11.2159ZM7.49991 12.979H7.35066C7.31334 12.979 7.27603 12.9415 7.27603 12.9039C7.27603 12.8664 7.31334 12.8289 7.35066 12.8289H7.49991C7.53722 12.8289 7.57454 12.8664 7.57454 12.9039C7.57454 12.9415 7.53722 12.979 7.49991 12.979ZM7.79842 13.054L7.42528 12.6414L7.08946 13.054C6.86558 12.979 7.01483 12.3038 7.08946 12.0037H7.79842C7.87304 12.3038 7.98498 12.9415 7.79842 13.054Z" fill="#EC1C24"/>
<path d="M7.68661 12.3038C7.76124 12.1912 7.6493 12.1162 7.6493 12.1162H7.20154C7.05228 12.1162 7.0896 12.3038 7.0896 12.3038L7.35079 12.5288C7.42542 12.5288 7.61198 12.4163 7.68661 12.3038Z" fill="#EC1C24"/>
<path d="M7.5 12.5662L7.76119 12.8663C7.76119 12.8663 7.72388 12.4912 7.72388 12.3787C7.68657 12.4162 7.5 12.5662 7.5 12.5662Z" fill="#EC1C24"/>
<path d="M7.12667 12.3787C7.12667 12.4912 7.08936 12.8663 7.08936 12.8663L7.35055 12.5662C7.35055 12.5662 7.2013 12.4162 7.12667 12.3787Z" fill="#EC1C24"/>
<path d="M7.64942 11.5909H7.68674V11.5534C7.68674 11.5159 7.64942 11.5159 7.64942 11.5159H7.23897C7.20166 11.5159 7.20166 11.5534 7.20166 11.5534V11.5909H7.23897H7.64942Z" fill="#EC1C24"/>
<path d="M7.05245 13.3164H7.01514V13.3539C7.01514 13.3914 7.05245 13.3914 7.05245 13.3914H7.79872C7.83603 13.3914 7.83603 13.3539 7.83603 13.3539V13.3164H7.79872H7.05245Z" fill="#EC1C24"/>
<path d="M4.552 10.6532C4.552 10.6532 1.60424 4.16373 8.46991 0L10.1117 3.0384C10.1117 3.0384 8.9923 3.41351 7.79827 4.46382C6.4923 5.58916 5.1117 7.46471 4.552 10.6532Z" fill="#F6921E"/>
</svg>
