<svg width="20" height="20" viewBox="0 0 20 20" fill="none" xmlns="http://www.w3.org/2000/svg">
<g clip-path="url(#clip0_5163_180205)">
<path d="M18.8467 9.41597C18.6086 6.53927 16.5137 4.81396 14.1517 4.81396C12.187 4.81396 10.8025 6.06562 10.0001 7.51129L9.41406 8.3765V15.2056L10.0001 16.1712L14.8827 16.2754L18.8467 9.41597Z" fill="#767982"/>
<path d="M5.84876 4.81396C3.49396 4.81396 1.39261 6.53091 1.15381 9.41597L5.19668 16.0686L10.0004 16.1712V7.51129C9.19797 6.06562 7.81297 4.81396 5.84876 4.81396Z" fill="#767982"/>
<path d="M9.99997 12.9321C7.87752 12.9321 6.02594 14.2216 5.19629 16.0685L5.58512 16.7083C6.62016 17.6027 7.81501 18.6282 8.908 19.5574C9.28506 19.8781 9.63928 20.0025 9.99997 19.9998C10.451 19.9965 10.9124 19.7899 11.4433 19.4681C12.4556 18.5919 13.725 17.4567 14.7297 16.5397L14.8825 16.2752C14.1017 14.3198 12.1995 12.9321 9.99997 12.9321Z" fill="#8E9094"/>
<path d="M11.4434 19.4681C12.4557 18.5919 13.7251 17.4567 14.7298 16.5397L14.8826 16.2752C14.1017 14.3198 12.1995 12.9321 10 12.9321V19.9998C10.4511 19.9965 10.9124 19.7899 11.4434 19.4681Z" fill="#8E9094"/>
<path d="M16.4467 10.2001C16.4467 11.3916 15.7788 12.4516 13.2629 14.7374C12.7768 15.1793 12.7329 15.9593 13.2148 16.4401C13.6136 16.8388 14.2729 16.8634 14.7299 16.5399C17.6324 13.891 18.8899 12.2394 18.8899 9.90705C18.8899 9.73772 18.8602 9.58019 18.8466 9.41602H17.0328C16.7091 9.41602 16.4467 9.67841 16.4467 10.0021V10.2001H16.4467Z" fill="#FFCCB3"/>
<path d="M4.72556 4.7275C3.43269 4.7275 2.38135 3.67615 2.38135 2.38328C2.38135 1.09041 3.43269 0 4.72556 0C6.01843 0 7.06977 1.09041 7.06977 2.38328C7.06977 3.67615 6.01843 4.7275 4.72556 4.7275Z" fill="#FFE6CC"/>
<path d="M15.2744 4.7275C13.9815 4.7275 12.9302 3.67615 12.9302 2.38328C12.9302 1.09041 13.9815 0 15.2744 0C16.5673 0 17.6186 1.09041 17.6186 2.38328C17.6186 3.67615 16.5673 4.7275 15.2744 4.7275Z" fill="#FFCCB3"/>
<path d="M5.5853 16.7085C5.99721 16.8383 6.47317 16.7523 6.78546 16.4401C7.26743 15.9593 7.22351 15.1792 6.7374 14.7374C4.22147 12.4516 3.55361 11.3916 3.55361 10.2001V10.0021C3.55361 9.67841 3.29121 9.41602 2.96755 9.41602H1.15364C1.14004 9.58019 1.11035 9.73772 1.11035 9.90705C1.11035 12.4635 2.84405 14.3405 5.5853 16.7085Z" fill="#FFE6CC"/>
<path d="M9.99997 12.9323C11.2946 12.9323 12.3442 11.8828 12.3442 10.5881C12.3442 9.29344 11.2946 8.2439 9.99997 8.2439C8.7053 8.2439 7.65576 9.29344 7.65576 10.5881C7.65576 11.8828 8.7053 12.9323 9.99997 12.9323Z" fill="#FFE6CC"/>
</g>
<defs>
<clipPath id="clip0_5163_180205">
<rect width="20" height="20" fill="white"/>
</clipPath>
</defs>
</svg>
