<svg width="50" height="50" viewBox="0 0 50 50" fill="none" xmlns="http://www.w3.org/2000/svg">
<path d="M9.125 43.625L16.9375 24.875H23.1875L13.8125 46.75L12.25 43.625H9.125Z" fill="#FA6450"/>
<path d="M16.9375 24.875L9.125 43.625H12.25L20.0625 24.875H16.9375Z" fill="#DC4632"/>
<path d="M34.125 43.625L26.3125 24.875H20.0625L29.4375 46.75L31 43.625H34.125Z" fill="#FA6450"/>
<path d="M23.1875 24.875H20.0625L29.4375 46.75L31 43.625H31.2227L23.1875 24.875Z" fill="#DC4632"/>
<path d="M29.4375 9.25C29.4375 8.91875 29.4648 8.59453 29.5055 8.27344C27.1174 6.86708 24.3965 6.12528 21.625 6.125C12.9953 6.125 6 13.1203 6 21.75C6 30.3797 12.9953 37.375 21.625 37.375C30.2547 37.375 37.25 30.3797 37.25 21.75C37.25 20.1023 36.9914 18.5164 36.5187 17.0258C32.5531 16.6555 29.4375 13.3109 29.4375 9.25Z" fill="#FAB400"/>
<path d="M9.125 21.75C9.125 13.6484 15.2922 6.98828 23.1875 6.20391C22.6683 6.15196 22.1468 6.12563 21.625 6.125C12.9953 6.125 6 13.1203 6 21.75C6 30.3797 12.9953 37.375 21.625 37.375C22.1523 37.375 22.6734 37.3469 23.1875 37.2961C15.2914 36.5117 9.125 29.8516 9.125 21.75Z" fill="#DC9600"/>
<path d="M37.25 15.5C40.7018 15.5 43.5 12.7018 43.5 9.25C43.5 5.79822 40.7018 3 37.25 3C33.7982 3 31 5.79822 31 9.25C31 12.7018 33.7982 15.5 37.25 15.5Z" fill="#3CC8B4"/>
<path d="M32.5492 9.25C32.5492 6.06094 34.9391 3.43516 38.025 3.05312C37.768 3.01923 37.5092 3.00148 37.25 3C35.5924 3 34.0027 3.65848 32.8306 4.83058C31.6585 6.00269 31 7.5924 31 9.25C31 10.9076 31.6585 12.4973 32.8306 13.6694C34.0027 14.8415 35.5924 15.5 37.25 15.5C37.5125 15.5 37.7703 15.4789 38.0242 15.4469C34.9391 15.0648 32.5492 12.4391 32.5492 9.25Z" fill="#1EAA96"/>
<path d="M41.1562 7.6875L36.4688 12.375L33.3438 9.25L34.9062 7.6875L36.4688 9.25L39.5938 6.125L41.1562 7.6875ZM21.625 32.6875C15.5844 32.6875 10.6875 27.7906 10.6875 21.75C10.6875 15.7094 15.5844 10.8125 21.625 10.8125C27.6656 10.8125 32.5625 15.7094 32.5625 21.75C32.5625 27.7906 27.6656 32.6875 21.625 32.6875Z" fill="#F0F0F0"/>
<path d="M23.1875 18.625V17.0625C23.1875 16.6481 23.0229 16.2507 22.7299 15.9576C22.4368 15.6646 22.0394 15.5 21.625 15.5V18.625C21.625 19.0394 21.4604 19.4368 21.1674 19.7299C20.8743 20.0229 20.4769 20.1875 20.0625 20.1875H18.5V24.875H26.3125C26.7269 24.875 27.1243 24.7104 27.4174 24.4174C27.7104 24.1243 27.875 23.7269 27.875 23.3125V20.1875C27.875 19.7731 27.7104 19.3757 27.4174 19.0826C27.1243 18.7896 26.7269 18.625 26.3125 18.625H23.1875Z" fill="#F0C8A0"/>
<path d="M15.375 18.625H18.5V26.4375H15.375V18.625Z" fill="#505050"/>
</svg>
