<svg width="38" height="44" viewBox="0 0 38 44" fill="none" xmlns="http://www.w3.org/2000/svg">
<path d="M3.5 40.75L11.3125 22H17.5625L8.1875 43.875L6.625 40.75H3.5Z" fill="#FA6450"/>
<path d="M11.3125 22L3.5 40.75H6.625L14.4375 22H11.3125Z" fill="#DC4632"/>
<path d="M28.5 40.75L20.6875 22H14.4375L23.8125 43.875L25.375 40.75H28.5Z" fill="#FA6450"/>
<path d="M17.5625 22H14.4375L23.8125 43.875L25.375 40.75H25.5977L17.5625 22Z" fill="#DC4632"/>
<path d="M23.8125 6.375C23.8125 6.04375 23.8398 5.71953 23.8805 5.39844C21.4924 3.99208 18.7715 3.25028 16 3.25C7.37031 3.25 0.375 10.2453 0.375 18.875C0.375 27.5047 7.37031 34.5 16 34.5C24.6297 34.5 31.625 27.5047 31.625 18.875C31.625 17.2273 31.3664 15.6414 30.8937 14.1508C26.9281 13.7805 23.8125 10.4359 23.8125 6.375Z" fill="#FAB400"/>
<path d="M3.5 18.875C3.5 10.7734 9.66719 4.11328 17.5625 3.32891C17.0433 3.27696 16.5218 3.25063 16 3.25C7.37031 3.25 0.375 10.2453 0.375 18.875C0.375 27.5047 7.37031 34.5 16 34.5C16.5273 34.5 17.0484 34.4719 17.5625 34.4211C9.66641 33.6367 3.5 26.9766 3.5 18.875Z" fill="#DC9600"/>
<path d="M31.625 12.625C35.0768 12.625 37.875 9.82678 37.875 6.375C37.875 2.92322 35.0768 0.125 31.625 0.125C28.1732 0.125 25.375 2.92322 25.375 6.375C25.375 9.82678 28.1732 12.625 31.625 12.625Z" fill="#3CC8B4"/>
<path d="M26.9242 6.375C26.9242 3.18594 29.3141 0.560156 32.4 0.178125C32.143 0.144226 31.8842 0.126483 31.625 0.125C29.9674 0.125 28.3777 0.78348 27.2056 1.95558C26.0335 3.12769 25.375 4.7174 25.375 6.375C25.375 8.0326 26.0335 9.62232 27.2056 10.7944C28.3777 11.9665 29.9674 12.625 31.625 12.625C31.8875 12.625 32.1453 12.6039 32.3992 12.5719C29.3141 12.1898 26.9242 9.56406 26.9242 6.375Z" fill="#1EAA96"/>
<path d="M35.5312 4.8125L30.8438 9.5L27.7188 6.375L29.2812 4.8125L30.8438 6.375L33.9688 3.25L35.5312 4.8125ZM16 29.8125C9.95937 29.8125 5.0625 24.9156 5.0625 18.875C5.0625 12.8344 9.95937 7.9375 16 7.9375C22.0406 7.9375 26.9375 12.8344 26.9375 18.875C26.9375 24.9156 22.0406 29.8125 16 29.8125Z" fill="#F0F0F0"/>
<path d="M17.5625 15.75V14.1875C17.5625 13.7731 17.3979 13.3757 17.1049 13.0826C16.8118 12.7896 16.4144 12.625 16 12.625V15.75C16 16.1644 15.8354 16.5618 15.5424 16.8549C15.2493 17.1479 14.8519 17.3125 14.4375 17.3125H12.875V22H20.6875C21.1019 22 21.4993 21.8354 21.7924 21.5424C22.0854 21.2493 22.25 20.8519 22.25 20.4375V17.3125C22.25 16.8981 22.0854 16.5007 21.7924 16.2076C21.4993 15.9146 21.1019 15.75 20.6875 15.75H17.5625Z" fill="#F0C8A0"/>
<path d="M9.75 15.75H12.875V23.5625H9.75V15.75Z" fill="#505050"/>
</svg>
