<svg width="50" height="50" viewBox="0 0 50 50" fill="none" xmlns="http://www.w3.org/2000/svg">
<path d="M12.5 43.75L20.3125 25H26.5625L17.1875 46.875L15.625 43.75H12.5Z" fill="#FA6450"/>
<path d="M20.3125 25L12.5 43.75H15.625L23.4375 25H20.3125Z" fill="#DC4632"/>
<path d="M37.5 43.75L29.6875 25H23.4375L32.8125 46.875L34.375 43.75H37.5Z" fill="#FA6450"/>
<path d="M26.5625 25H23.4375L32.8125 46.875L34.375 43.75H34.5977L26.5625 25Z" fill="#DC4632"/>
<path d="M32.8125 9.375C32.8125 9.04375 32.8398 8.71953 32.8805 8.39844C30.4924 6.99208 27.7715 6.25028 25 6.25C16.3703 6.25 9.375 13.2453 9.375 21.875C9.375 30.5047 16.3703 37.5 25 37.5C33.6297 37.5 40.625 30.5047 40.625 21.875C40.625 20.2273 40.3664 18.6414 39.8937 17.1508C35.9281 16.7805 32.8125 13.4359 32.8125 9.375Z" fill="#FAB400"/>
<path d="M12.5 21.875C12.5 13.7734 18.6672 7.11328 26.5625 6.32891C26.0433 6.27696 25.5218 6.25063 25 6.25C16.3703 6.25 9.375 13.2453 9.375 21.875C9.375 30.5047 16.3703 37.5 25 37.5C25.5273 37.5 26.0484 37.4719 26.5625 37.4211C18.6664 36.6367 12.5 29.9766 12.5 21.875Z" fill="#DC9600"/>
<path d="M40.625 15.625C44.0768 15.625 46.875 12.8268 46.875 9.375C46.875 5.92322 44.0768 3.125 40.625 3.125C37.1732 3.125 34.375 5.92322 34.375 9.375C34.375 12.8268 37.1732 15.625 40.625 15.625Z" fill="#3CC8B4"/>
<path d="M35.9242 9.375C35.9242 6.18594 38.3141 3.56016 41.4 3.17812C41.143 3.14423 40.8842 3.12648 40.625 3.125C38.9674 3.125 37.3777 3.78348 36.2056 4.95558C35.0335 6.12769 34.375 7.7174 34.375 9.375C34.375 11.0326 35.0335 12.6223 36.2056 13.7944C37.3777 14.9665 38.9674 15.625 40.625 15.625C40.8875 15.625 41.1453 15.6039 41.3992 15.5719C38.3141 15.1898 35.9242 12.5641 35.9242 9.375Z" fill="#1EAA96"/>
<path d="M44.5312 7.8125L39.8438 12.5L36.7188 9.375L38.2812 7.8125L39.8438 9.375L42.9688 6.25L44.5312 7.8125ZM25 32.8125C18.9594 32.8125 14.0625 27.9156 14.0625 21.875C14.0625 15.8344 18.9594 10.9375 25 10.9375C31.0406 10.9375 35.9375 15.8344 35.9375 21.875C35.9375 27.9156 31.0406 32.8125 25 32.8125Z" fill="#F0F0F0"/>
<path d="M26.5625 18.75V17.1875C26.5625 16.7731 26.3979 16.3757 26.1049 16.0826C25.8118 15.7896 25.4144 15.625 25 15.625V18.75C25 19.1644 24.8354 19.5618 24.5424 19.8549C24.2493 20.1479 23.8519 20.3125 23.4375 20.3125H21.875V25H29.6875C30.1019 25 30.4993 24.8354 30.7924 24.5424C31.0854 24.2493 31.25 23.8519 31.25 23.4375V20.3125C31.25 19.8981 31.0854 19.5007 30.7924 19.2076C30.4993 18.9146 30.1019 18.75 29.6875 18.75H26.5625Z" fill="#F0C8A0"/>
<path d="M18.75 18.75H21.875V26.5625H18.75V18.75Z" fill="#505050"/>
</svg>
