<svg width="20" height="20" viewBox="0 0 20 20" fill="none" xmlns="http://www.w3.org/2000/svg">
<path d="M16.7527 5.16719C16.7871 4.88859 16.8043 4.60816 16.8043 4.32746C16.8043 1.9375 14.8668 0 12.4768 0H5.24473C4.78981 0 4.40141 0.328516 4.32594 0.777109L1.6611 16.616C1.56547 17.1843 2.0036 17.7023 2.57989 17.7023H5.22485C5.67977 17.7023 6.07547 17.374 6.1509 16.9254L6.16329 16.8517H6.16332L5.79473 19.0426C5.71051 19.5435 6.09664 20 6.60457 20H8.91852C9.3195 20 9.66184 19.7104 9.72832 19.315L10.3857 15.408C10.499 14.7345 11.0821 14.2413 11.765 14.2413H12.3729C15.6749 14.2413 18.3516 11.5646 18.3516 8.26266C18.3516 6.98496 17.72 5.85555 16.7527 5.16719Z" fill="#002987"/>
<path d="M16.7528 5.16724C16.3389 8.5336 13.4698 11.1403 9.99158 11.1403H7.97342C7.51791 11.1403 7.12451 11.4437 7.00111 11.8727L5.79479 19.0425C5.71053 19.5435 6.09666 20 6.60459 20H8.91854C9.31951 20 9.66186 19.7105 9.72834 19.3151L10.3857 15.4081C10.499 14.7345 11.0821 14.2414 11.7651 14.2414H12.3729C15.6749 14.2414 18.3516 11.5646 18.3516 8.26271C18.3516 6.98501 17.7201 5.8556 16.7528 5.16724Z" fill="#0085CC"/>
<path d="M7.97332 11.1401H9.99148C13.4697 11.1401 16.3389 8.53344 16.7527 5.16711C16.132 4.72547 15.3736 4.46484 14.5538 4.46484H9.28625C8.68652 4.46484 8.17445 4.89793 8.07492 5.48934L7.00098 11.8725C7.12438 11.4435 7.51781 11.1401 7.97332 11.1401Z" fill="#00186A"/>
</svg>
