<svg width="56" height="46" viewBox="0 0 56 46" fill="none" xmlns="http://www.w3.org/2000/svg">
<path d="M4.13565 17.934C3.18851 20.8496 3.18787 24.0735 3.63204 27.2778C4.22665 29.4187 5.46 31.1845 6.57298 32.8484C6.95098 33.3861 7.39714 33.996 7.91948 34.5798C7.99827 34.9736 8.08296 35.396 8.21263 35.8285C7.75706 36.6154 7.55544 37.5 7.63686 38.4037C9.11393 48.0639 36.8434 46.1081 42.7134 44.1501C46.2229 43.3802 50.8362 39.9672 48.7715 35.7105C48.4516 35.3364 48.7178 34.8463 48.7431 34.4483C50.0541 32.7493 51.2641 31.0079 52.1412 29.1796C53.1198 27.4716 53.1264 25.6323 53.1324 24.0073C53.1308 22.2455 53.0247 20.7496 52.7966 19.4519C52.7322 19.08 52.6253 18.619 52.4506 18.1776L52.5504 17.7342C57.5991 15.218 57.0806 7.05337 50.7438 6.89807C48.0076 6.86576 46.0946 9.19861 45.6131 11.4105C45.5734 10.9961 45.5317 10.5759 45.4834 10.1531C48.7994 6.94852 47.5105 1.28517 42.5776 1.1127C40.4602 1.1127 38.5861 2.58507 37.9067 4.77937C37.5073 5.98351 37.519 7.22761 37.9127 8.3063C37.501 8.88598 37.1054 9.47064 36.7184 10.0426C35.9261 11.2138 35.1608 12.3449 34.3122 13.367C33.7391 12.0197 33.1334 10.6629 32.4433 9.337C34.9534 5.84329 33.2287 0.0189763 28.4297 0.123989C23.8597 -0.00375941 21.7446 5.89679 24.2923 9.30945C23.6105 10.5804 23.0162 11.8827 22.4417 13.245C21.1469 11.6592 20.0177 9.79482 18.7842 8.09157C19.7478 5.02395 17.5526 1.0025 14.1854 1.05396C11.181 1.06525 8.80558 3.88738 9.46765 7.03871C9.70565 8.33658 10.3453 9.47214 11.2522 10.2637C11.1909 10.7303 11.136 11.1921 11.0821 11.6452C10.9896 12.4244 10.8991 13.1857 10.7817 13.9295C10.6881 13.8443 10.5933 13.7605 10.4972 13.6781C10.6384 12.5649 10.455 11.3709 9.95371 10.2526C8.37778 6.63273 4.29464 5.72357 1.4622 8.44234C-1.45258 11.2338 0.27496 16.9262 4.13565 17.934Z" fill="white"/>
<path d="M5.38827 16.3697C5.79462 16.1762 5.88674 17.9137 6.04712 18.271C5.77713 18.4084 5.66254 18.7858 5.58722 19.0501C5.0269 21.5495 4.97036 24.2816 5.31583 26.8164C5.81714 28.6464 6.95634 30.2812 8.00117 31.8442C8.46771 32.5079 8.9604 33.1664 9.52987 33.7461C9.70266 34.5332 9.80997 35.3709 10.1896 36.0919C8.82757 37.4947 9.24366 39.4231 10.7724 40.5152C17.0919 45.0944 34.8361 44.5897 42.2656 42.4623C44.8691 41.829 48.6594 39.6002 47.1893 36.4485C47.0397 36.1623 46.844 35.9023 46.6284 35.662C46.9479 35.0378 46.9745 34.3291 47.1043 33.654C48.4621 32.0469 49.6689 30.2559 50.6007 28.3555C51.3895 27.013 51.3809 25.4309 51.3866 23.9195C51.382 22.5301 51.3143 21.1207 51.0762 19.7498C51.0324 19.497 50.8851 18.7708 50.6095 18.4059L51.0662 16.377C53.5518 15.963 54.9094 12.5767 53.8572 10.3979C53.2338 9.23117 51.7203 8.52748 50.4273 8.65978C48.6714 8.83947 47.4838 10.5329 47.2416 12.1818C47.1076 13.0939 47.2459 13.983 47.6753 14.7264C46.633 15.585 45.7735 16.6026 44.9982 17.6884C43.9683 15.0312 44.0316 12.1585 43.6225 9.37561C45.4244 8.38786 46.3917 5.26139 44.7346 3.74799C42.8313 2.02815 40.2935 2.93748 39.5691 5.31205C39.2207 6.34827 39.2838 7.57504 39.9628 8.45954C37.9222 11.1588 36.3223 14.2381 33.7201 16.4741C32.6685 13.9592 31.6544 11.4271 30.3026 9.05533C32.1411 7.69696 32.3524 4.4244 30.8136 2.76426C29.9702 1.9264 28.563 1.69124 27.4441 1.99873C24.5587 2.82011 24.0991 7.3671 26.4534 9.02788C25.0737 11.3599 24.0472 13.8741 23.0439 16.3948C20.4617 14.1411 18.8745 11.0528 16.8158 8.36988C18.4202 5.1681 15.3212 0.905112 11.9889 3.71483C10.3918 5.33313 11.1148 8.50148 13.136 9.42627C12.6968 12.1938 12.6371 14.936 11.6812 17.577C10.7773 16.3543 9.76744 15.2157 8.53169 14.3639C9.35242 12.343 8.17861 9.46056 6.0874 8.71621C4.92553 8.35522 3.5364 8.85563 2.69239 9.68048C0.506761 11.8521 2.31455 16.3121 5.38827 16.3697Z" fill="#68182B"/>
<path d="M5.98498 20.1827C6.04549 19.7822 6.12279 19.2805 6.27086 18.9441C7.05939 19.9881 7.8514 21.0296 8.63683 22.0761C9.53476 23.2723 10.4307 24.4708 11.2942 25.6921C11.6235 26.1655 11.97 26.632 12.2503 27.1368C10.9953 27.4816 9.5997 27.3368 8.35924 27.5512C7.6043 26.2275 6.63014 25.0427 5.74286 23.8041C5.74778 22.5958 5.80491 21.3765 5.98498 20.1827Z" fill="#67D5E8"/>
<path d="M7.99422 28.4206C7.92468 29.0545 7.82651 29.6859 7.71272 30.3139C7.09463 29.3142 6.5211 28.2933 6.06136 27.2157C5.75333 26.3253 5.77917 25.3544 5.74316 24.4222C6.11801 24.9288 6.49109 25.4368 6.85765 25.9494C7.26106 26.5193 7.68715 27.0826 8.01701 27.6998C8.08971 27.9321 8.00936 28.1849 7.99422 28.4206Z" fill="#00EBED"/>
<path d="M8.00269 30.7536C8.16328 29.7881 8.37652 28.8242 8.40904 27.8437C8.43469 27.855 8.46266 27.8602 8.49068 27.8587C9.76859 27.8034 11.0983 27.7851 12.3534 27.4917C12.3214 28.5462 12.097 29.6219 11.8964 30.6527C11.6294 31.764 11.5094 33.0024 10.8779 33.9697C9.60029 33.3482 8.82519 31.8767 8.00269 30.7536Z" fill="#CEFFFF"/>
<path d="M46.9224 37.7443C46.5151 44.1867 26.8949 43.5821 22.0647 43.0974C18.6832 42.7396 15.1736 42.2997 12.1321 40.6817C11.3427 40.2392 10.4928 39.6475 10.116 38.7899C9.82341 38.1241 9.97202 37.4395 10.3766 36.8424C10.5708 36.4005 10.7712 37.0376 11.0067 37.1839C17.1294 42.6439 34.6736 42.1808 42.0357 39.2143C43.5845 38.5943 45.3524 37.6886 46.3097 36.2397C46.6555 36.6726 46.9071 37.1777 46.9224 37.7443Z" fill="#FFE10E"/>
<path d="M17.6343 33.6033C17.2585 33.7722 17.0866 34.1766 16.9548 34.5402C16.4125 36.0157 15.853 37.5401 14.8424 38.768C14.2224 38.5302 13.5996 38.2522 13.0176 37.9203C14.276 36.3199 15.0879 34.4255 15.8169 32.5391C16.2278 31.2827 16.8275 29.2064 18.389 30.7618C19.9967 32.6265 20.5183 35.1646 21.5473 37.3588C22.0322 38.5485 22.6358 39.6919 23.5728 40.557C23.1524 40.5213 22.7325 40.4806 22.313 40.4349C20.5252 39.349 19.9112 32.9112 17.6343 33.6033Z" fill="#FBF199"/>
<path d="M21.7045 40.3665C19.4935 40.0967 17.29 39.6543 15.2028 38.8985C16.3213 37.5376 16.8086 35.8166 17.4906 34.2345C18.1527 33.1248 19.1657 35.0243 19.4042 35.5613C20.1797 37.1453 20.5231 39.0188 21.7045 40.3665Z" fill="#FAC135"/>
<path d="M39.7587 34.3729C39.6132 33.9834 39.3894 33.5596 38.944 33.469C37.2631 33.3537 36.5506 36.7214 35.9138 37.9405C35.5352 38.8596 35.1212 39.7834 34.3076 40.39C33.8602 40.4449 33.4122 40.489 32.9633 40.5301C34.9487 38.5728 35.4935 35.6537 36.6547 33.1988C37.0893 32.2125 38.1886 29.6996 39.5668 30.3293C40.1169 30.6586 40.2832 31.4625 40.4901 32.0196C40.7415 32.6963 41.0042 33.3687 41.2886 34.0324C41.8672 35.383 42.5418 36.7142 43.4502 37.875C42.9236 38.1668 42.3796 38.4167 41.8225 38.6415C40.8297 37.3906 40.2979 35.8556 39.7587 34.3729Z" fill="#FBF199"/>
<path d="M41.4679 38.7829C39.3924 39.5784 37.1615 40.0211 34.9594 40.309C35.9217 39.3136 36.2842 37.9039 36.8371 36.6631C37.2627 35.7216 37.5478 34.5619 38.4325 33.938C39.4253 33.3652 39.615 35.4205 39.9704 35.9982C40.365 36.977 40.8239 37.9426 41.4679 38.7829Z" fill="#FAC135"/>
<path d="M46.6818 33.1684C46.3761 33.4946 46.0267 33.8401 45.6323 33.9687C45.1707 33.3073 45.0318 32.4385 44.8267 31.6582C44.5267 30.3463 44.2886 29.0094 44.1685 27.6682C45.3607 27.7188 46.6331 27.8422 47.7809 27.4908C47.8556 28.6887 48.0927 29.8657 48.3139 31.0429C47.8152 31.7837 47.2925 32.5146 46.6818 33.1684Z" fill="#CEFFFF"/>
<path d="M50.5932 26.6926C50.2218 28.106 49.3738 29.3684 48.6042 30.6069C48.4158 29.5509 48.1962 28.4887 48.1503 27.4152C48.1486 27.2831 48.1432 27.3076 48.1987 27.199C48.9554 25.9062 49.8933 24.7273 50.7688 23.514C50.7957 24.571 50.7948 25.6601 50.5932 26.6926Z" fill="#00EBED"/>
<path d="M50.7517 22.9188C49.877 24.0924 48.9891 25.2648 48.1922 26.4928C48.0792 26.6667 47.922 26.87 47.8385 27.082C46.6833 27.4837 45.3833 27.3516 44.1702 27.2988C45.9866 24.3746 48.1996 21.714 50.2394 18.9448C50.6601 20.2133 50.6964 21.5916 50.7517 22.9188Z" fill="#67D5E8"/>
<path d="M47.8043 12.7525C47.8457 11.3763 48.6741 9.71759 50.0945 9.34082C51.2609 9.03156 52.7499 9.63168 53.3254 10.7089C53.9247 11.9112 53.503 13.5089 52.7767 14.5573C51.1638 16.9896 47.6115 15.5462 47.8043 12.7525ZM40.0635 5.82929C40.2826 4.88327 40.9259 3.84202 41.9056 3.55261C43.4354 3.11726 45.1924 4.4055 44.9452 6.05387C44.8715 7.07264 44.3512 8.16637 43.481 8.74065C43.0467 7.02364 41.5236 6.60322 40.3754 7.97908C39.9627 7.34365 39.8915 6.5716 40.0635 5.82929Z" fill="#FBF199"/>
<path d="M37.5721 12.9922C38.8138 11.3456 39.7352 9.409 41.251 7.99178C42.0502 7.29286 42.7432 8.19303 42.9064 8.97011C43.511 12.0346 43.2745 15.2586 44.5348 18.1887C44.5482 18.2212 44.5667 18.2513 44.5896 18.2779C44.1363 18.948 43.7064 19.6361 43.2785 20.3226C42.3249 18.6146 42.0655 16.6557 41.9575 14.7301C41.9073 14.0653 41.8355 12.0559 40.6537 12.4355C39.5208 12.9777 39.0856 14.4564 38.3016 15.3855C37.3128 16.7551 36.1699 18.0606 34.8185 19.0864C34.5327 18.4173 34.2501 17.7468 33.9709 17.0749C35.357 15.8916 36.5149 14.4702 37.5721 12.9922Z" fill="#FAC135"/>
<path d="M42.8977 20.9327C42.1748 21.9961 40.1514 25.5165 38.8796 25.5362C37.1685 25.2726 35.824 21.1426 35.068 19.667C36.7935 18.3765 38.1816 16.6912 39.378 14.9117C39.7423 14.3655 40.0438 13.7368 40.5079 13.2662C41.3686 12.3054 41.3314 14.7249 41.3751 15.162C41.463 16.2367 41.5608 17.3281 41.8363 18.374C42.0732 19.2724 42.4767 20.1084 42.8977 20.9327Z" fill="#FFE10E"/>
<path d="M25.6031 6.34076C25.4247 4.97436 25.9265 3.25249 27.3052 2.69383C30.481 1.60851 31.9528 4.71908 30.8609 7.36435C29.6862 10.1543 25.8119 9.23601 25.6031 6.34076ZM11.9365 7.14587C11.6394 6.25805 11.6192 5.12276 12.2327 4.35831C13.1622 3.20707 15.1953 3.05541 15.9941 4.43903C16.629 5.4056 16.874 6.77707 16.3498 7.83961C15.194 6.51275 13.6833 7.24858 13.2848 8.81794C12.6263 8.49103 12.167 7.83458 11.9365 7.14587Z" fill="#FBF199"/>
<path d="M13.4225 12.0233C14.0739 4.35441 16.3423 8.62017 18.8657 12.398C20.0164 14.0593 21.2701 15.6738 22.8028 17.0017C22.5518 17.5476 22.3566 18.2968 22.0689 18.7363C20.8048 18.0563 19.8576 16.9508 19.1182 15.7402C18.3252 14.6781 17.0358 10.0214 15.2264 12.0228C14.5099 13.3497 15.0146 14.9679 14.7211 16.4056C14.5565 17.7767 14.1015 19.0498 13.5342 20.2933C13.0721 19.5958 12.6046 18.8776 12.1103 18.1736C12.895 16.2076 13.1924 14.1155 13.4225 12.0233Z" fill="#FAC135"/>
<path d="M21.8729 19.3046C21.1056 20.9059 19.9063 24.6113 18.3191 25.3178C17.0939 25.9655 14.6222 21.8112 13.9326 20.8921C14.463 19.7717 14.9394 18.6265 15.1815 17.4053C15.5346 15.9566 15.335 14.4442 15.5141 12.9853C16.1939 10.1244 18.0462 15.396 18.5863 16.0511C19.4038 17.359 20.4493 18.645 21.8729 19.3046Z" fill="#FFE10E"/>
<path d="M2.90256 10.3617C5.31261 7.71953 8.1855 10.0469 8.18202 13.0704C8.16571 14.4468 7.13019 15.6091 5.74994 15.7418C3.1433 16.0209 1.3752 12.3598 2.90256 10.3617Z" fill="#FBF199"/>
<path d="M48.0332 15.2286C44.9662 17.8066 43.5563 21.7114 40.9881 24.71C38.0655 28.6668 36.1117 23.4085 34.9746 20.9766C33.2497 17.1114 31.8771 13.0508 29.7719 9.36691C28.9199 9.76941 27.869 9.77883 26.9863 9.3385C25.5468 11.7767 24.5306 14.4164 23.4683 17.0332C18.1901 30.3202 17.8834 27.4773 10.8059 17.4709C10.0668 16.5325 9.22136 15.5967 8.23543 14.9067C6.40143 17.2975 5.80179 14.7691 6.73284 18.5144C6.85288 18.6616 6.95362 18.8326 7.04349 18.951C9.00791 21.6727 11.2624 24.2405 12.9425 27.1441C12.9895 28.8162 12.5404 30.5181 12.1993 32.1544C11.9237 33.0201 11.6426 35.217 10.297 34.3981C10.4695 35.8411 11.4397 36.9932 12.6971 37.7301C13.7081 36.4706 14.4269 34.9834 15.0405 33.4993C15.3208 32.8215 15.5797 32.1352 15.8307 31.4462C16.0357 30.8838 16.2747 30.2228 16.8595 29.9528C20.2629 28.9065 21.2753 38.9605 24.2053 40.6056C26.9097 40.8033 29.6351 40.7993 32.34 40.5827C33.6537 39.5789 34.2812 38.0398 34.8925 36.5404C35.5525 34.9946 36.0999 33.3956 36.8605 31.8958C37.3809 30.9286 38.7858 29.0002 40.0091 30.2113C40.4713 30.6689 40.6389 31.3644 40.859 31.9556C41.6156 33.9597 42.4374 35.9908 43.7718 37.6895C44.6681 37.1426 45.5146 36.4724 46.0115 35.5285C46.8426 33.2143 46.063 35.1331 45.2004 34.4029C44.4758 33.4959 44.3686 32.229 44.0839 31.134C43.8412 29.9461 43.5945 28.7131 43.5415 27.4984C43.5695 26.7038 44.2459 26.1036 44.6347 25.4525C45.555 24.1467 46.5138 22.8677 47.4733 21.5907C48.3447 20.5188 49.0717 19.3049 50.0042 18.2939C50.145 17.6681 50.286 17.0424 50.4268 16.4165C49.5391 16.4 48.6026 15.9222 48.0332 15.2286ZM33.3966 31.2344C32.4673 33.0613 31.3998 34.8747 29.933 36.3244C28.6767 37.6219 27.6919 37.3771 26.591 36.0817C24.6054 33.7368 22.7934 30.7615 22.204 27.7202C22.1788 24.9523 25.125 19.4562 26.6002 16.9919C27.749 15.128 28.5432 14.0619 30.1145 16.3358C31.805 18.775 32.9733 21.5594 33.946 24.352C35.0148 27.1142 34.7211 28.6468 33.3966 31.2344Z" fill="#FAC135"/>
<path d="M32.1867 32.2032C31.6778 33.0999 31.1199 33.9774 30.4822 34.7886C29.9256 35.4688 29.2998 36.3116 28.4288 36.5762C28.3526 34.9052 28.3593 33.2072 28.7056 31.5662C28.9251 31.5316 29.1232 31.3699 29.2789 31.2252C30.1326 30.3232 30.8358 29.1711 31.122 27.9548C32.0453 28.2128 33.0434 28.1888 33.9741 27.985C33.6345 29.4893 32.9255 30.8645 32.1867 32.2032Z" fill="#67D5E8"/>
<path d="M28.3412 31.0385C27.5415 30.1865 26.2352 28.381 26.6167 27.1733C27.1026 25.7549 27.7227 24.29 28.6777 23.1263C29.5268 23.8399 29.8895 25.0159 30.3287 26.009C30.5218 26.5137 30.785 27.1061 30.79 27.6564C30.8369 28.3032 29.1147 31.8674 28.3412 31.0385Z" fill="#00EBED"/>
<path d="M28.6421 15.696C28.8206 15.7911 28.9403 15.9054 29.0952 16.0649C31.3409 18.8357 32.6341 22.3101 33.7109 25.6773C33.8839 26.3077 34.0734 26.9488 34.0231 27.5924C33.5803 27.7366 33.0825 27.7621 32.6281 27.7649C32.1348 27.7678 31.6104 27.7372 31.14 27.5694C31.1211 27.1949 31.006 26.8283 30.8828 26.4602C30.5173 25.528 29.6802 23.0223 28.6831 22.7634C28.2481 20.4445 28.2341 18.0217 28.6421 15.696Z" fill="#CEFFFF"/>
<path d="M23.045 26.1279C24.0999 22.7788 25.6713 19.5724 27.5753 16.6255C27.7825 16.327 27.9927 16.0373 28.2542 15.7849C27.8623 18.1434 27.8893 20.5837 28.338 22.9299C27.4063 24.136 26.7977 25.5405 26.2922 26.9669C26.2034 27.1153 26.2439 27.5268 26.0581 27.4957C25.0271 27.8419 23.895 27.8841 22.8206 27.7264C22.7342 27.1885 22.8985 26.6558 23.045 26.1279Z" fill="#67D5E8"/>
<path d="M22.8947 28.1089C23.9818 28.2504 25.1167 28.2013 26.1565 27.8522C26.4028 29.0535 27.1249 30.2335 27.938 31.1626C28.0498 31.2783 28.1882 31.4135 28.3439 31.4965C28.0006 33.1394 27.9834 34.8355 28.0566 36.5084C27.1984 36.0277 26.5894 35.1711 26.0179 34.3944C24.6703 32.5046 23.4604 30.3752 22.8947 28.1089Z" fill="#CEFFFF"/>
<path d="M39.5181 22.8408C39.0845 23.1757 38.5891 23.4082 38.0363 23.4247C37.4518 23.4421 36.8731 23.0392 36.426 22.6764C37.1085 24.076 37.9385 25.3911 38.8798 25.5361C40.1515 25.5164 42.175 21.996 42.8978 20.9326C42.684 20.5142 42.4753 20.0927 42.29 19.6615C41.4855 20.8246 40.6537 21.9635 39.5181 22.8408ZM46.3098 36.2397C45.3525 37.6886 43.5846 38.5943 42.0358 39.2143C34.6737 42.1807 17.1295 42.6438 11.0068 37.1838C10.987 37.1709 10.9685 37.1561 10.9515 37.1397C11.4494 37.9451 12.2318 38.5595 13.0342 39.0647C14.2005 39.7992 15.5068 40.2928 16.8253 40.6737C19.7372 41.5148 22.8152 41.8179 25.8335 41.9389C29.0084 42.0662 32.1666 41.8695 35.3167 41.4744C38.5852 41.0646 41.9532 40.3399 44.7563 38.528C45.4965 38.0494 46.1633 37.4573 46.6363 36.7297C46.5434 36.5577 46.433 36.3939 46.3098 36.2397ZM18.3192 25.3178C19.4052 24.8345 20.3095 22.9472 21.0181 21.2905C20.373 21.9811 19.6732 22.6005 18.8049 22.959C17.6426 23.4392 16.6522 22.7909 15.8089 22.0232C15.2136 21.4812 14.6926 20.8429 14.2731 20.1462C14.1632 20.3964 14.0497 20.6451 13.9327 20.8921C14.6223 21.8112 17.094 25.9654 18.3192 25.3178Z" fill="#F7B001"/>
<path d="M19.4491 19.1798C19.3019 18.699 18.7906 18.3543 18.4257 18.0505C18.2131 17.8735 18.0017 17.6984 17.8008 17.5143C17.089 16.8615 16.9213 16.9233 16.6032 17.8383C16.5035 18.1249 16.3845 18.4092 16.2588 18.7042C16.0734 19.1393 15.9855 19.5831 16.0996 20.0452C16.3258 20.9617 17.2535 21.6602 18.1608 21.2899C18.9697 20.9599 19.7251 20.0818 19.4491 19.1798ZM40.4689 18.0389C40.0318 17.077 39.0726 17.3683 38.2438 18.1203C37.8135 18.5105 37.3537 18.9641 37.132 19.514C36.7864 20.3711 36.8832 21.6689 38.0038 21.7906C38.5664 21.8519 39.1803 21.374 39.5852 21.0511C40.0997 20.6409 40.5828 20.229 40.7861 19.5832C40.9532 19.052 40.6836 18.512 40.4689 18.0389ZM40.3042 42.1856C37.4146 42.7492 34.4604 42.9821 31.521 43.0676C26.54 43.2126 21.4889 42.9378 16.6459 41.7042C14.4263 41.1388 11.35 40.1933 9.96844 38.1348C9.97626 38.3528 10.0206 38.5722 10.1162 38.7899C10.493 39.6475 11.343 40.2392 12.1324 40.6817C15.1738 42.2997 18.6835 42.7397 22.0649 43.0974C25.6333 43.4554 37.2724 43.8783 43.2747 41.4774C42.288 41.7689 41.2838 41.9945 40.3042 42.1856Z" fill="#F8F383"/>
<path d="M42.9983 3.51751C43.9468 4.19402 44.5637 5.26212 44.2734 6.50371C44.1168 7.17327 43.7264 7.68742 43.2201 8.07018C43.3271 8.26555 43.4173 8.48713 43.4814 8.7407C44.3516 8.16642 44.8719 7.07269 44.9455 6.05392C45.1343 4.79505 44.1535 3.74894 42.9983 3.51751ZM5.75019 15.7419C7.13044 15.6091 8.16596 14.4468 8.18228 13.0704C8.18228 13.0115 8.17944 12.9533 8.17725 12.895C8.06475 13.3048 7.89126 13.6959 7.66123 14.0433C6.8375 15.2876 5.17212 15.4331 3.99809 14.6299C2.89378 13.8741 2.37203 12.4162 2.5162 11.078C1.77855 13.1215 3.43152 15.9903 5.75019 15.7419ZM52.8565 14.4354C51.987 15.0448 50.9754 15.3921 49.9911 15.1383C48.6771 14.7993 48.188 13.2651 48.271 12.0637C48.3176 11.3899 48.5836 10.5995 49.0105 9.96008C48.2602 10.6623 47.834 11.7772 47.8046 12.7525C47.6118 15.5462 51.1641 16.9896 52.7769 14.5573C52.8042 14.5179 52.8301 14.4763 52.8565 14.4354ZM16.9549 34.5402C17.0867 34.1767 17.2586 33.7723 17.6344 33.6034C19.9113 32.9113 20.5252 39.3491 22.3131 40.435C22.3326 40.437 22.352 40.4386 22.3715 40.4406C22.1738 40.1958 21.9956 39.9357 21.8386 39.6629C21.4296 38.953 21.1968 38.1574 20.952 37.3803C20.5282 36.0345 20.0946 34.4745 19.112 33.4153C18.093 32.3167 17.0441 33.381 16.5047 34.3727C16.2334 34.8719 15.3378 37.5656 14.3345 38.5631C14.5027 38.6342 14.6721 38.7025 14.8425 38.768C15.8531 37.5401 16.4126 36.0158 16.9549 34.5402ZM16.35 7.83966C16.6399 7.25228 16.6936 6.57053 16.5773 5.91493C16.4833 6.47937 16.2473 7.01481 15.8932 7.43074C16.0492 7.53549 16.2026 7.6703 16.35 7.83966ZM11.9367 7.14593C12.1672 7.83458 12.6266 8.49109 13.285 8.818C13.3428 8.59076 13.4292 8.37174 13.5419 8.16615C12.0341 7.76338 11.6743 5.96725 12.0963 4.55416C11.6261 5.30797 11.6639 6.33097 11.9367 7.14593ZM38.944 33.4691C39.3893 33.5597 39.6132 33.9834 39.7587 34.373C40.2979 35.8558 40.8297 37.3907 41.8224 38.6416C41.9836 38.5764 42.1438 38.5088 42.3029 38.4387C41.907 38.0867 41.5601 37.6872 41.2742 37.1437C40.7817 36.2073 40.445 35.2069 40.0913 34.2134C39.7429 33.2352 39.2959 32.4437 38.1578 32.9916C37.5339 33.2919 37.1454 33.9868 36.8412 34.5722C36.503 35.2224 36.2133 35.8941 35.966 36.5837C35.4569 38.0028 35.0135 39.4975 33.8551 40.4408C34.0059 40.4244 34.1568 40.4087 34.3076 40.3902C35.1212 39.7835 35.5352 38.8597 35.9138 37.9407C36.5506 36.7215 37.2631 33.3537 38.944 33.4691ZM30.6856 7.71518C29.7786 8.50392 28.4377 8.88321 27.3448 8.27683C26.1386 7.6076 25.9588 6.04584 26.1841 4.83089C26.2753 4.33889 26.4974 3.49943 26.8891 2.91724C25.8277 3.62445 25.4443 5.12271 25.6034 6.34081C25.8026 9.10613 29.3443 10.0654 30.6856 7.71518Z" fill="#F3AF79"/>
<path d="M6.99248 11.1044C6.63063 10.609 6.12274 10.2207 5.53461 10.0609C4.56034 9.79627 4.45811 10.818 4.64107 11.474C4.86457 12.2751 5.43585 13.0999 6.30404 13.2326C7.75533 13.4542 7.50695 11.8089 6.99248 11.1044ZM15.2645 4.38179C14.9362 4.13918 14.5443 4.00336 14.1479 4.08093C13.2716 4.2526 13.04 5.13185 13.2904 5.90353C13.5911 6.83078 14.6497 6.83271 15.3529 6.35707C15.9448 5.9566 15.9817 4.91209 15.2645 4.38179ZM30.563 5.2886C30.4891 4.58186 30.1778 3.87101 29.5474 3.51029C28.4535 2.88412 27.9739 4.39211 27.8499 5.04476C27.6782 5.94794 27.9314 6.91102 29.0085 7.18797C29.8105 7.39414 30.6091 6.512 30.5909 5.68827C30.588 5.56153 30.5776 5.42838 30.563 5.2886ZM41.3337 4.55062C40.9762 4.92151 40.7112 5.4164 40.6759 5.84619C40.654 6.11361 40.6871 6.37125 40.9296 6.52023C41.0151 6.57266 41.1701 6.5717 41.2588 6.54565C41.7012 6.41533 42.0875 6.35327 42.548 6.33669C43.284 6.31037 43.2779 4.94713 42.7976 4.33717C42.4938 3.95157 41.8736 3.99015 41.3337 4.55062ZM51.4421 10.4371C49.39 11.3686 50.004 15.1989 52.0644 13.939C52.5107 13.6661 52.8844 13.1008 53.042 12.5053C53.4179 11.0852 52.2672 10.0626 51.4421 10.4371Z" fill="#FFF7CF"/>
<path d="M41.7845 33.2158C41.3789 32.2785 41.0687 31.1096 40.2472 30.4469C40.2226 30.427 40.1948 30.4122 40.1691 30.3936C40.5139 30.8415 40.6663 31.4386 40.8589 31.9558C41.6155 33.96 42.4373 35.991 43.7717 37.6897C44.0783 37.5027 44.3779 37.2994 44.6609 37.0774C43.2919 36.3079 42.3959 34.6287 41.7845 33.2158ZM12.3634 33.7858C12.8004 32.2079 13.2982 30.6038 13.5046 28.9757C13.614 28.1121 13.8103 27.0304 13.3037 26.2587C12.8605 25.5838 12.2979 24.9782 11.762 24.3776C10.7232 23.2131 9.64216 22.0884 8.5556 20.9689C10.0977 22.9761 11.6818 24.9657 12.9423 27.1444C12.9892 28.8164 12.5401 30.5184 12.199 32.1546C11.9234 33.0204 11.6424 35.2173 10.2967 34.3983C10.3323 34.6958 10.4035 34.9802 10.5023 35.2519C10.5036 35.2526 10.5046 35.2534 10.5058 35.2542C11.6106 35.9144 12.1284 34.6347 12.3634 33.7858ZM38.4323 33.9382C37.5476 34.5621 37.2625 35.7219 36.8369 36.6632C36.284 37.9041 35.9216 39.3138 34.9592 40.3092C35.473 40.2421 35.9855 40.1656 36.4965 40.0798C36.5275 40.0445 36.559 40.0086 36.5885 39.9756C37.1466 39.355 37.5662 38.6274 37.8468 37.8434C38.2089 36.8311 38.5369 35.2475 39.6016 34.9796C39.3705 34.2736 39.0643 33.5736 38.4323 33.9382ZM23.7788 33.5856C24.4484 34.759 25.1851 35.934 26.1251 36.912C26.8422 37.6582 27.8231 38.3043 28.8861 37.9557C30.0398 37.5775 30.8969 36.3229 31.5289 35.3623C32.4748 33.9247 33.3316 32.3179 33.9081 30.6963C34.0762 30.2249 34.1949 29.7373 34.2621 29.2414C34.0599 29.8563 33.7709 30.5026 33.3962 31.2347C32.4669 33.0616 31.3994 34.8749 29.9327 36.3246C28.6764 37.6221 27.6916 37.3773 26.5906 36.0819C24.6051 33.737 22.7931 30.7618 22.2036 27.7205C22.1798 25.1024 24.8136 20.0453 26.3472 17.4198C26.318 17.4592 26.288 17.5009 26.2606 17.5364C25.4936 18.5333 24.7836 19.516 24.1914 20.6324C23.4458 22.0388 22.8384 23.5163 22.0594 24.9052C21.3601 26.1522 21.1516 27.346 21.5724 28.7224C22.0899 30.4143 22.9049 32.0539 23.7788 33.5856ZM18.4388 13.646C17.9826 12.7765 17.5872 11.8527 17.0432 11.0335C16.8129 10.6869 16.3334 10.0937 15.8413 10.1813C15.1807 10.299 14.8804 11.0709 14.6706 11.6297C14.358 12.4619 14.2814 13.3834 14.2117 14.2624C14.0732 16.0122 13.9188 18.0623 13.1453 19.7061C13.2749 19.9024 13.4056 20.0997 13.534 20.2934C14.1012 19.0499 14.5562 17.7769 14.7208 16.4058C15.0144 14.968 14.5096 13.3498 15.2262 12.0229C17.0355 10.0215 18.325 14.6782 19.1179 15.7403C19.8574 16.9509 20.8046 18.0564 22.0686 18.7364C22.1747 18.5743 22.2682 18.3698 22.3566 18.1491C20.4389 17.627 19.2818 15.2528 18.4388 13.646ZM43.3728 19.5527C43.1544 19.2178 43.0261 18.8231 42.9055 18.4449C42.6841 17.7503 42.5476 17.0261 42.4348 16.3068C42.2832 15.3391 42.3035 14.3534 42.1359 13.3853C42.0275 12.7588 41.8972 11.9469 41.4229 11.4754C40.548 10.606 39.1194 13.1404 38.8071 13.5961C38.2237 14.4478 37.6593 15.3271 36.981 16.1075C36.2628 16.9338 35.4903 17.823 34.4973 18.3245C34.6046 18.5784 34.71 18.8331 34.8184 19.0865C36.1699 18.0608 37.3127 16.7552 38.3015 15.3856C39.0855 14.4566 39.5207 12.9778 40.6536 12.4357C41.8354 12.056 41.9073 14.0654 41.9573 14.7303C42.0654 16.6558 42.3248 18.6147 43.2784 20.3228C43.3863 20.1496 43.4958 19.9769 43.6043 19.8039C43.5192 19.7256 43.4338 19.6461 43.3728 19.5527ZM19.404 35.5614C19.1656 35.0244 18.1525 33.1248 17.4904 34.2346C17.3162 34.6386 17.1547 35.0518 16.9921 35.4658C18.2727 34.8284 18.9296 36.1076 19.3021 37.1124C19.6927 38.1659 20.0906 39.3032 20.7425 40.2365C21.0628 40.2833 21.3834 40.3273 21.7044 40.3666C20.5229 39.0189 20.1795 37.1455 19.404 35.5614ZM24.2051 40.6059C24.9513 40.6604 25.6993 40.698 26.4478 40.7216C25.7485 40.5341 25.0729 40.2739 24.4642 39.8702C23.4583 39.2032 22.9318 38.0457 22.427 36.993C21.4926 35.044 20.8939 32.9401 19.691 31.1258C19.3206 30.5673 18.7965 29.8933 18.0739 29.8084C17.8426 29.7811 17.55 29.7985 17.2859 29.8795C20.3532 29.7589 21.4014 39.0316 24.2051 40.6059ZM47.4731 21.5908C47.5631 21.4802 47.6507 21.367 47.7381 21.2536C47.2521 21.7333 46.7659 22.2127 46.2829 22.6952C45.7048 23.2725 45.1116 23.8438 44.5736 24.4594C44.1054 24.9951 43.5753 25.4555 43.1716 26.0475C42.791 26.6057 42.7026 27.2663 42.694 27.9265C42.6816 28.8699 42.9272 29.8417 43.1101 30.7599C43.3241 31.8343 43.5587 32.9091 43.8615 33.9623C44.0779 34.7149 44.3858 35.228 45.233 35.338C45.509 35.3738 45.794 35.3658 46.082 35.3312C46.7953 33.3282 46.0368 35.1114 45.2003 34.4031C44.4757 33.4961 44.3685 32.2292 44.0838 31.1341C43.841 29.9463 43.5944 28.7132 43.5414 27.4986C43.5693 26.704 44.2458 26.1038 44.6346 25.4527C45.5549 24.1468 46.5136 22.8678 47.4731 21.5908Z" fill="#EE9E2B"/>
<path d="M48.0331 15.2287C44.9661 17.8067 43.5562 21.7115 40.988 24.71C38.0654 28.6669 36.1116 23.4086 34.9745 20.9767C33.5318 17.7436 32.334 14.3749 30.7494 11.2034C30.7519 11.2116 30.7544 11.2198 30.7571 11.228C31.0201 12.0612 31.3148 12.8863 31.6111 13.7082C32.2567 15.4995 32.9517 17.2767 33.6634 19.0426C34.2593 20.5206 34.8451 22.0066 35.4677 23.4734C35.9917 24.708 36.6817 25.9199 37.8518 26.6387C40.2409 28.1061 42.4533 23.7786 43.3462 22.3022C44.2182 20.8607 45.1254 19.4475 46.0401 18.0332C46.6637 17.0691 47.3169 16.1276 48.0833 15.2831C48.0673 15.2645 48.0486 15.2476 48.0331 15.2287Z" fill="#FBE134"/>
<path d="M44.5349 18.1887C43.2745 15.2586 43.511 12.0346 42.9064 8.97008C42.7611 8.27838 42.1957 7.49215 41.5097 7.82008C42.6708 8.66986 42.766 11.5836 42.8577 12.6407C42.9323 13.5005 43.0453 14.3382 43.1936 15.1891C43.4017 16.3829 43.6372 17.7362 44.218 18.8459C44.3415 18.6562 44.463 18.4652 44.5897 18.2779C44.5667 18.2513 44.5482 18.2212 44.5349 18.1887ZM13.4225 12.0233C13.1923 14.1154 12.895 16.2076 12.1103 18.1736C12.249 18.3711 12.3817 18.5708 12.5167 18.7698C12.8745 17.842 13.0407 16.8458 13.2471 15.8762C13.53 14.5468 13.7611 13.2101 13.9362 11.8622C14.0761 10.7861 14.0904 9.67901 14.4567 8.64665C14.5762 8.30957 14.749 8.017 14.956 7.75444C14.2339 7.73106 13.6909 8.86363 13.4225 12.0233ZM35.3657 33.809C34.7362 35.199 34.1644 36.6279 33.3994 37.9509C32.641 39.2625 31.6409 40.2045 30.2836 40.7064C30.9698 40.6787 31.6554 40.6375 32.34 40.5828C33.6537 39.579 34.2812 38.0398 34.8925 36.5405C35.5526 34.9947 36.0999 33.3956 36.8605 31.8958C37.1735 31.3141 37.8067 30.3853 38.5279 30.0004C38.3326 30.0453 38.1272 30.1333 37.9183 30.2626C36.67 31.035 35.9472 32.5251 35.3657 33.809ZM12.6971 37.7301C13.7081 36.4707 14.4269 34.9834 15.0405 33.4994C15.3207 32.8216 15.5797 32.1353 15.8307 31.4462C16.0011 30.9788 16.1981 30.4463 16.5946 30.1238C15.7041 30.4299 14.9726 32.1959 14.7267 32.7995C14.2732 33.9119 13.7246 34.9454 13.0282 35.9235C12.8813 36.1296 12.4245 36.7897 11.9542 37.2157C12.1885 37.4056 12.4368 37.5776 12.6971 37.7301Z" fill="#FBE134"/>
<path d="M9.81347 16.6311C10.7334 18.0028 11.4723 19.4508 12.2767 20.8905C13.0074 22.1983 13.9274 23.4335 14.8254 24.6326C15.5274 25.5703 16.3783 26.5846 17.5426 26.9304C19.6936 27.5694 20.8953 23.9292 21.5752 22.5515C23.2821 19.0923 24.525 15.4312 26.1535 11.9376C26.545 11.0977 26.9913 10.2941 27.5075 9.5365C27.3297 9.48488 27.1543 9.42245 26.9863 9.33862C25.5468 11.7769 24.5305 14.4165 23.4683 17.0334C18.19 30.3204 17.8834 27.4774 10.8059 17.471C10.315 16.8479 9.77602 16.2277 9.18152 15.6781C9.43493 16.034 9.65004 16.3872 9.81347 16.6311Z" fill="#FBE134"/>
<path d="M10.8779 33.9696C11.5095 33.0023 11.6295 31.764 11.8965 30.6526C12.0971 29.6218 12.3215 28.5461 12.3535 27.4916C11.8222 27.6157 11.2775 27.6891 10.7291 27.7385C10.951 28.3419 10.9843 29.0852 10.994 29.6119C11.0073 30.3205 10.9086 31.0493 10.5639 31.6767C10.3066 32.145 9.7886 32.4412 9.24786 32.521C9.70969 33.1184 10.2289 33.6539 10.8779 33.9696ZM28.683 22.7633C29.6801 23.0221 30.5172 25.5278 30.8827 26.4601C31.0059 26.8282 31.121 27.1948 31.1398 27.5692C31.6103 27.7371 32.1348 27.7676 32.628 27.7647C32.9044 27.7631 33.1958 27.7492 33.4821 27.709C33.0813 27.5006 32.7045 27.2282 32.3521 26.9064C31.4397 26.0737 31.0587 24.9999 30.5203 23.9265C29.8935 22.6769 29.1673 21.4833 28.6413 20.1842C28.5144 19.8705 28.4194 19.547 28.3467 19.2183C28.3526 20.4092 28.4646 21.5993 28.683 22.7633ZM45.8184 31.7989C45.2129 31.4158 44.887 30.6119 44.5695 30.0016C44.526 29.9181 44.4861 29.8333 44.444 29.7493C44.5535 30.3898 44.6823 31.0268 44.8267 31.658C45.0318 32.4383 45.1707 33.3072 45.6323 33.9685C46.0267 33.8399 46.3761 33.4944 46.6818 33.1682C47.0784 32.7436 47.4357 32.2851 47.7756 31.8138C47.1 32.078 46.4084 32.1723 45.8184 31.7989ZM22.8946 28.1088C23.4602 30.3751 24.6702 32.5045 26.0177 34.3944C26.3521 34.8486 26.7008 35.3283 27.103 35.7462C26.275 34.5828 25.6397 33.2972 25.2187 31.904C24.8894 30.8137 24.5194 29.291 24.9122 28.1282C24.2435 28.2095 23.5601 28.1954 22.8946 28.1088Z" fill="#A9CDDD"/>
<path d="M47.781 27.4907C46.7644 27.802 45.6503 27.7409 44.5805 27.6876C44.7631 27.8345 44.959 27.9642 45.1656 28.0749C45.7165 28.3689 46.35 28.3684 46.9133 28.6138C47.4573 28.8508 47.8066 29.2811 48.0783 29.7753C47.9438 29.0186 47.8288 28.2589 47.781 27.4907ZM27.0309 31.3515C27.3344 32.1909 27.6672 33.0177 27.9207 33.8745C27.9621 34.0151 28.0001 34.1566 28.0345 34.299C28.0635 33.3572 28.1511 32.4184 28.3437 31.4964C28.1881 31.4134 28.0496 31.2782 27.9378 31.1625C27.2361 30.3608 26.6038 29.3718 26.285 28.3438C26.3044 29.3765 26.7116 30.4686 27.0309 31.3515ZM8.49076 27.8587C8.46274 27.8602 8.43477 27.855 8.40912 27.8437C8.39168 28.3712 8.32123 28.894 8.23547 29.4148C8.58518 28.8519 9.00432 28.3199 9.457 27.8193C9.13281 27.8333 8.81018 27.8449 8.49076 27.8587ZM28.6421 15.696C28.5669 16.1252 28.5108 16.5585 28.4642 16.9931C29.8794 18.2885 30.9219 19.9994 31.7834 21.6863C32.4159 22.9248 33.0637 24.1356 33.6163 25.385C32.558 22.1097 31.2761 18.7557 29.0951 16.0648C28.9402 15.9053 28.8205 15.7911 28.6421 15.696Z" fill="#E9FFFB"/>
<path d="M6.06142 27.2157C6.52116 28.2933 7.09469 29.3141 7.71278 30.3139C7.81444 29.7552 7.89916 29.1936 7.96684 28.6298C7.46724 28.7571 7.00043 28.5061 6.61435 27.9878C6.39652 27.6953 6.20142 27.3835 6.01605 27.0637C6.03135 27.1142 6.04408 27.1655 6.06142 27.2157ZM48.8258 28.0749C48.69 27.5333 48.6811 26.9366 48.7375 26.3392C48.5509 26.6213 48.3699 26.9069 48.1989 27.1989C48.1435 27.3076 48.1488 27.283 48.1505 27.4151C48.1964 28.4886 48.416 29.5508 48.6044 30.6068C49.0061 29.9604 49.4275 29.307 49.7929 28.6296C49.3615 28.7763 48.9804 28.6912 48.8258 28.0749ZM28.3412 31.0384C28.8786 31.6143 29.8732 30.0706 30.4151 28.8571C29.76 29.5541 28.8039 30.2273 27.9752 29.3762C27.3726 28.7573 27.1225 27.7238 26.8864 26.917C26.8583 26.8195 26.8337 26.721 26.8124 26.6217C26.7452 26.8049 26.6799 26.9887 26.6167 27.1732C26.2352 28.381 27.5415 30.1864 28.3412 31.0384Z" fill="#00AFB3"/>
<path d="M29.5247 25.9133C29.0471 25.1137 28.8181 24.7483 28.252 25.8183C28.1058 26.0945 27.97 26.3758 27.8764 26.677C27.7328 27.1388 27.8745 27.5922 28.0481 28.0214C28.3478 28.7625 28.8199 29.0918 29.4888 28.5493C30.4354 27.7813 30.058 26.8056 29.5247 25.9133ZM49.8151 25.6516C49.5417 26.0045 49.2893 26.3956 49.2431 26.8124C49.2213 27.0082 49.2183 27.6872 49.5756 27.6106C49.8743 27.5467 50.0454 26.9317 50.1249 26.6909C50.1915 26.4893 50.2572 26.2302 50.2877 25.9694C50.3602 25.345 50.3777 24.9254 49.8151 25.6516ZM6.46963 26.6981C6.53211 26.9555 6.66419 27.2118 6.76738 27.4099C6.87924 27.6241 7.16443 28.0448 7.45882 27.9683C7.83918 27.8692 7.25243 26.9921 6.83372 26.4797C6.49418 26.0642 6.28624 25.9446 6.46963 26.6981Z" fill="#88F9F9"/>
<path d="M46.0766 27.3587C46.6803 27.3454 47.2767 27.2774 47.8386 27.0821C47.9222 26.8701 48.0793 26.6668 48.1923 26.4929C48.9892 25.2649 49.8771 24.0925 50.7518 22.9189C50.7403 22.6444 50.729 22.3673 50.7157 22.0899C50.2234 22.9345 49.6167 23.7225 49.0045 24.4519C48.1902 25.4222 47.2176 26.5827 46.0766 27.3587ZM32.8903 28.1336C32.7379 28.9793 32.3974 29.8175 32.0442 30.5605C31.7772 31.1225 31.5303 31.6897 31.2204 32.2305C30.5174 33.4571 29.5379 34.401 28.3915 35.1252C28.3934 35.6099 28.4069 36.0941 28.4289 36.5764C29.3 36.3117 29.9257 35.4689 30.4823 34.7887C31.12 33.9775 31.678 33.1 32.1868 32.2033C32.9256 30.8647 33.6346 29.4894 33.9742 27.9851C33.62 28.0626 33.2561 28.1138 32.8903 28.1336ZM25.2827 20.6449C24.3973 22.4147 23.6373 24.2476 23.0451 26.128C22.8986 26.6559 22.7343 27.1885 22.8207 27.7265C23.3144 27.799 23.8198 27.8267 24.3221 27.8047C24.2671 26.0725 24.39 24.3498 24.7545 22.6205C24.8963 21.9483 25.0753 21.291 25.2827 20.6449ZM9.86386 27.4139C8.70241 26.659 7.79042 25.498 7.06325 24.304C6.58815 23.5242 6.16018 22.6814 5.8131 21.8064C5.76704 22.4716 5.74564 23.1394 5.74286 23.8042C6.63014 25.0427 7.6043 26.2275 8.35924 27.5512C8.843 27.4676 9.35041 27.4386 9.86386 27.4139Z" fill="#65B0B9"/>
<path d="M31.487 28.0411C31.3643 28.0171 31.2426 27.9883 31.1221 27.9548C30.8359 29.171 30.1328 30.3232 29.2791 31.2252C29.1233 31.3699 28.9253 31.5316 28.7057 31.5662C28.617 31.9868 28.5512 32.4111 28.5027 32.8375C28.6224 32.7241 28.7205 32.6282 28.787 32.5657C29.5571 31.842 30.1743 31.0418 30.6469 30.0953C30.9736 29.4414 31.3149 28.7592 31.487 28.0411ZM48.4963 21.2558C46.9905 23.2261 45.4776 25.1941 44.1703 27.2988C44.6076 27.3178 45.0561 27.3465 45.505 27.3575C45.5757 27.1104 45.6493 26.8641 45.7339 26.621C46.2889 25.0266 47.1542 23.5363 48.0007 22.0841C48.1628 21.8061 48.331 21.5319 48.4963 21.2558ZM11.2944 25.692C10.4309 24.4707 9.53493 23.2722 8.637 22.0759C7.85157 21.0295 7.05961 19.988 6.27103 18.9439C6.12295 19.2804 6.04565 19.7821 5.98515 20.1826C5.9844 20.1874 5.98403 20.1922 5.98328 20.197C6.56264 20.6354 7.14911 21.0645 7.66225 21.5858C8.6325 22.5715 9.49373 23.6614 10.3147 24.7723C10.9006 25.5652 11.4875 26.3559 12.0073 27.1916C12.0884 27.1734 12.1705 27.1586 12.2504 27.1366C11.9702 26.6318 11.6237 26.1654 11.2944 25.692ZM27.5591 19.6426C27.2503 20.7018 27.1331 21.8342 27.0002 22.9269C26.8872 23.8572 26.7911 24.7943 26.7671 25.7321C27.1813 24.7406 27.6776 23.785 28.3382 22.9299C28.0536 21.4418 27.94 19.9158 27.994 18.3967C27.8317 18.8055 27.6825 19.2193 27.5591 19.6426Z" fill="#A6F4FF"/>
</svg>
