<svg width="16" height="16" viewBox="0 0 16 16" fill="none" xmlns="http://www.w3.org/2000/svg">
<g clip-path="url(#clip0_4692_35924)">
<path d="M9.69294 2.28906C9.91225 2.09272 10.2054 1.97722 10.5258 1.98991C11.1355 2.01403 11.6318 2.51119 11.6548 3.12097C11.6802 3.79219 11.1436 4.34431 10.478 4.34431C10.1763 4.34431 9.90128 4.23075 9.69291 4.04422V6.30709H11.9558C11.7594 6.52641 11.6439 6.81959 11.6566 7.13994C11.6807 7.74966 12.1779 8.24597 12.7877 8.269C13.4589 8.29438 14.011 7.75775 14.011 7.09219C14.011 6.7905 13.8974 6.51544 13.7109 6.30706H15.9999V0.785125C16 0.3515 15.6485 0 15.2149 0H9.69294V2.28906ZM8.27078 10.5258C8.25813 10.2054 8.37362 9.91225 8.56994 9.69294H6.30706V11.9558C6.08775 11.7595 5.79456 11.644 5.47422 11.6567C4.8645 11.6808 4.36819 12.1779 4.34516 12.7877C4.31978 13.4589 4.85641 14.011 5.52197 14.011C5.82366 14.011 6.09872 13.8975 6.30709 13.7109V16H11.829C12.2626 16 12.6142 15.6485 12.6142 15.2149V9.69294H10.3251C10.5116 9.90131 10.6252 10.1764 10.6252 10.4781C10.6252 11.1436 10.0731 11.6802 9.40187 11.6549C8.79206 11.6318 8.29488 11.1355 8.27078 10.5258ZM7.09216 5.37484C6.79047 5.37484 6.51541 5.48841 6.30703 5.67497V3.38591H0.785125C0.3515 3.38591 0 3.73741 0 4.171V8.75544H1.05687C1.13337 7.69038 2.01184 6.83478 3.08553 6.79422C3.11255 6.79319 3.13959 6.79268 3.16663 6.79269C4.28169 6.79269 5.19797 7.66 5.27634 8.75544H6.30706V7.43006C6.52638 7.62641 6.81956 7.74191 7.13991 7.72922C7.74963 7.70509 8.24594 7.20794 8.26897 6.59816C8.29434 5.92697 7.75772 5.37484 7.09216 5.37484Z" fill="#05AAFD"/>
<path d="M3.99819 14.3003C3.59584 13.8825 3.38634 13.3327 3.40831 12.7522C3.44887 11.6786 4.3045 10.8001 5.36956 10.7236V9.6929H4.04416C4.23069 9.48453 4.34428 9.20946 4.34428 8.90778C4.34428 8.24221 3.79216 7.70562 3.12097 7.73096C2.51119 7.75403 2.01403 8.25031 1.98991 8.86003C1.97725 9.18037 2.09275 9.47356 2.28906 9.69287H0V15.2148C0 15.6485 0.3515 16 0.785125 16H5.36959V14.9429C4.85244 14.905 4.35947 14.6756 3.99819 14.3003Z" fill="#05AAFD"/>
<g clip-path="url(#clip1_4692_35924)">
<path d="M14.7922 0H9.59378C9.33491 0 9.12503 0.209875 9.12503 0.46875V2.62369C9.12504 2.71419 9.15124 2.80276 9.20048 2.8787C9.24972 2.95463 9.3199 3.01469 9.40252 3.05162C9.48515 3.08854 9.5767 3.10076 9.66612 3.08679C9.75554 3.07283 9.83901 3.03327 9.90644 2.97291C10.0303 2.86162 10.1929 2.80328 10.3593 2.81041C10.6905 2.8235 10.9598 3.09325 10.9723 3.4245C10.979 3.60059 10.9156 3.76716 10.7939 3.89353C10.6722 4.02003 10.5084 4.08969 10.3328 4.08969C10.1754 4.08977 10.0236 4.03171 9.90641 3.92666C9.83897 3.86629 9.75551 3.82673 9.66608 3.81277C9.57666 3.7988 9.48511 3.81102 9.40248 3.84795C9.31985 3.88488 9.24968 3.94495 9.20044 4.02089C9.1512 4.09683 9.125 4.1854 9.125 4.27591V6.40625C9.125 6.66512 9.33487 6.875 9.59375 6.875H10.9958C10.9768 6.9852 10.9695 7.09711 10.974 7.20884C11.0063 8.02622 11.672 8.69075 12.4895 8.72163C12.5101 8.72241 12.5307 8.72278 12.5512 8.72278C12.9613 8.72278 13.3474 8.56747 13.6442 8.28175C13.956 7.98159 14.1276 7.578 14.1276 7.14537C14.1276 7.05412 14.1198 6.96372 14.1043 6.87503H15.5313C15.7902 6.87503 16 6.66516 16 6.40628V1.20784C16 0.541844 15.4582 0 14.7922 0ZM15.0625 5.9375H13.3763C13.2858 5.93747 13.1972 5.96366 13.1213 6.0129C13.0453 6.06214 12.9852 6.13232 12.9483 6.21496C12.9114 6.29761 12.8992 6.38918 12.9131 6.47861C12.9271 6.56805 12.9667 6.65152 13.0271 6.71894C13.1322 6.83613 13.1902 6.98799 13.1902 7.14537C13.1902 7.32087 13.1205 7.48463 12.994 7.60644C12.8677 7.72813 12.7017 7.79119 12.525 7.78481C12.1937 7.77231 11.924 7.503 11.9109 7.17181C11.9043 7.00422 11.962 6.84337 12.0733 6.71894C12.1337 6.65149 12.1732 6.56802 12.1872 6.4786C12.2011 6.38918 12.1889 6.29763 12.152 6.21501C12.1151 6.13238 12.055 6.06221 11.9791 6.01297C11.9031 5.96373 11.8146 5.93751 11.7241 5.9375H10.0625V5.00397C10.1512 5.01934 10.2415 5.02722 10.3327 5.02722H10.3329C10.7656 5.02722 11.1692 4.85556 11.4693 4.54381C11.7693 4.23222 11.9256 3.82213 11.9092 3.38913C11.8783 2.57166 11.2138 1.90597 10.3963 1.87366C10.2846 1.86913 10.1727 1.87644 10.0625 1.89547V0.9375H14.7922C14.9413 0.9375 15.0625 1.05878 15.0625 1.20784V5.9375Z" fill="#05AAFD"/>
<path d="M12.3438 9.125H10.1888C10.0983 9.12497 10.0097 9.15116 9.93374 9.2004C9.85778 9.24964 9.7977 9.31982 9.76077 9.40246C9.72384 9.48511 9.71163 9.57668 9.72561 9.66611C9.7396 9.75555 9.77919 9.83902 9.83959 9.90644C9.94464 10.0236 10.0027 10.1755 10.0026 10.3329C10.0026 10.5084 9.93297 10.6721 9.80647 10.7939C9.68009 10.9156 9.51434 10.9785 9.33744 10.9723C9.00616 10.9598 8.73644 10.6905 8.72334 10.3593C8.71672 10.1917 8.77444 10.0309 8.88581 9.90644C8.94617 9.83899 8.98571 9.75552 8.99966 9.6661C9.01362 9.57668 9.00139 9.48513 8.96446 9.40251C8.92753 9.31988 8.86747 9.24971 8.79153 9.20047C8.7156 9.15123 8.62704 9.12501 8.53653 9.125H6.875V8.19169C6.98406 8.2105 7.09584 8.218 7.20881 8.21347C8.02622 8.18116 8.69075 7.51547 8.72163 6.698C8.738 6.265 8.58178 5.85491 8.28175 5.54331C7.98159 5.23156 7.578 5.05991 7.14537 5.05991C7.05412 5.05991 6.96372 5.06778 6.87503 5.08319V3.65625C6.87503 3.39737 6.66516 3.1875 6.40628 3.1875H1.20784C0.541844 3.1875 0 3.72934 0 4.39534V14.7921C0 15.4582 0.541844 16 1.20784 16H11.6046C12.2707 16 12.8125 15.4582 12.8125 14.7922V9.59375C12.8125 9.33488 12.6026 9.125 12.3438 9.125ZM0.9375 4.39534C0.9375 4.24625 1.05878 4.125 1.20784 4.125H5.9375V5.81119C5.9375 5.99609 6.04619 6.16369 6.215 6.23912C6.29763 6.27607 6.38919 6.2883 6.47862 6.27433C6.56804 6.26036 6.65151 6.22079 6.71894 6.16041C6.83613 6.05536 6.98799 5.9973 7.14537 5.99738C7.32087 5.99738 7.48463 6.06703 7.60644 6.19353C7.72813 6.31991 7.79147 6.48647 7.78481 6.66256C7.77231 6.99381 7.503 7.26356 7.17178 7.27666C7.00425 7.28325 6.84337 7.22556 6.71894 7.11419C6.6515 7.05384 6.56804 7.01429 6.47862 7.00033C6.38921 6.98637 6.29766 6.99859 6.21504 7.03552C6.13242 7.07244 6.06225 7.13249 6.01301 7.20842C5.96376 7.28435 5.93755 7.37291 5.93753 7.46341V9.125H5.004C5.01938 9.03631 5.02725 8.94591 5.02725 8.85466C5.02725 8.422 4.85559 8.01841 4.54384 7.71828C4.23225 7.41822 3.82191 7.26147 3.38916 7.27841C2.57169 7.30928 1.906 7.97381 1.87369 8.79122C1.86922 8.90295 1.87653 9.01483 1.89547 9.12503H0.9375V4.39534ZM0.9375 14.7922V10.0625H2.62369C2.71421 10.0625 2.8028 10.0363 2.87875 9.98709C2.95471 9.93785 3.01478 9.86767 3.05171 9.78502C3.08864 9.70238 3.10084 9.61081 3.08685 9.52138C3.07286 9.43195 3.03328 9.34848 2.97288 9.28106C2.8615 9.15666 2.80378 8.99581 2.81041 8.82825C2.8235 8.497 3.09325 8.22772 3.4245 8.21522C3.60019 8.20919 3.76713 8.27187 3.89353 8.39359C4.02003 8.51538 4.08969 8.67912 4.08969 8.85466C4.08976 9.01204 4.0317 9.1639 3.92666 9.28109C3.80338 9.41884 3.77253 9.61625 3.84797 9.78503C3.92341 9.95381 4.09109 10.0625 4.27597 10.0625H5.9375V10.9958C5.8273 10.9768 5.71541 10.9695 5.60369 10.974C4.78628 11.0063 4.12175 11.672 4.09088 12.4895C4.0745 12.9225 4.23072 13.3326 4.53075 13.6442C4.83091 13.9559 5.2345 14.1276 5.66713 14.1276C5.75838 14.1276 5.84878 14.1197 5.93747 14.1043V15.0625H1.20784C1.05878 15.0625 0.9375 14.9412 0.9375 14.7922ZM11.875 14.7922C11.875 14.9412 11.7537 15.0625 11.6047 15.0625H6.875V13.3763C6.87503 13.2858 6.84884 13.1972 6.7996 13.1212C6.75036 13.0453 6.68018 12.9852 6.59754 12.9483C6.51489 12.9113 6.42332 12.8991 6.33389 12.9131C6.24445 12.9271 6.16098 12.9667 6.09356 13.0271C5.97637 13.1321 5.82451 13.1902 5.66713 13.1901C5.49163 13.1901 5.32787 13.1205 5.20606 12.994C5.08437 12.8676 5.02103 12.701 5.02769 12.5249C5.04019 12.1937 5.3095 11.9239 5.64072 11.9108C5.80708 11.9039 5.96958 11.9622 6.09356 12.0733C6.16099 12.1337 6.24446 12.1732 6.33388 12.1872C6.4233 12.2012 6.51485 12.189 6.59748 12.152C6.6801 12.1151 6.75028 12.055 6.79952 11.9791C6.84876 11.9032 6.87496 11.8146 6.87497 11.7241V10.0625H7.80828C7.78932 10.1727 7.78202 10.2846 7.7865 10.3963C7.81881 11.2137 8.4845 11.8783 9.30197 11.9091C9.73478 11.9259 10.1451 11.7693 10.4567 11.4692C10.7684 11.1691 10.9401 10.7655 10.9401 10.3329C10.9401 10.2416 10.9322 10.1512 10.9168 10.0625H11.875V14.7922Z" fill="#05AAFD"/>
</g>
</g>
<defs>
<clipPath id="clip0_4692_35924">
<rect width="16" height="16" fill="white"/>
</clipPath>
<clipPath id="clip1_4692_35924">
<rect width="16" height="16" fill="white"/>
</clipPath>
</defs>
</svg>
