<svg width="277" height="238" viewBox="0 0 277 238" fill="none" xmlns="http://www.w3.org/2000/svg">
<g filter="url(#filter0_d_2940_32878)">
<rect x="57.5833" y="71.9253" width="149.248" height="151.22" rx="13.1496" fill="url(#paint0_linear_2940_32878)"/>
<path d="M85.8663 104.163L87.9209 108.523L89.9884 104.163H91.9275L88.8198 110.089V113.512H87.0285V110.089L83.9144 104.163H85.8663ZM99.8478 108.6V109.081C99.8478 109.788 99.7536 110.423 99.5653 110.988C99.3769 111.549 99.1094 112.026 98.7627 112.42C98.416 112.814 98.0029 113.116 97.5235 113.326C97.0441 113.535 96.5112 113.64 95.9247 113.64C95.3469 113.64 94.8161 113.535 94.3324 113.326C93.853 113.116 93.4378 112.814 93.0868 112.42C92.7358 112.026 92.464 111.549 92.2714 110.988C92.0787 110.423 91.9824 109.788 91.9824 109.081V108.6C91.9824 107.889 92.0787 107.254 92.2714 106.693C92.464 106.132 92.7337 105.655 93.0804 105.261C93.4271 104.863 93.8402 104.559 94.3196 104.349C94.8033 104.14 95.334 104.035 95.9119 104.035C96.4983 104.035 97.0312 104.14 97.5107 104.349C97.9901 104.559 98.4031 104.863 98.7499 105.261C99.1009 105.655 99.3705 106.132 99.5589 106.693C99.7515 107.254 99.8478 107.889 99.8478 108.6ZM98.0628 109.081V108.587C98.0628 108.078 98.0158 107.63 97.9216 107.245C97.8274 106.856 97.6883 106.528 97.5042 106.263C97.3202 105.997 97.0933 105.798 96.8236 105.666C96.554 105.529 96.2501 105.46 95.9119 105.46C95.5695 105.46 95.2656 105.529 95.0002 105.666C94.7391 105.798 94.5165 105.997 94.3324 106.263C94.1483 106.528 94.0071 106.856 93.9086 107.245C93.8145 107.63 93.7674 108.078 93.7674 108.587V109.081C93.7674 109.587 93.8145 110.034 93.9086 110.423C94.0071 110.813 94.1483 111.142 94.3324 111.412C94.5207 111.678 94.7476 111.879 95.013 112.016C95.2784 112.153 95.5823 112.221 95.9247 112.221C96.2672 112.221 96.5711 112.153 96.8365 112.016C97.1019 111.879 97.3245 111.678 97.5042 111.412C97.6883 111.142 97.8274 110.813 97.9216 110.423C98.0158 110.034 98.0628 109.587 98.0628 109.081ZM106.15 104.163H107.916V110.372C107.916 111.087 107.762 111.688 107.454 112.176C107.145 112.66 106.726 113.026 106.195 113.274C105.664 113.518 105.061 113.64 104.384 113.64C103.7 113.64 103.09 113.518 102.555 113.274C102.019 113.026 101.6 112.66 101.296 112.176C100.992 111.688 100.84 111.087 100.84 110.372V104.163H102.606V110.372C102.606 110.809 102.679 111.166 102.824 111.444C102.97 111.718 103.175 111.922 103.441 112.054C103.706 112.187 104.021 112.253 104.384 112.253C104.753 112.253 105.067 112.187 105.328 112.054C105.594 111.922 105.797 111.718 105.938 111.444C106.079 111.166 106.15 110.809 106.15 110.372V104.163ZM119.371 108.677V112.317C119.234 112.493 119.018 112.683 118.723 112.889C118.432 113.094 118.051 113.272 117.58 113.422C117.109 113.567 116.531 113.64 115.846 113.64C115.251 113.64 114.708 113.542 114.215 113.345C113.723 113.144 113.299 112.85 112.944 112.465C112.589 112.08 112.315 111.609 112.122 111.053C111.93 110.496 111.833 109.86 111.833 109.146V108.529C111.833 107.814 111.923 107.179 112.103 106.622C112.287 106.066 112.548 105.595 112.886 105.21C113.229 104.825 113.637 104.531 114.113 104.33C114.592 104.129 115.127 104.028 115.718 104.028C116.51 104.028 117.16 104.159 117.67 104.42C118.183 104.681 118.577 105.041 118.851 105.499C119.125 105.952 119.296 106.475 119.365 107.065H117.644C117.597 106.74 117.503 106.455 117.361 106.211C117.22 105.963 117.019 105.77 116.758 105.634C116.501 105.492 116.167 105.422 115.756 105.422C115.41 105.422 115.103 105.49 114.838 105.627C114.573 105.764 114.35 105.963 114.17 106.224C113.991 106.485 113.854 106.809 113.759 107.194C113.67 107.579 113.625 108.02 113.625 108.516V109.146C113.625 109.646 113.676 110.092 113.779 110.481C113.881 110.866 114.029 111.192 114.222 111.457C114.419 111.718 114.66 111.917 114.947 112.054C115.238 112.187 115.568 112.253 115.936 112.253C116.27 112.253 116.546 112.225 116.764 112.17C116.987 112.11 117.165 112.039 117.297 111.958C117.43 111.877 117.533 111.797 117.605 111.72V109.967H115.75V108.677H119.371ZM128.216 108.6V109.081C128.216 109.788 128.122 110.423 127.934 110.988C127.745 111.549 127.478 112.026 127.131 112.42C126.784 112.814 126.371 113.116 125.892 113.326C125.412 113.535 124.879 113.64 124.293 113.64C123.715 113.64 123.184 113.535 122.701 113.326C122.221 113.116 121.806 112.814 121.455 112.42C121.104 112.026 120.832 111.549 120.64 110.988C120.447 110.423 120.351 109.788 120.351 109.081V108.6C120.351 107.889 120.447 107.254 120.64 106.693C120.832 106.132 121.102 105.655 121.449 105.261C121.795 104.863 122.208 104.559 122.688 104.349C123.171 104.14 123.702 104.035 124.28 104.035C124.867 104.035 125.399 104.14 125.879 104.349C126.358 104.559 126.771 104.863 127.118 105.261C127.469 105.655 127.739 106.132 127.927 106.693C128.12 107.254 128.216 107.889 128.216 108.6ZM126.431 109.081V108.587C126.431 108.078 126.384 107.63 126.29 107.245C126.196 106.856 126.057 106.528 125.872 106.263C125.688 105.997 125.462 105.798 125.192 105.666C124.922 105.529 124.618 105.46 124.28 105.46C123.938 105.46 123.634 105.529 123.368 105.666C123.107 105.798 122.885 105.997 122.701 106.263C122.517 106.528 122.375 106.856 122.277 107.245C122.183 107.63 122.136 108.078 122.136 108.587V109.081C122.136 109.587 122.183 110.034 122.277 110.423C122.375 110.813 122.517 111.142 122.701 111.412C122.889 111.678 123.116 111.879 123.381 112.016C123.647 112.153 123.951 112.221 124.293 112.221C124.635 112.221 124.939 112.153 125.205 112.016C125.47 111.879 125.693 111.678 125.872 111.412C126.057 111.142 126.196 110.813 126.29 110.423C126.384 110.034 126.431 109.587 126.431 109.081ZM132.958 104.163V113.512H131.199V104.163H132.958ZM135.86 104.163V105.556H128.329V104.163H135.86ZM142.783 109.345H140.394L140.381 108.099H142.429C142.78 108.099 143.074 108.05 143.309 107.951C143.544 107.853 143.722 107.71 143.842 107.521C143.966 107.333 144.028 107.104 144.028 106.834C144.028 106.535 143.97 106.291 143.855 106.102C143.744 105.914 143.568 105.777 143.328 105.691C143.089 105.601 142.785 105.556 142.417 105.556H140.965V113.512H139.2V104.163H142.417C142.947 104.163 143.42 104.215 143.836 104.317C144.255 104.416 144.61 104.57 144.901 104.78C145.192 104.989 145.413 105.253 145.563 105.569C145.717 105.886 145.794 106.263 145.794 106.699C145.794 107.085 145.704 107.44 145.524 107.765C145.349 108.086 145.077 108.347 144.709 108.549C144.345 108.75 143.883 108.865 143.322 108.895L142.783 109.345ZM142.705 113.512H139.874L140.612 112.125H142.705C143.056 112.125 143.345 112.067 143.572 111.951C143.803 111.836 143.975 111.678 144.086 111.476C144.202 111.271 144.259 111.035 144.259 110.77C144.259 110.479 144.208 110.226 144.105 110.012C144.007 109.798 143.848 109.634 143.63 109.518C143.416 109.402 143.134 109.345 142.783 109.345H140.946L140.959 108.099H143.296L143.701 108.581C144.24 108.585 144.679 108.692 145.017 108.902C145.359 109.111 145.612 109.381 145.775 109.711C145.937 110.04 146.019 110.396 146.019 110.776C146.019 111.376 145.888 111.879 145.627 112.285C145.37 112.692 144.993 112.998 144.497 113.204C144.005 113.409 143.407 113.512 142.705 113.512ZM154.722 108.6V109.081C154.722 109.788 154.628 110.423 154.44 110.988C154.251 111.549 153.984 112.026 153.637 112.42C153.29 112.814 152.877 113.116 152.398 113.326C151.919 113.535 151.386 113.64 150.799 113.64C150.221 113.64 149.691 113.535 149.207 113.326C148.727 113.116 148.312 112.814 147.961 112.42C147.61 112.026 147.338 111.549 147.146 110.988C146.953 110.423 146.857 109.788 146.857 109.081V108.6C146.857 107.889 146.953 107.254 147.146 106.693C147.338 106.132 147.608 105.655 147.955 105.261C148.302 104.863 148.715 104.559 149.194 104.349C149.678 104.14 150.208 104.035 150.786 104.035C151.373 104.035 151.906 104.14 152.385 104.349C152.865 104.559 153.278 104.863 153.624 105.261C153.975 105.655 154.245 106.132 154.433 106.693C154.626 107.254 154.722 107.889 154.722 108.6ZM152.937 109.081V108.587C152.937 108.078 152.89 107.63 152.796 107.245C152.702 106.856 152.563 106.528 152.379 106.263C152.195 105.997 151.968 105.798 151.698 105.666C151.428 105.529 151.124 105.46 150.786 105.46C150.444 105.46 150.14 105.529 149.875 105.666C149.613 105.798 149.391 105.997 149.207 106.263C149.023 106.528 148.882 106.856 148.783 107.245C148.689 107.63 148.642 108.078 148.642 108.587V109.081C148.642 109.587 148.689 110.034 148.783 110.423C148.882 110.813 149.023 111.142 149.207 111.412C149.395 111.678 149.622 111.879 149.887 112.016C150.153 112.153 150.457 112.221 150.799 112.221C151.142 112.221 151.446 112.153 151.711 112.016C151.976 111.879 152.199 111.678 152.379 111.412C152.563 111.142 152.702 110.813 152.796 110.423C152.89 110.034 152.937 109.587 152.937 109.081ZM163.336 104.163V113.512H161.564L157.589 107.027V113.512H155.824V104.163H157.589L161.577 110.655V104.163H163.336ZM169.94 104.163H171.706V110.372C171.706 111.087 171.552 111.688 171.243 112.176C170.935 112.66 170.516 113.026 169.985 113.274C169.454 113.518 168.851 113.64 168.174 113.64C167.49 113.64 166.88 113.518 166.344 113.274C165.809 113.026 165.39 112.66 165.086 112.176C164.782 111.688 164.63 111.087 164.63 110.372V104.163H166.396V110.372C166.396 110.809 166.469 111.166 166.614 111.444C166.76 111.718 166.965 111.922 167.231 112.054C167.496 112.187 167.811 112.253 168.174 112.253C168.543 112.253 168.857 112.187 169.118 112.054C169.384 111.922 169.587 111.718 169.728 111.444C169.869 111.166 169.94 110.809 169.94 110.372V104.163ZM177.88 111.085C177.88 110.905 177.852 110.744 177.796 110.603C177.745 110.458 177.649 110.327 177.507 110.211C177.37 110.092 177.176 109.976 176.923 109.865C176.675 109.749 176.354 109.629 175.96 109.505C175.523 109.368 175.117 109.214 174.74 109.043C174.363 108.872 174.032 108.673 173.745 108.446C173.462 108.219 173.242 107.958 173.083 107.662C172.925 107.363 172.846 107.016 172.846 106.622C172.846 106.237 172.927 105.886 173.09 105.569C173.257 105.253 173.492 104.981 173.796 104.754C174.1 104.523 174.457 104.345 174.868 104.221C175.284 104.097 175.742 104.035 176.242 104.035C176.936 104.035 177.535 104.161 178.04 104.414C178.55 104.666 178.943 105.009 179.222 105.441C179.5 105.873 179.639 106.359 179.639 106.898H177.88C177.88 106.607 177.818 106.35 177.693 106.128C177.574 105.905 177.39 105.73 177.141 105.601C176.897 105.473 176.589 105.409 176.217 105.409C175.857 105.409 175.558 105.462 175.318 105.569C175.082 105.676 174.905 105.822 174.785 106.006C174.669 106.19 174.612 106.395 174.612 106.622C174.612 106.794 174.652 106.948 174.734 107.085C174.815 107.217 174.937 107.344 175.099 107.463C175.262 107.579 175.463 107.688 175.703 107.791C175.947 107.889 176.23 107.988 176.551 108.086C177.064 108.24 177.514 108.412 177.899 108.6C178.288 108.788 178.612 109.002 178.868 109.242C179.13 109.482 179.324 109.751 179.453 110.051C179.585 110.351 179.652 110.691 179.652 111.072C179.652 111.474 179.573 111.834 179.414 112.151C179.256 112.467 179.029 112.737 178.734 112.96C178.438 113.182 178.083 113.351 177.668 113.467C177.257 113.582 176.797 113.64 176.287 113.64C175.834 113.64 175.384 113.58 174.939 113.46C174.498 113.336 174.098 113.152 173.738 112.908C173.379 112.66 173.092 112.347 172.878 111.971C172.664 111.59 172.557 111.145 172.557 110.635H174.329C174.329 110.931 174.376 111.183 174.47 111.393C174.569 111.598 174.706 111.767 174.881 111.9C175.061 112.029 175.271 112.123 175.51 112.183C175.75 112.243 176.009 112.273 176.287 112.273C176.647 112.273 176.942 112.223 177.173 112.125C177.409 112.022 177.584 111.881 177.7 111.701C177.82 111.521 177.88 111.316 177.88 111.085Z" fill="#232732"/>
<path d="M117.651 194.715C117.602 194.421 117.513 194.167 117.383 193.952C117.26 193.728 117.067 193.542 116.805 193.391C116.549 193.233 116.2 193.098 115.757 192.985C115.321 192.864 114.764 192.756 114.088 192.661C113.338 192.556 112.633 192.415 111.972 192.239C111.31 192.062 110.715 191.827 110.185 191.535C109.662 191.242 109.231 190.876 108.893 190.437C108.553 189.992 108.329 189.448 108.222 188.805C108.117 188.176 108.154 187.582 108.333 187.02C108.519 186.458 108.829 185.95 109.263 185.497C109.696 185.038 110.231 184.65 110.868 184.336C111.511 184.02 112.242 183.794 113.059 183.658C114.19 183.469 115.202 183.512 116.095 183.786C116.995 184.059 117.731 184.511 118.303 185.14C118.875 185.77 119.234 186.525 119.381 187.405L116.51 187.884C116.431 187.409 116.26 187.007 115.997 186.678C115.74 186.347 115.392 186.111 114.952 185.969C114.519 185.826 113.999 185.805 113.391 185.907C112.804 186.005 112.33 186.174 111.968 186.413C111.613 186.652 111.363 186.938 111.218 187.271C111.079 187.603 111.041 187.954 111.103 188.324C111.149 188.603 111.258 188.844 111.428 189.045C111.596 189.239 111.83 189.412 112.128 189.563C112.425 189.708 112.783 189.831 113.202 189.933C113.627 190.027 114.115 190.111 114.665 190.184C115.545 190.296 116.325 190.453 117.005 190.655C117.692 190.856 118.278 191.118 118.762 191.439C119.254 191.759 119.645 192.146 119.936 192.6C120.234 193.052 120.435 193.589 120.539 194.211C120.648 194.868 120.617 195.476 120.445 196.036C120.273 196.596 119.976 197.098 119.555 197.541C119.134 197.985 118.6 198.358 117.954 198.659C117.315 198.96 116.58 199.179 115.749 199.318C115.008 199.442 114.259 199.466 113.5 199.392C112.747 199.31 112.043 199.118 111.39 198.818C110.736 198.511 110.183 198.079 109.731 197.523C109.278 196.96 108.982 196.263 108.843 195.431L111.735 194.949C111.815 195.431 111.961 195.83 112.172 196.146C112.388 196.455 112.658 196.693 112.98 196.862C113.309 197.023 113.677 197.119 114.084 197.152C114.492 197.184 114.922 197.163 115.376 197.087C115.963 196.989 116.431 196.828 116.782 196.604C117.138 196.373 117.386 196.094 117.525 195.769C117.672 195.444 117.714 195.092 117.651 194.715ZM126.782 181.582L129.329 196.836L126.458 197.315L123.911 182.061L126.782 181.582ZM131.517 180.791L131.897 183.065L119.608 185.116L119.228 182.843L131.517 180.791ZM138.175 182.06L135.987 195.724L132.938 196.233L136.091 180.028L138.039 179.702L138.175 182.06ZM143.97 194.391L137.441 182.182L136.793 179.91L138.752 179.583L147.029 193.88L143.97 194.391ZM142.825 188.756L143.204 191.03L135.022 192.396L134.643 190.123L142.825 188.756ZM145.41 178.472L150.952 177.546C152.112 177.353 153.136 177.361 154.025 177.572C154.915 177.782 155.64 178.192 156.202 178.802C156.763 179.412 157.127 180.216 157.294 181.215C157.425 182.004 157.4 182.712 157.217 183.338C157.035 183.965 156.721 184.516 156.277 184.992C155.839 185.467 155.297 185.874 154.65 186.211L153.826 186.823L148.933 187.64L148.533 185.37L152.189 184.759C152.783 184.66 153.257 184.473 153.614 184.198C153.97 183.924 154.215 183.585 154.348 183.182C154.489 182.778 154.52 182.338 154.441 181.864C154.355 181.354 154.184 180.93 153.927 180.593C153.668 180.248 153.323 180.008 152.891 179.872C152.459 179.736 151.939 179.718 151.332 179.82L148.671 180.264L150.838 193.244L147.957 193.725L145.41 178.472ZM156.569 192.288L151.898 186.046L154.945 185.527L159.635 191.625L159.659 191.772L156.569 192.288Z" fill="white"/>
</g>
<g clip-path="url(#clip0_2940_32878)">
<path d="M79.4771 90.7951C75.861 90.7951 72.9023 87.8365 72.9023 84.2203C72.9023 80.6042 75.861 77.6455 79.4771 77.6455C83.0933 77.6455 86.052 80.6042 86.052 84.2203C86.052 87.8365 83.0933 90.7951 79.4771 90.7951ZM79.4771 79.6179C76.913 79.6179 74.8748 81.6561 74.8748 84.2203C74.8748 86.7845 76.913 88.8227 79.4771 88.8227C82.0413 88.8227 84.0795 86.7845 84.0795 84.2203C84.0795 81.6561 81.9756 79.6179 79.4771 79.6179Z" fill="#EF9926"/>
<path d="M222.019 54.5677C220.769 54.5677 219.718 53.5157 219.718 52.2665C219.718 51.0173 220.769 49.9653 222.019 49.9653C223.268 49.9653 224.32 51.0173 224.32 52.2665C224.32 53.5157 223.268 54.5677 222.019 54.5677ZM222.019 50.6228C221.098 50.6228 220.375 51.346 220.375 52.2665C220.375 53.187 221.098 53.9102 222.019 53.9102C222.939 53.9102 223.662 53.187 223.662 52.2665C223.662 51.346 222.939 50.6228 222.019 50.6228Z" fill="#FFEB97"/>
<path d="M72.7709 110.191C71.2587 110.191 70.0752 109.007 70.0752 107.495C70.0752 105.983 71.2587 104.799 72.7709 104.799C74.2831 104.799 75.4665 105.983 75.4665 107.495C75.4665 109.007 74.2831 110.191 72.7709 110.191ZM72.7709 105.588C71.7189 105.588 70.8642 106.443 70.8642 107.495C70.8642 108.547 71.7189 109.402 72.7709 109.402C73.8228 109.402 74.6776 108.547 74.6776 107.495C74.6776 106.443 73.8228 105.588 72.7709 105.588Z" fill="#EA3F3F"/>
<path d="M196.772 82.0501C198.406 82.0501 199.731 80.7255 199.731 79.0915C199.731 77.4575 198.406 76.1328 196.772 76.1328C195.138 76.1328 193.813 77.4575 193.813 79.0915C193.813 80.7255 195.138 82.0501 196.772 82.0501Z" fill="#FFAE1F"/>
<path d="M74.2834 48.3216C75.5543 48.3216 76.5845 47.2913 76.5845 46.0204C76.5845 44.7495 75.5543 43.7192 74.2834 43.7192C73.0125 43.7192 71.9822 44.7495 71.9822 46.0204C71.9822 47.2913 73.0125 48.3216 74.2834 48.3216Z" fill="#FFAE1F"/>
<path d="M174.154 34.3829C175.607 34.3829 176.784 33.2054 176.784 31.753C176.784 30.3005 175.607 29.123 174.154 29.123C172.702 29.123 171.524 30.3005 171.524 31.753C171.524 33.2054 172.702 34.3829 174.154 34.3829Z" fill="#FFD522"/>
<path d="M38.6477 100.591C40.1002 100.591 41.2777 99.4139 41.2777 97.9615C41.2777 96.509 40.1002 95.3315 38.6477 95.3315C37.1953 95.3315 36.0178 96.509 36.0178 97.9615C36.0178 99.4139 37.1953 100.591 38.6477 100.591Z" fill="#FFD522"/>
<path d="M223.729 104.996C224.818 104.996 225.701 104.113 225.701 103.024C225.701 101.934 224.818 101.051 223.729 101.051C222.639 101.051 221.756 101.934 221.756 103.024C221.756 104.113 222.639 104.996 223.729 104.996Z" fill="#FFD522"/>
<path d="M90.9174 73.1087C92.5514 73.1087 93.8761 71.7841 93.8761 70.1501C93.8761 68.516 92.5514 67.1914 90.9174 67.1914C89.2834 67.1914 87.9587 68.516 87.9587 70.1501C87.9587 71.7841 89.2834 73.1087 90.9174 73.1087Z" fill="#E54242"/>
<path d="M156.6 18.012C157.144 18.012 157.586 17.5704 157.586 17.0258C157.586 16.4811 157.144 16.0396 156.6 16.0396C156.055 16.0396 155.613 16.4811 155.613 17.0258C155.613 17.5704 156.055 18.012 156.6 18.012Z" fill="#E54242"/>
<path d="M52.3234 92.636C52.8681 92.636 53.3096 92.1945 53.3096 91.6498C53.3096 91.1051 52.8681 90.6636 52.3234 90.6636C51.7787 90.6636 51.3372 91.1051 51.3372 91.6498C51.3372 92.1945 51.7787 92.636 52.3234 92.636Z" fill="#E54242"/>
<path d="M99.5302 86.5213C100.075 86.5213 100.516 86.0797 100.516 85.535C100.516 84.9904 100.075 84.5488 99.5302 84.5488C98.9855 84.5488 98.5439 84.9904 98.5439 85.535C98.5439 86.0797 98.9855 86.5213 99.5302 86.5213Z" fill="#E54242"/>
<path d="M177.113 75.6731C177.658 75.6731 178.099 75.2316 178.099 74.6869C178.099 74.1422 177.658 73.7007 177.113 73.7007C176.568 73.7007 176.127 74.1422 176.127 74.6869C176.127 75.2316 176.568 75.6731 177.113 75.6731Z" fill="#FFAE1F"/>
<path d="M101.437 23.8636C101.982 23.8636 102.423 23.422 102.423 22.8773C102.423 22.3327 101.982 21.8911 101.437 21.8911C100.892 21.8911 100.451 22.3327 100.451 22.8773C100.451 23.422 100.892 23.8636 101.437 23.8636Z" fill="#FFC91F"/>
<path d="M137.861 31.3587C138.769 31.3587 139.505 30.6228 139.505 29.715C139.505 28.8072 138.769 28.0713 137.861 28.0713C136.953 28.0713 136.218 28.8072 136.218 29.715C136.218 30.6228 136.953 31.3587 137.861 31.3587Z" fill="#EF4B4B"/>
<path d="M230.764 88.8226C231.672 88.8226 232.408 88.0866 232.408 87.1789C232.408 86.2711 231.672 85.5352 230.764 85.5352C229.856 85.5352 229.12 86.2711 229.12 87.1789C229.12 88.0866 229.856 88.8226 230.764 88.8226Z" fill="#EF4B4B"/>
<path d="M188.685 68.3089C189.593 68.3089 190.329 67.573 190.329 66.6652C190.329 65.7574 189.593 65.0215 188.685 65.0215C187.777 65.0215 187.041 65.7574 187.041 66.6652C187.041 67.573 187.777 68.3089 188.685 68.3089Z" fill="#E54242"/>
<path d="M207.291 104.405L200.585 97.3697L193.747 101.117L192.827 99.3421L200.98 94.937L207.357 101.643L218.074 91.7153L219.389 93.1618L207.291 104.405Z" fill="#FFAE1F"/>
<path d="M198.021 53.3185L197.166 43.5878H206.831L203.872 33.0682L214.984 32.4107L211.959 24.7182L214.458 23.7319L218.797 34.8434L207.291 35.5008L210.316 46.2178H200.059L200.651 53.1213L198.021 53.3185Z" fill="#EF4B4B"/>
<path d="M91.1148 50.2286L89.2738 49.6369L92.5612 39.4459L83.5538 35.5011L87.3672 25.9676L76.5845 23.2719L77.0447 21.3652L89.9971 24.5869L86.0522 34.4491L94.9939 38.394L91.1148 50.2286Z" fill="#FFAE1F"/>
<path d="M45.0253 78.5003L39.5682 67.0601L32.7961 76.9223L30.6265 75.4101L39.9627 61.8003L45.7485 73.8322L51.7316 67.2574L57.2544 76.3964L55.019 77.7771L51.3371 71.6625L45.0253 78.5003Z" fill="#FFE669"/>
<path d="M59.8844 51.2145C54.0985 47.4011 56.0052 39.5114 56.071 39.1826L57.9777 39.6429C57.9777 39.7086 56.3997 46.4806 61.0021 49.5708L59.8844 51.2145Z" fill="#FFAE1F"/>
<path d="M224.583 73.3716L222.874 72.3854C226.359 66.4023 234.314 67.8488 234.643 67.9145L234.314 69.8212C234.248 69.7555 227.345 68.572 224.583 73.3716Z" fill="#FFAE1F"/>
<path d="M85.4601 103.287L83.6191 102.629C83.6191 102.564 86.2491 95.7916 94.2703 96.6464L94.0731 98.6188C87.564 97.8956 85.4601 103.221 85.4601 103.287Z" fill="#FFAE1F"/>
<path d="M108.012 31.2932L107.091 29.5838C108.998 28.5318 110.181 27.2168 110.642 25.6389C111.233 23.3377 109.918 21.168 109.853 21.1023L111.496 20.0503C111.562 20.1818 113.337 22.9432 112.483 26.0991C111.957 28.203 110.444 29.9125 108.012 31.2932Z" fill="#CC3232"/>
<path d="M190.526 93.4247C182.11 91.8467 180.072 84.1542 180.006 83.8255L181.913 83.3652C181.979 83.6282 183.754 90.203 190.855 91.518L190.526 93.4247Z" fill="#EF4B4B"/>
<path d="M177.376 42.7986C176.258 43.5219 188.816 41.8124 194.339 26.8876C194.799 25.6384 189.079 21.6278 187.699 23.2715C186.318 24.9152 190.329 34.0541 177.376 42.7986Z" fill="#FFAE1F"/>
</g>
<g clip-path="url(#clip1_2940_32878)">
<path d="M134.771 27.2821L142.003 41.9439L158.243 44.3108C160.216 44.5738 161.005 47.0065 159.558 48.453L147.855 59.8274L150.616 75.9356C150.945 77.9081 148.907 79.4203 147.132 78.4998L132.667 70.8731L118.137 78.4998C116.362 79.4203 114.258 77.9081 114.652 75.9356L117.414 59.8274L105.645 48.3872C104.198 47.0065 104.987 44.5738 106.96 44.2451L123.134 41.8782L130.366 27.2164C131.352 25.4412 133.916 25.4412 134.771 27.2821Z" fill="url(#paint1_linear_2940_32878)"/>
<path d="M148.249 76.9217C148.183 76.9217 148.052 76.9217 147.986 76.856L132.601 68.769L117.282 76.856C117.216 76.9217 117.085 76.9217 117.019 76.9217C116.887 76.9217 116.69 76.856 116.624 76.7245C116.493 76.593 116.493 76.4615 116.493 76.2642L119.452 59.1697L106.959 47.0721C106.762 46.8749 106.762 46.6776 106.828 46.5461C106.894 46.4146 106.959 46.2174 107.288 46.1516L124.448 43.6532L132.141 28.0709C132.272 27.8079 132.47 27.7422 132.601 27.7422C132.733 27.7422 132.93 27.8079 133.061 28.0709L140.754 43.6532L157.914 46.1516C158.177 46.2174 158.309 46.3489 158.374 46.5461C158.44 46.6776 158.44 46.8749 158.243 47.0721L145.816 59.1697L148.775 76.2642C148.775 76.4615 148.775 76.593 148.644 76.7245C148.578 76.856 148.381 76.9217 148.249 76.9217Z" fill="url(#paint2_linear_2940_32878)"/>
<path d="M117.413 59.8276L105.644 48.3875C105.053 47.8615 104.856 47.1383 104.921 46.415V50.8202C104.856 51.4776 105.053 52.2009 105.644 52.7926L116.756 63.5753L117.413 59.8276Z" fill="url(#paint3_linear_2940_32878)"/>
<path d="M150.616 76.659C150.419 78.3027 148.644 79.3547 147.066 78.5657L132.601 70.939L118.137 78.5C116.559 79.289 114.784 78.237 114.586 76.659V80.5382C114.389 82.4449 116.427 83.8256 118.137 82.9051L132.273 75.4756L132.667 75.3441L147.066 82.9051C148.775 83.8256 150.748 82.4449 150.616 80.5382V76.659Z" fill="url(#paint4_linear_2940_32878)"/>
<path d="M160.281 46.415C160.347 47.0725 160.15 47.7957 159.558 48.3875L147.855 59.8276L148.512 63.5753L159.558 52.7926C160.15 52.2666 160.347 51.5434 160.281 50.8202V46.415Z" fill="url(#paint5_linear_2940_32878)"/>
<path d="M158.374 46.4804C158.309 46.3489 158.243 46.1516 157.914 46.0859L140.754 43.6532L133.127 28.0709C132.996 27.8079 132.798 27.7422 132.667 27.7422C132.535 27.7422 132.338 27.8079 132.207 28.0709L124.448 43.6532L107.288 46.1516C107.025 46.2174 106.894 46.3489 106.828 46.5461C106.762 46.6776 106.762 46.8749 106.959 47.0721L111.036 51.017C117.742 47.8611 126.684 47.4008 135.626 50.2938C140.425 51.8717 144.567 54.2386 147.986 57.0658L158.243 47.0721C158.44 46.8749 158.44 46.6776 158.374 46.4804Z" fill="url(#paint6_radial_2940_32878)"/>
<path d="M158.243 47.0721C158.44 46.8749 158.44 46.6776 158.374 46.5461C158.309 46.4146 158.243 46.2174 157.914 46.1516L140.754 43.6532L133.127 28.0709C132.996 27.8079 132.798 27.7422 132.667 27.7422C132.535 27.7422 132.338 27.8079 132.207 28.0709L124.448 43.6532L107.288 46.1516C107.025 46.2174 106.894 46.3489 106.828 46.5461C106.762 46.6776 106.762 46.8749 106.959 47.0721L119.386 59.1697L116.427 76.2642C116.427 76.4615 116.427 76.593 116.559 76.7245C116.69 76.856 116.822 76.9217 116.953 76.9217C117.019 76.9217 117.15 76.9217 117.216 76.856L132.601 68.769L147.986 76.856C148.052 76.9217 148.183 76.9217 148.249 76.9217C148.381 76.9217 148.578 76.856 148.644 76.7245C148.775 76.593 148.775 76.4615 148.775 76.2642L145.816 59.1697L158.243 47.0721ZM148.315 76.3957C148.249 76.4615 148.249 76.4615 148.315 76.3957L132.601 68.243L117.019 76.4615C117.019 76.4615 116.953 76.4615 116.953 76.3957L119.912 59.0383L107.288 46.7434C107.288 46.7434 107.288 46.7434 107.288 46.6776C107.288 46.6119 107.288 46.6119 107.354 46.6119L124.777 44.0477L132.535 28.2682C132.535 28.2024 132.535 28.2024 132.601 28.2024C132.667 28.2024 132.667 28.2024 132.667 28.2682L140.491 44.0477L157.914 46.6119C157.98 46.6119 157.98 46.6119 157.98 46.6776C157.98 46.7434 157.98 46.7434 157.98 46.7434L145.356 59.0383L148.315 76.3957Z" fill="url(#paint7_linear_2940_32878)"/>
</g>
<g clip-path="url(#clip2_2940_32878)">
<path d="M175.748 54.9185L179.528 62.8301L188.014 64.1074C189.045 64.2493 189.457 65.562 188.701 66.3425L182.585 72.4802L184.028 81.1724C184.2 82.2368 183.135 83.0528 182.208 82.5561L174.649 78.4406L167.056 82.5561C166.128 83.0528 165.029 82.2368 165.235 81.1724L166.678 72.4802L160.528 66.307C159.772 65.562 160.184 64.2493 161.215 64.0719L169.667 62.7947L173.446 54.883C173.962 53.9251 175.302 53.9251 175.748 54.9185Z" fill="url(#paint8_linear_2940_32878)"/>
<path d="M182.791 81.7042C182.757 81.7042 182.688 81.7042 182.654 81.6688L174.614 77.3049L166.609 81.6688C166.575 81.7042 166.506 81.7042 166.471 81.7042C166.403 81.7042 166.3 81.6688 166.265 81.5978C166.197 81.5269 166.197 81.4559 166.197 81.3495L167.743 72.1251L161.215 65.5971C161.112 65.4907 161.112 65.3842 161.146 65.3133C161.18 65.2423 161.215 65.1359 161.387 65.1004L170.354 63.7522L174.374 55.3439C174.442 55.202 174.546 55.1665 174.614 55.1665C174.683 55.1665 174.786 55.202 174.855 55.3439L178.875 63.7522L187.842 65.1004C187.979 65.1359 188.048 65.2069 188.082 65.3133C188.117 65.3842 188.117 65.4907 188.014 65.5971L181.52 72.1251L183.066 81.3495C183.066 81.4559 183.066 81.5269 182.997 81.5978C182.963 81.6688 182.86 81.7042 182.791 81.7042Z" fill="url(#paint9_linear_2940_32878)"/>
<path d="M166.678 72.4802L160.528 66.307C160.219 66.0232 160.116 65.6329 160.15 65.2427V67.6197C160.116 67.9745 160.219 68.3648 160.528 68.6841L166.334 74.5025L166.678 72.4802Z" fill="url(#paint10_linear_2940_32878)"/>
<path d="M184.028 81.5627C183.925 82.4496 182.998 83.0173 182.173 82.5916L174.614 78.4761L167.056 82.5561C166.231 82.9818 165.303 82.4142 165.2 81.5627V83.6559C165.097 84.6848 166.162 85.4298 167.056 84.9331L174.443 80.9241L174.649 80.8531L182.173 84.9331C183.066 85.4298 184.097 84.6848 184.028 83.6559V81.5627Z" fill="url(#paint11_linear_2940_32878)"/>
<path d="M189.079 65.2427C189.113 65.5975 189.01 65.9877 188.701 66.307L182.585 72.4802L182.929 74.5025L188.701 68.6841C189.01 68.4002 189.113 68.01 189.079 67.6197V65.2427Z" fill="url(#paint12_linear_2940_32878)"/>
<path d="M188.082 65.2778C188.048 65.2069 188.014 65.1004 187.842 65.0649L178.875 63.7522L174.889 55.3439C174.82 55.202 174.717 55.1665 174.649 55.1665C174.58 55.1665 174.477 55.202 174.408 55.3439L170.354 63.7522L161.387 65.1004C161.249 65.1359 161.18 65.2069 161.146 65.3133C161.112 65.3842 161.112 65.4907 161.215 65.5971L163.345 67.7258C166.849 66.0229 171.522 65.7745 176.195 67.3356C178.703 68.187 180.867 69.4642 182.654 70.9898L188.014 65.5971C188.117 65.4907 188.117 65.3842 188.082 65.2778Z" fill="url(#paint13_radial_2940_32878)"/>
<path d="M188.014 65.5971C188.117 65.4907 188.117 65.3842 188.082 65.3133C188.048 65.2423 188.014 65.1359 187.842 65.1004L178.875 63.7522L174.889 55.3439C174.82 55.202 174.717 55.1665 174.649 55.1665C174.58 55.1665 174.477 55.202 174.408 55.3439L170.354 63.7522L161.387 65.1004C161.249 65.1359 161.18 65.2069 161.146 65.3133C161.112 65.3842 161.112 65.4907 161.215 65.5971L167.708 72.1251L166.162 81.3495C166.162 81.4559 166.162 81.5269 166.231 81.5978C166.3 81.6688 166.368 81.7042 166.437 81.7042C166.471 81.7042 166.54 81.7042 166.575 81.6688L174.614 77.3049L182.654 81.6688C182.688 81.7042 182.757 81.7042 182.791 81.7042C182.86 81.7042 182.963 81.6688 182.997 81.5978C183.066 81.5269 183.066 81.4559 183.066 81.3495L181.52 72.1251L188.014 65.5971ZM182.826 81.4204C182.791 81.4559 182.791 81.4559 182.826 81.4204L174.614 77.0211L166.471 81.4559C166.471 81.4559 166.437 81.4559 166.437 81.4204L167.983 72.0542L161.387 65.4197C161.387 65.4197 161.387 65.4197 161.387 65.3842C161.387 65.3488 161.387 65.3488 161.421 65.3488L170.526 63.9651L174.58 55.4503C174.58 55.4149 174.58 55.4149 174.614 55.4149C174.649 55.4149 174.649 55.4149 174.649 55.4503L178.737 63.9651L187.842 65.3488C187.876 65.3488 187.876 65.3488 187.876 65.3842C187.876 65.4197 187.876 65.4197 187.876 65.4197L181.28 72.0542L182.826 81.4204Z" fill="url(#paint14_linear_2940_32878)"/>
</g>
<g clip-path="url(#clip3_2940_32878)">
<path d="M90.9331 54.9185L94.7124 62.8301L103.199 64.1074C104.23 64.2493 104.642 65.562 103.886 66.3425L97.7703 72.4802L99.2133 81.1724C99.3851 82.2368 98.32 83.0528 97.3923 82.5561L89.8337 78.4406L82.2406 82.5561C81.313 83.0528 80.2135 82.2368 80.4197 81.1724L81.8627 72.4802L75.7127 66.307C74.9568 65.562 75.3691 64.2493 76.3998 64.0719L84.8518 62.7947L88.6311 54.883C89.1465 53.9251 90.4864 53.9251 90.9331 54.9185Z" fill="url(#paint15_linear_2940_32878)"/>
<path d="M97.9759 81.7042C97.9416 81.7042 97.8728 81.7042 97.8385 81.6688L89.7988 77.3049L81.7935 81.6688C81.7591 81.7042 81.6904 81.7042 81.656 81.7042C81.5873 81.7042 81.4843 81.6688 81.4499 81.5978C81.3812 81.5269 81.3812 81.4559 81.3812 81.3495L82.9273 72.1251L76.3993 65.5971C76.2962 65.4907 76.2962 65.3842 76.3306 65.3133C76.365 65.2423 76.3993 65.1359 76.5711 65.1004L85.5385 63.7522L89.5583 55.3439C89.627 55.202 89.7301 55.1665 89.7988 55.1665C89.8675 55.1665 89.9706 55.202 90.0393 55.3439L94.0591 63.7522L103.026 65.1004C103.164 65.1359 103.233 65.2069 103.267 65.3133C103.301 65.3842 103.301 65.4907 103.198 65.5971L96.7047 72.1251L98.2508 81.3495C98.2508 81.4559 98.2508 81.5269 98.1821 81.5978C98.1477 81.6688 98.0446 81.7042 97.9759 81.7042Z" fill="url(#paint16_linear_2940_32878)"/>
<path d="M81.8626 72.4802L75.7126 66.307C75.4034 66.0232 75.3003 65.6329 75.3347 65.2427V67.6197C75.3003 67.9745 75.4034 68.3648 75.7126 68.6841L81.5191 74.5025L81.8626 72.4802Z" fill="url(#paint17_linear_2940_32878)"/>
<path d="M99.2131 81.5627C99.11 82.4496 98.1824 83.0173 97.3578 82.5916L89.7991 78.4761L82.2404 82.5561C81.4158 82.9818 80.4882 82.4142 80.3851 81.5627V83.6559C80.282 84.6848 81.3471 85.4298 82.2404 84.9331L89.6273 80.9241L89.8335 80.8531L97.3578 84.9331C98.2511 85.4298 99.2818 84.6848 99.2131 83.6559V81.5627Z" fill="url(#paint18_linear_2940_32878)"/>
<path d="M104.263 65.2427C104.298 65.5975 104.195 65.9877 103.885 66.307L97.7698 72.4802L98.1134 74.5025L103.885 68.6841C104.195 68.4002 104.298 68.01 104.263 67.6197V65.2427Z" fill="url(#paint19_linear_2940_32878)"/>
<path d="M103.267 65.2778C103.233 65.2069 103.198 65.1004 103.026 65.0649L94.0591 63.7522L90.0737 55.3439C90.0049 55.202 89.9019 55.1665 89.8332 55.1665C89.7644 55.1665 89.6614 55.202 89.5927 55.3439L85.5385 63.7522L76.5711 65.1004C76.4337 65.1359 76.365 65.2069 76.3306 65.3133C76.2962 65.3842 76.2962 65.4907 76.3993 65.5971L78.5295 67.7258C82.034 66.0229 86.7066 65.7745 91.3793 67.3356C93.8874 68.187 96.0519 69.4642 97.8385 70.9898L103.198 65.5971C103.301 65.4907 103.301 65.3842 103.267 65.2778Z" fill="url(#paint20_radial_2940_32878)"/>
<path d="M103.198 65.5971C103.301 65.4907 103.301 65.3842 103.267 65.3133C103.233 65.2423 103.198 65.1359 103.026 65.1004L94.0591 63.7522L90.0737 55.3439C90.0049 55.202 89.9019 55.1665 89.8332 55.1665C89.7644 55.1665 89.6614 55.202 89.5927 55.3439L85.5385 63.7522L76.5711 65.1004C76.4337 65.1359 76.365 65.2069 76.3306 65.3133C76.2962 65.3842 76.2962 65.4907 76.3993 65.5971L82.8929 72.1251L81.3468 81.3495C81.3468 81.4559 81.3468 81.5269 81.4155 81.5978C81.4843 81.6688 81.553 81.7042 81.6217 81.7042C81.656 81.7042 81.7248 81.7042 81.7591 81.6688L89.7988 77.3049L97.8385 81.6688C97.8728 81.7042 97.9416 81.7042 97.9759 81.7042C98.0446 81.7042 98.1477 81.6688 98.1821 81.5978C98.2508 81.5269 98.2508 81.4559 98.2508 81.3495L96.7047 72.1251L103.198 65.5971ZM98.0103 81.4204C97.9759 81.4559 97.9759 81.4559 98.0103 81.4204L89.7988 77.0211L81.656 81.4559C81.656 81.4559 81.6217 81.4559 81.6217 81.4204L83.1678 72.0542L76.5711 65.4197C76.5711 65.4197 76.5711 65.4197 76.5711 65.3842C76.5711 65.3488 76.5711 65.3488 76.6055 65.3488L85.7102 63.9651L89.7644 55.4503C89.7644 55.4149 89.7644 55.4149 89.7988 55.4149C89.8332 55.4149 89.8332 55.4149 89.8332 55.4503L93.9217 63.9651L103.026 65.3488C103.061 65.3488 103.061 65.3488 103.061 65.3842C103.061 65.4197 103.061 65.4197 103.061 65.4197L96.4642 72.0542L98.0103 81.4204Z" fill="url(#paint21_linear_2940_32878)"/>
</g>
<path d="M11.5178 117.328C12.6981 117.582 14.7696 117.284 18.263 116.963C14.7696 116.641 12.6981 116.343 11.5178 116.597C13.1377 115.851 15.0582 113.234 18.7915 108.744C14.3014 112.477 11.6849 114.398 10.9388 116.018C11.1927 114.838 10.8947 112.766 10.573 109.273C10.2515 112.766 9.95332 114.838 10.2072 116.018C9.46106 114.398 6.84464 112.477 2.35449 108.744C6.08775 113.234 8.00853 115.851 9.62817 116.597C8.44786 116.343 6.37639 116.641 2.88302 116.963C6.37664 117.284 8.44786 117.582 9.62817 117.328C8.00828 118.075 6.08775 120.691 2.35449 125.181C6.84464 121.448 9.46106 119.527 10.2072 117.907C9.95332 119.088 10.2513 121.159 10.573 124.653C10.8945 121.159 11.1927 119.088 10.9388 117.907C11.6849 119.527 14.3014 121.448 18.7915 125.181C15.0582 120.691 13.1375 118.075 11.5178 117.328ZM10.9964 116.774C10.8918 116.827 10.7977 116.889 10.7141 116.96C10.7141 116.912 10.7171 116.864 10.7208 116.815C10.6725 116.819 10.6242 116.822 10.5759 116.822C10.6472 116.738 10.7087 116.644 10.7619 116.539C10.7421 116.632 10.7279 116.724 10.721 116.815C10.8124 116.808 10.9043 116.794 10.9964 116.774ZM10.3843 116.539C10.4372 116.644 10.4988 116.738 10.5703 116.822C10.522 116.822 10.4738 116.819 10.4255 116.815C10.4292 116.863 10.4319 116.912 10.4321 116.96C10.3486 116.889 10.2545 116.827 10.1496 116.774C10.242 116.794 10.3338 116.808 10.4255 116.815C10.4184 116.724 10.4042 116.632 10.3843 116.539ZM10.1496 117.151C10.2542 117.098 10.3483 117.037 10.4319 116.965C10.4319 117.014 10.4289 117.062 10.4252 117.11C10.4735 117.106 10.5218 117.104 10.5703 117.104C10.499 117.187 10.4375 117.281 10.3843 117.386C10.4042 117.294 10.4184 117.202 10.4252 117.11C10.3339 117.117 10.2417 117.131 10.1496 117.151ZM10.5757 117.104C10.624 117.104 10.6722 117.107 10.7208 117.11C10.7171 117.062 10.7144 117.014 10.7141 116.966C10.7977 117.037 10.8918 117.098 10.9964 117.152C10.904 117.132 10.8121 117.117 10.7205 117.111C10.7274 117.202 10.7416 117.294 10.7614 117.387C10.7085 117.282 10.647 117.187 10.5757 117.104Z" fill="#FFBE00"/>
<path d="M238.966 121.938C241.758 121.731 244.548 121.505 247.342 121.321C249.228 121.197 250.485 120.013 250.64 118.115C250.845 115.599 251.037 113.081 251.238 110.565C251.265 110.226 251.315 109.889 251.451 109.558C251.669 112.468 251.902 115.378 252.097 118.29C252.193 119.713 253.618 121.193 255.061 121.297C257.953 121.505 260.846 121.718 263.741 122.061C262.504 122.185 261.269 122.331 260.03 122.428C258.299 122.563 256.566 122.67 254.833 122.774C254.243 122.809 253.879 123.145 253.406 123.47C252.028 124.422 252.125 125.733 252.044 127.113C251.902 129.56 251.632 131.999 251.328 134.454C251.209 133.176 251.077 131.899 250.975 130.62C250.84 128.921 250.751 127.218 250.599 125.52C250.477 124.168 249.069 122.862 247.72 122.763C244.95 122.56 242.181 122.347 239.413 122.136C239.262 122.125 239.114 122.091 238.965 122.068C238.965 122.025 238.966 121.981 238.966 121.938Z" fill="#FFBE00"/>
<path d="M251.352 125.466C253.264 125.466 254.813 123.917 254.813 122.006C254.813 120.095 253.264 118.545 251.352 118.545C249.441 118.545 247.892 120.095 247.892 122.006C247.892 123.917 249.441 125.466 251.352 125.466Z" fill="#FFBE00"/>
<path d="M257.093 116.266L255.072 119.247L254.112 118.287L257.093 116.266Z" fill="#FFBE00"/>
<path d="M248.592 125.726L245.611 127.747L247.632 124.766L248.592 125.726Z" fill="#FFBE00"/>
<path d="M257.093 127.747L254.112 125.726L255.072 124.766L257.093 127.747Z" fill="#FFBE00"/>
<path d="M247.632 119.247L245.611 116.266L248.592 118.287L247.632 119.247Z" fill="#FFBE00"/>
<path d="M257.68 130.165C259.355 130.04 261.029 129.905 262.705 129.794C263.836 129.72 264.591 129.01 264.684 127.871C264.807 126.361 264.921 124.851 265.042 123.341C265.058 123.138 265.088 122.936 265.17 122.738C265.301 124.484 265.441 126.229 265.558 127.976C265.615 128.83 266.47 129.717 267.336 129.779C269.071 129.904 270.806 130.032 272.543 130.238C271.801 130.312 271.06 130.4 270.317 130.458C269.278 130.539 268.239 130.604 267.199 130.666C266.845 130.687 266.626 130.888 266.343 131.083C265.516 131.654 265.574 132.441 265.526 133.269C265.441 134.737 265.279 136.2 265.096 137.673C265.025 136.906 264.946 136.14 264.884 135.373C264.803 134.353 264.75 133.332 264.658 132.313C264.586 131.502 263.741 130.719 262.931 130.66C261.27 130.537 259.609 130.41 257.947 130.283C257.857 130.276 257.768 130.256 257.679 130.242C257.679 130.217 257.679 130.191 257.68 130.165Z" fill="#FFBE00"/>
<path d="M267.186 130.206C267.186 131.353 266.256 132.282 265.11 132.282C263.963 132.282 263.034 131.353 263.034 130.206C263.034 129.059 263.963 128.13 265.11 128.13C266.256 128.13 267.186 129.059 267.186 130.206Z" fill="#FFBE00"/>
<path d="M268.554 126.762L267.342 128.55L266.767 127.975L268.554 126.762Z" fill="#FFBE00"/>
<path d="M263.455 132.437L261.667 133.65L262.879 131.862L263.455 132.437Z" fill="#FFBE00"/>
<path d="M268.554 133.65L266.767 132.437L267.342 131.862L268.554 133.65Z" fill="#FFBE00"/>
<path d="M262.879 128.55L261.667 126.762L263.455 127.975L262.879 128.55Z" fill="#FFBE00"/>
<path d="M235.324 131.279C236.437 131.196 237.55 131.106 238.664 131.033C239.416 130.984 239.917 130.511 239.979 129.754C240.06 128.751 240.137 127.747 240.217 126.743C240.228 126.608 240.248 126.474 240.302 126.342C240.389 127.502 240.482 128.663 240.56 129.824C240.598 130.392 241.166 130.982 241.741 131.023C242.895 131.106 244.048 131.191 245.203 131.328C244.71 131.378 244.217 131.435 243.723 131.474C243.033 131.528 242.342 131.571 241.651 131.612C241.416 131.626 241.27 131.76 241.082 131.89C240.532 132.27 240.571 132.793 240.539 133.343C240.482 134.319 240.375 135.292 240.253 136.27C240.206 135.761 240.153 135.251 240.113 134.741C240.059 134.064 240.023 133.384 239.963 132.708C239.914 132.168 239.352 131.648 238.814 131.608C237.71 131.527 236.606 131.442 235.501 131.358C235.441 131.353 235.382 131.34 235.323 131.331C235.323 131.314 235.323 131.296 235.324 131.279Z" fill="#FFBE00"/>
<path d="M240.263 132.687C241.025 132.687 241.643 132.069 241.643 131.307C241.643 130.545 241.025 129.927 240.263 129.927C239.501 129.927 238.883 130.545 238.883 131.307C238.883 132.069 239.501 132.687 240.263 132.687Z" fill="#FFBE00"/>
<path d="M242.552 129.018L241.746 130.206L241.364 129.824L242.552 129.018Z" fill="#FFBE00"/>
<path d="M239.162 132.79L237.974 133.596L238.78 132.407L239.162 132.79Z" fill="#FFBE00"/>
<path d="M242.552 133.596L241.364 132.79L241.746 132.407L242.552 133.596Z" fill="#FFBE00"/>
<path d="M238.78 130.206L237.974 129.018L239.162 129.824L238.78 130.206Z" fill="#FFBE00"/>
<path d="M255.281 111.832C256.454 111.745 257.626 111.65 258.8 111.573C259.592 111.521 260.121 111.024 260.186 110.226C260.272 109.168 260.352 108.111 260.437 107.053C260.448 106.911 260.469 106.769 260.526 106.63C260.618 107.853 260.716 109.076 260.798 110.3C260.838 110.898 261.437 111.519 262.043 111.563C263.259 111.651 264.474 111.74 265.691 111.885C265.171 111.937 264.652 111.998 264.131 112.038C263.404 112.095 262.676 112.141 261.948 112.184C261.7 112.199 261.546 112.34 261.348 112.477C260.769 112.877 260.81 113.427 260.776 114.007C260.716 115.035 260.603 116.061 260.475 117.092C260.425 116.555 260.37 116.019 260.327 115.481C260.27 114.767 260.233 114.051 260.168 113.338C260.118 112.769 259.526 112.221 258.959 112.179C257.795 112.094 256.631 112.004 255.468 111.916C255.405 111.911 255.342 111.897 255.28 111.887C255.28 111.869 255.28 111.851 255.281 111.832Z" fill="#FFBE00"/>
<path d="M261.939 111.861C261.939 112.664 261.288 113.315 260.485 113.315C259.682 113.315 259.031 112.664 259.031 111.861C259.031 111.058 259.682 110.407 260.485 110.407C261.288 110.407 261.939 111.058 261.939 111.861Z" fill="#FFBE00"/>
<path d="M262.897 109.449L262.048 110.702L261.644 110.298L262.897 109.449Z" fill="#FFBE00"/>
<path d="M259.325 113.424L258.073 114.273L258.922 113.021L259.325 113.424Z" fill="#FFBE00"/>
<path d="M262.897 114.273L261.644 113.424L262.048 113.021L262.897 114.273Z" fill="#FFBE00"/>
<path d="M258.922 110.702L258.073 109.449L259.325 110.298L258.922 110.702Z" fill="#FFBE00"/>
<path d="M8.69205 80.4349C9.77552 80.7542 10.9557 81.1669 12.2538 81.7022C10.9582 81.1682 9.82724 80.6303 8.83411 80.095C10.5696 79.8905 12.5326 79.7727 14.7633 79.7727C12.5297 79.7727 10.5639 79.6549 8.82736 79.4491C9.82007 78.9096 10.9517 78.3663 12.2477 77.8272C10.9531 78.3657 9.77721 78.7815 8.69691 79.1044C9.77764 77.7339 11.0819 76.2637 12.6578 74.6882C11.0792 76.2665 9.60793 77.5718 8.23507 78.6538C8.55507 77.5701 8.96709 76.3904 9.50324 75.0916C8.96857 76.3872 8.43116 77.5186 7.89586 78.5111C7.69027 76.7762 7.57355 74.8134 7.57355 72.5825C7.57355 74.8162 7.45577 76.7815 7.24933 78.5185C6.71044 77.5262 6.16797 76.3948 5.62719 75.0986C6.16628 76.3927 6.58232 77.5688 6.90569 78.6494C5.5341 77.568 4.0652 76.2642 2.48886 74.6887C4.06731 76.2669 5.37263 77.7383 6.45462 79.111C5.37136 78.7908 4.19164 78.379 2.89202 77.8435C4.18763 78.3773 5.3188 78.9153 6.31193 79.4506C4.57664 79.6556 2.61319 79.7734 0.38208 79.7731C2.61699 79.7734 4.58256 79.8913 6.3189 80.0963C5.32682 80.636 4.19544 81.1791 2.89899 81.7184C4.1927 81.18 5.36967 80.7646 6.44934 80.4414C5.36861 81.8117 4.06499 83.2817 2.48865 84.8572C4.0671 83.2794 5.53853 81.9739 6.9116 80.8917C6.59076 81.9755 6.17916 83.1553 5.64386 84.4536C6.17705 83.158 6.7153 82.0264 7.2506 81.0343C7.45619 82.7694 7.57334 84.7325 7.57334 86.9629C7.57334 84.7299 7.69028 82.7639 7.8965 81.0276C8.43602 82.0194 8.97891 83.1513 9.51864 84.4475C8.97891 83.1532 8.56393 81.9768 8.24098 80.8965C9.61131 81.9774 11.0815 83.2819 12.6574 84.857C11.0789 83.2787 9.77405 81.8071 8.69205 80.4349Z" fill="#FFBE00"/>
<path d="M20.5484 22.4447L26.0239 20.9703L20.5484 19.4962L22.2703 16.5056L19.2797 18.2274L17.8053 12.752L16.3312 18.2274L13.3406 16.5056L15.0624 19.4962L9.58691 20.9703L15.0624 22.4447L13.3406 25.4353L16.3312 23.7135L17.8053 29.189L19.2797 23.7135L22.2703 25.4353L20.5484 22.4447Z" fill="#FFBE00"/>
<path d="M276.661 18.1157C272.603 22.1737 268.849 25.4506 265.389 28.0746C265.171 28.2159 265.159 28.2383 264.927 28.0746C261.472 25.4506 257.713 22.173 253.659 18.1157C257.714 22.1737 260.995 25.9272 263.617 29.3836C263.819 29.6052 263.819 29.5966 263.617 29.8485C260.996 33.3075 257.714 37.0604 253.659 41.1144C257.714 37.0604 261.472 33.7828 264.927 31.1575C265.18 30.934 265.188 31.0063 265.389 31.1575C268.849 33.7828 272.603 37.0604 276.661 41.1144C272.603 37.0604 269.326 33.3075 266.699 29.8485C266.487 29.6151 266.496 29.6151 266.699 29.3836C269.326 25.9272 272.603 22.1737 276.661 18.1157Z" fill="#FFBE00"/>
<path d="M252.684 3.80424C250.93 4.30787 249.378 4.64252 248.011 4.84108C247.929 4.84634 247.922 4.84963 247.88 4.76744C247.323 3.50442 246.783 2.01392 246.277 0.259766C246.783 2.01392 247.119 3.56689 247.314 4.93314C247.337 5.0265 247.34 5.02255 247.245 5.06003C245.982 5.61888 244.487 6.16065 242.733 6.66428C244.486 6.16131 246.039 5.82468 247.409 5.63006C247.511 5.60574 247.503 5.62676 247.536 5.69909C248.094 6.96211 248.634 8.45394 249.139 10.2094C248.634 8.45394 248.301 6.90425 248.1 5.53735C248.075 5.4407 248.083 5.4407 248.175 5.40783C249.436 4.84963 250.93 4.30787 252.684 3.80424Z" fill="#FFBE00"/>
<path d="M234.028 26.2402C230.969 29.2988 228.144 31.769 225.534 33.746C225.37 33.8539 225.361 33.8683 225.187 33.746C222.581 31.769 219.753 29.2988 216.693 26.2402C219.753 29.2988 222.224 32.1286 224.202 34.7329C224.354 34.9025 224.354 34.8927 224.202 35.0814C222.224 37.6876 219.753 40.5181 216.693 43.5793C219.753 40.5187 222.581 38.0466 225.187 36.0709C225.379 35.9026 225.385 35.9558 225.534 36.0709C228.144 38.0466 230.969 40.5181 234.028 43.5793C230.969 40.5187 228.502 37.6876 226.522 35.0814C226.361 34.9084 226.371 34.9084 226.522 34.7329C228.502 32.1286 230.97 29.2988 234.028 26.2402Z" fill="#FFBE00"/>
<path d="M255.117 15.6349C249.5 16.8217 244.568 17.5219 240.237 17.8342C239.976 17.8296 239.953 17.8427 239.849 17.5804C238.383 13.4961 237.025 8.70048 235.839 3.08691C237.025 8.70048 237.722 13.6342 238.038 17.9677C238.087 18.2602 238.094 18.2543 237.786 18.3536C233.698 19.8185 228.904 21.1762 223.29 22.3629C228.904 21.1762 233.841 20.4792 238.167 20.165C238.5 20.1143 238.471 20.1834 238.555 20.4181C240.021 24.5024 241.379 29.298 242.569 34.9103C241.378 29.298 240.68 24.3643 240.364 20.0341C240.314 19.7231 240.321 19.7291 240.619 19.6462C244.705 18.1813 249.5 16.8217 255.117 15.6349Z" fill="#FFBE00"/>
<path d="M258.491 31.1629C255.803 30.6172 253.502 29.9847 251.546 29.2976C251.431 29.2489 251.421 29.2489 251.423 29.1148C251.561 27.0451 251.873 24.6808 252.418 21.9937C251.873 24.6808 251.241 26.9806 250.554 28.9393C250.521 29.0787 250.525 29.0773 250.372 29.0616C248.3 28.9288 245.935 28.6118 243.249 28.0661C245.935 28.6118 248.235 29.2456 250.196 29.9294C250.35 29.9708 250.323 29.9952 250.314 30.1122C250.185 32.1859 249.869 34.5463 249.321 37.2367C249.869 34.5463 250.5 32.2497 251.184 30.2897C251.222 30.1431 251.224 30.147 251.368 30.1674C253.443 30.3016 255.803 30.6172 258.491 31.1629Z" fill="#FFBE00"/>
<path d="M231.274 7.32722C229.444 9.02089 227.755 10.3819 226.211 11.4674C226.11 11.5233 226.105 11.5292 226.006 11.4555C224.546 10.257 222.974 8.76973 221.278 6.93799C222.974 8.76973 224.333 10.4562 225.414 12.0059C225.498 12.1025 225.498 12.0992 225.408 12.2051C224.207 13.6627 222.72 15.238 220.886 16.9343C222.721 15.238 224.407 13.8783 225.957 12.7955C226.07 12.7021 226.072 12.735 226.155 12.8054C227.614 14.0053 229.192 15.4938 230.882 17.3249C229.192 15.4931 227.829 13.8067 226.747 12.2583C226.661 12.1505 226.665 12.1544 226.754 12.0552C227.953 10.5975 229.444 9.02089 231.274 7.32722Z" fill="#FFBE00"/>
<path d="M43.7706 156.665C41.5464 158.889 39.489 160.685 37.5924 162.123C37.4731 162.201 37.4663 162.213 37.3391 162.123C35.4453 160.685 33.3855 158.888 31.1631 156.665C33.3858 158.889 35.1841 160.946 36.6212 162.841C36.7319 162.962 36.7319 162.957 36.6212 163.095C35.1844 164.991 33.3858 167.048 31.1631 169.27C33.3858 167.048 35.4453 165.252 37.3391 163.813C37.4778 163.69 37.4821 163.73 37.5924 163.813C39.489 165.252 41.5464 167.048 43.7706 169.27C41.5464 167.048 39.7503 164.991 38.3106 163.095C38.1946 162.967 38.1993 162.967 38.3106 162.841C39.7503 160.946 41.5467 158.889 43.7706 156.665Z" fill="#FFBE00"/>
<path d="M30.6285 148.821C29.667 149.097 28.8162 149.28 28.067 149.389C28.022 149.392 28.018 149.394 27.9953 149.349C27.6897 148.656 27.3938 147.839 27.1167 146.878C27.3938 147.839 27.5783 148.691 27.685 149.439C27.6976 149.491 27.6994 149.488 27.6472 149.509C26.9549 149.815 26.1354 150.112 25.1743 150.388C26.1351 150.113 26.9859 149.928 27.7373 149.821C27.7931 149.808 27.7884 149.82 27.8068 149.859C28.1124 150.552 28.4083 151.369 28.6854 152.331C28.4083 151.369 28.2259 150.52 28.1156 149.771C28.1023 149.718 28.1063 149.718 28.1567 149.7C28.8483 149.394 29.667 149.097 30.6285 148.821Z" fill="#FFBE00"/>
<path d="M20.4033 161.118C18.7269 162.794 17.178 164.148 15.7477 165.232C15.6576 165.291 15.6529 165.299 15.5575 165.232C14.1293 164.148 12.5794 162.794 10.9019 161.118C12.5794 162.794 13.9336 164.345 15.0176 165.773C15.1012 165.866 15.1012 165.86 15.0176 165.964C13.9333 167.392 12.5794 168.943 10.9019 170.621C12.5794 168.944 14.1293 167.589 15.5575 166.506C15.663 166.414 15.6663 166.443 15.7477 166.506C17.178 167.589 18.7269 168.943 20.4033 170.621C18.7269 168.944 17.3744 167.392 16.2894 165.964C16.2011 165.869 16.2065 165.869 16.2894 165.773C17.3744 164.345 18.7273 162.794 20.4033 161.118Z" fill="#FFBE00"/>
<path d="M31.9625 155.305C28.8835 155.956 26.1804 156.34 23.8063 156.511C23.6632 156.508 23.651 156.515 23.5941 156.372C22.7904 154.133 22.0463 151.505 21.3958 148.428C22.0463 151.505 22.4283 154.209 22.6012 156.584C22.6279 156.744 22.6319 156.741 22.4632 156.795C20.2225 157.598 17.5946 158.343 14.5178 158.993C17.5946 158.343 20.3007 157.961 22.6719 157.788C22.8542 157.761 22.8384 157.798 22.8845 157.927C23.6881 160.166 24.4323 162.794 25.0845 165.87C24.4319 162.794 24.0496 160.09 23.8762 157.717C23.8485 157.546 23.8524 157.549 24.0161 157.504C26.2557 156.701 28.8839 155.956 31.9625 155.305Z" fill="#FFBE00"/>
<path d="M33.8108 163.816C32.3377 163.517 31.0767 163.17 30.0046 162.794C29.9416 162.767 29.9358 162.767 29.9369 162.694C30.0126 161.559 30.1837 160.263 30.4821 158.791C30.1837 160.263 29.8374 161.524 29.4608 162.597C29.4428 162.674 29.445 162.673 29.3607 162.664C28.2255 162.592 26.9289 162.418 25.4568 162.119C26.9289 162.418 28.1895 162.765 29.2644 163.14C29.3491 163.163 29.334 163.176 29.3293 163.24C29.2583 164.377 29.0853 165.671 28.7848 167.145C29.0853 165.671 29.4313 164.412 29.8061 163.338C29.8266 163.257 29.8281 163.259 29.907 163.271C31.0439 163.344 32.3377 163.517 33.8108 163.816Z" fill="#FFBE00"/>
<path d="M18.8935 150.751C17.8903 151.68 16.9645 152.426 16.118 153.021C16.0628 153.051 16.0603 153.055 16.0059 153.014C15.2055 152.357 14.3442 151.542 13.4145 150.538C14.3442 151.542 15.0888 152.466 15.6816 153.316C15.7273 153.369 15.7273 153.367 15.6783 153.425C15.0199 154.224 14.2048 155.087 13.1997 156.017C14.2051 155.087 15.1295 154.342 15.9789 153.749C16.0412 153.697 16.0419 153.715 16.0877 153.754C16.8874 154.412 17.7519 155.228 18.6784 156.231C17.7519 155.227 17.0048 154.303 16.412 153.454C16.3648 153.395 16.367 153.397 16.416 153.343C17.0733 152.544 17.8903 151.68 18.8935 150.751Z" fill="#FFBE00"/>
<defs>
<filter id="filter0_d_2940_32878" x="54.2959" y="67.9804" width="167.657" height="169.63" filterUnits="userSpaceOnUse" color-interpolation-filters="sRGB">
<feFlood flood-opacity="0" result="BackgroundImageFix"/>
<feColorMatrix in="SourceAlpha" type="matrix" values="0 0 0 0 0 0 0 0 0 0 0 0 0 0 0 0 0 0 127 0" result="hardAlpha"/>
<feOffset dx="5.91732" dy="5.25984"/>
<feGaussianBlur stdDeviation="4.60236"/>
<feComposite in2="hardAlpha" operator="out"/>
<feColorMatrix type="matrix" values="0 0 0 0 0.0206597 0 0 0 0 0.667998 0 0 0 0 0.991667 0 0 0 0.15 0"/>
<feBlend mode="normal" in2="BackgroundImageFix" result="effect1_dropShadow_2940_32878"/>
<feBlend mode="normal" in="SourceGraphic" in2="effect1_dropShadow_2940_32878" result="shape"/>
</filter>
<linearGradient id="paint0_linear_2940_32878" x1="206.831" y1="83.2668" x2="78.1625" y2="221.462" gradientUnits="userSpaceOnUse">
<stop stop-color="#59FCCB"/>
<stop offset="1" stop-color="#158BF9"/>
</linearGradient>
<linearGradient id="paint1_linear_2940_32878" x1="129.039" y1="28.1138" x2="138.966" y2="79.6281" gradientUnits="userSpaceOnUse">
<stop stop-color="#FDD733"/>
<stop offset="1" stop-color="#F9AB21"/>
</linearGradient>
<linearGradient id="paint2_linear_2940_32878" x1="131.244" y1="32.5194" x2="135.319" y2="74.5249" gradientUnits="userSpaceOnUse">
<stop stop-color="#FDE265"/>
<stop offset="1" stop-color="#FDD733"/>
</linearGradient>
<linearGradient id="paint3_linear_2940_32878" x1="111.231" y1="41.6018" x2="110.996" y2="77.4163" gradientUnits="userSpaceOnUse">
<stop stop-color="#EA8D07"/>
<stop offset="1" stop-color="#B26500"/>
</linearGradient>
<linearGradient id="paint4_linear_2940_32878" x1="132.867" y1="41.7438" x2="132.632" y2="77.5583" gradientUnits="userSpaceOnUse">
<stop stop-color="#EA8D07"/>
<stop offset="1" stop-color="#B26500"/>
</linearGradient>
<linearGradient id="paint5_linear_2940_32878" x1="154.168" y1="41.8837" x2="153.933" y2="77.6981" gradientUnits="userSpaceOnUse">
<stop stop-color="#EA8D07"/>
<stop offset="1" stop-color="#B26500"/>
</linearGradient>
<radialGradient id="paint6_radial_2940_32878" cx="0" cy="0" r="1" gradientUnits="userSpaceOnUse" gradientTransform="translate(118.4 63.3777) rotate(-28.6918) scale(55.4636 55.4636)">
<stop offset="0.361908" stop-color="#FFB017" stop-opacity="0.09"/>
<stop offset="0.926189" stop-color="#FABC28"/>
</radialGradient>
<linearGradient id="paint7_linear_2940_32878" x1="132.326" y1="28.7573" x2="133.11" y2="76.8756" gradientUnits="userSpaceOnUse">
<stop stop-color="#FDD733"/>
<stop offset="1" stop-color="#FBC12A"/>
</linearGradient>
<linearGradient id="paint8_linear_2940_32878" x1="172.753" y1="55.3672" x2="178.271" y2="83.099" gradientUnits="userSpaceOnUse">
<stop stop-color="#FDD733"/>
<stop offset="1" stop-color="#F9AB21"/>
</linearGradient>
<linearGradient id="paint9_linear_2940_32878" x1="173.905" y1="57.7443" x2="176.174" y2="80.3969" gradientUnits="userSpaceOnUse">
<stop stop-color="#FDE265"/>
<stop offset="1" stop-color="#FDD733"/>
</linearGradient>
<linearGradient id="paint10_linear_2940_32878" x1="163.447" y1="62.6454" x2="163.316" y2="81.9712" gradientUnits="userSpaceOnUse">
<stop stop-color="#EA8D07"/>
<stop offset="1" stop-color="#B26500"/>
</linearGradient>
<linearGradient id="paint11_linear_2940_32878" x1="174.753" y1="62.7221" x2="174.622" y2="82.0479" gradientUnits="userSpaceOnUse">
<stop stop-color="#EA8D07"/>
<stop offset="1" stop-color="#B26500"/>
</linearGradient>
<linearGradient id="paint12_linear_2940_32878" x1="185.884" y1="62.7975" x2="185.753" y2="82.1233" gradientUnits="userSpaceOnUse">
<stop stop-color="#EA8D07"/>
<stop offset="1" stop-color="#B26500"/>
</linearGradient>
<radialGradient id="paint13_radial_2940_32878" cx="0" cy="0" r="1" gradientUnits="userSpaceOnUse" gradientTransform="translate(167.193 74.3958) rotate(-29.4729) scale(29.204 29.7026)">
<stop offset="0.361908" stop-color="#FFB017" stop-opacity="0.09"/>
<stop offset="0.926189" stop-color="#FABC28"/>
</radialGradient>
<linearGradient id="paint14_linear_2940_32878" x1="174.471" y1="55.7143" x2="174.907" y2="81.6789" gradientUnits="userSpaceOnUse">
<stop stop-color="#FDD733"/>
<stop offset="1" stop-color="#FBC12A"/>
</linearGradient>
<linearGradient id="paint15_linear_2940_32878" x1="87.9378" y1="55.3672" x2="93.456" y2="83.099" gradientUnits="userSpaceOnUse">
<stop stop-color="#FDD733"/>
<stop offset="1" stop-color="#F9AB21"/>
</linearGradient>
<linearGradient id="paint16_linear_2940_32878" x1="89.0894" y1="57.7443" x2="91.3587" y2="80.3969" gradientUnits="userSpaceOnUse">
<stop stop-color="#FDE265"/>
<stop offset="1" stop-color="#FDD733"/>
</linearGradient>
<linearGradient id="paint17_linear_2940_32878" x1="78.6319" y1="62.6454" x2="78.5009" y2="81.9712" gradientUnits="userSpaceOnUse">
<stop stop-color="#EA8D07"/>
<stop offset="1" stop-color="#B26500"/>
</linearGradient>
<linearGradient id="paint18_linear_2940_32878" x1="89.9379" y1="62.7221" x2="89.8069" y2="82.0479" gradientUnits="userSpaceOnUse">
<stop stop-color="#EA8D07"/>
<stop offset="1" stop-color="#B26500"/>
</linearGradient>
<linearGradient id="paint19_linear_2940_32878" x1="101.069" y1="62.7975" x2="100.938" y2="82.1233" gradientUnits="userSpaceOnUse">
<stop stop-color="#EA8D07"/>
<stop offset="1" stop-color="#B26500"/>
</linearGradient>
<radialGradient id="paint20_radial_2940_32878" cx="0" cy="0" r="1" gradientUnits="userSpaceOnUse" gradientTransform="translate(82.3777 74.3958) rotate(-29.4729) scale(29.204 29.7026)">
<stop offset="0.361908" stop-color="#FFB017" stop-opacity="0.09"/>
<stop offset="0.926189" stop-color="#FABC28"/>
</radialGradient>
<linearGradient id="paint21_linear_2940_32878" x1="89.6553" y1="55.7143" x2="90.0919" y2="81.6789" gradientUnits="userSpaceOnUse">
<stop stop-color="#FDD733"/>
<stop offset="1" stop-color="#FBC12A"/>
</linearGradient>
<clipPath id="clip0_2940_32878">
<rect width="204.082" height="100.331" fill="white" transform="translate(30.6262 16.0396)"/>
</clipPath>
<clipPath id="clip1_2940_32878">
<rect width="55.3598" height="57.2665" fill="white" transform="translate(104.922 25.9014)"/>
</clipPath>
<clipPath id="clip2_2940_32878">
<rect width="28.9291" height="30.9016" fill="white" transform="translate(160.15 54.1733)"/>
</clipPath>
<clipPath id="clip3_2940_32878">
<rect width="28.9291" height="30.9016" fill="white" transform="translate(75.3352 54.1733)"/>
</clipPath>
</defs>
</svg>
