<svg width="17" height="16" viewBox="0 0 17 16" fill="none" xmlns="http://www.w3.org/2000/svg">
<path d="M8.49976 10.75C8.36715 10.75 8.23997 10.6973 8.1462 10.6036C8.05243 10.5098 7.99976 10.3826 7.99976 10.25V8.5H6.24976C6.11715 8.5 5.98997 8.44732 5.8962 8.35355C5.80243 8.25979 5.74976 8.13261 5.74976 8C5.74976 7.86739 5.80243 7.74021 5.8962 7.64645C5.98997 7.55268 6.11715 7.5 6.24976 7.5H7.99976V5.75C7.99976 5.61739 8.05243 5.49021 8.1462 5.39645C8.23997 5.30268 8.36715 5.25 8.49976 5.25C8.63236 5.25 8.75954 5.30268 8.85331 5.39645C8.94708 5.49021 8.99976 5.61739 8.99976 5.75V7.5H10.7498C10.8824 7.5 11.0095 7.55268 11.1033 7.64645C11.1971 7.74021 11.2498 7.86739 11.2498 8C11.2498 8.13261 11.1971 8.25979 11.1033 8.35355C11.0095 8.44732 10.8824 8.5 10.7498 8.5H8.99976V10.25C8.99976 10.3826 8.94708 10.5098 8.85331 10.6036C8.75954 10.6973 8.63236 10.75 8.49976 10.75Z" fill="white"/>
<path fill-rule="evenodd" clip-rule="evenodd" d="M4.99976 0.5C2.79051 0.5 0.999756 2.29075 0.999756 4.5V11.5C0.999756 13.7092 2.79051 15.5 4.99976 15.5H11.9998C14.209 15.5 15.9998 13.7092 15.9998 11.5V5.15175C15.9997 4.87751 15.9433 4.6062 15.834 4.3547C15.7246 4.10319 15.5648 3.87685 15.3643 3.68975L12.5233 1.038C12.1529 0.692281 11.6651 0.500001 11.1585 0.5H4.99976ZM1.99976 4.5C1.99976 2.84325 3.34301 1.5 4.99976 1.5H10.9998V3C10.9998 3.53043 11.2105 4.03914 11.5855 4.41421C11.9606 4.78929 12.4693 5 12.9998 5H14.9883C14.9958 5.05 14.9998 5.10075 14.9998 5.15175V11.5C14.9998 13.1567 13.6565 14.5 11.9998 14.5H4.99976C3.34301 14.5 1.99976 13.1567 1.99976 11.5V4.5ZM11.9998 3V1.9175L14.2313 4H12.9998C12.7345 4 12.4802 3.89464 12.2926 3.70711C12.1051 3.51957 11.9998 3.26522 11.9998 3Z" fill="white"/>
</svg>
