<svg width="61" height="60" viewBox="0 0 61 60" fill="none" xmlns="http://www.w3.org/2000/svg">
<path d="M36.7438 12.7913L40.2632 9.36003C40.5139 9.11575 40.6912 8.80615 40.7751 8.46629C40.859 8.12643 40.846 7.76988 40.7377 7.437C40.6295 7.10411 40.4301 6.80819 40.1624 6.58273C39.8946 6.35728 39.569 6.21128 39.2226 6.16128L34.3569 5.4544L32.1819 1.04628C32.0091 0.753978 31.7632 0.511754 31.4682 0.34349C31.1733 0.175225 30.8396 0.086731 30.5001 0.086731C30.1605 0.086731 29.8268 0.175225 29.5319 0.34349C29.2369 0.511754 28.991 0.753978 28.8182 1.04628L26.6432 5.4544L21.7776 6.16128C21.4312 6.21157 21.1059 6.35777 20.8384 6.58335C20.5708 6.80893 20.3718 7.10487 20.2637 7.43771C20.1556 7.77054 20.1428 8.12698 20.2268 8.4667C20.3107 8.80643 20.4881 9.11587 20.7388 9.36003L24.2582 12.7913L23.4276 17.6382C23.3687 17.9827 23.4074 18.3369 23.5392 18.6606C23.671 18.9844 23.8906 19.2648 24.1734 19.4704C24.4561 19.6759 24.7907 19.7983 25.1393 19.8237C25.4879 19.8492 25.8367 19.7767 26.1463 19.6144L30.5001 17.3269L34.8519 19.6144C35.1616 19.7772 35.5106 19.8501 35.8595 19.8249C36.2085 19.7997 36.5434 19.6774 36.8264 19.4718C37.1095 19.2662 37.3294 18.9855 37.4612 18.6615C37.5931 18.3374 37.6316 17.983 37.5726 17.6382L36.7438 12.7913ZM60.4082 12.9807C60.2999 12.6482 60.1009 12.3526 59.8335 12.1273C59.5661 11.902 59.2411 11.756 58.8951 11.7057L54.0294 10.9969L51.8526 6.58878C51.6801 6.29601 51.4343 6.05333 51.1393 5.88472C50.8443 5.71611 50.5104 5.62742 50.1707 5.62742C49.8309 5.62742 49.497 5.71611 49.2021 5.88472C48.9071 6.05333 48.6612 6.29601 48.4888 6.58878L46.3138 10.9969L41.4482 11.7038C41.1019 11.7541 40.7765 11.9003 40.509 12.1259C40.2415 12.3514 40.0424 12.6474 39.9343 12.9802C39.8262 13.313 39.8134 13.6695 39.8974 14.0092C39.9814 14.3489 40.1587 14.6584 40.4094 14.9025L43.9307 18.3338L43.0982 23.1807C43.0387 23.5256 43.0769 23.8803 43.2086 24.2047C43.3403 24.529 43.5601 24.81 43.8433 25.0159C44.1264 25.2217 44.4615 25.3442 44.8106 25.3695C45.1598 25.3947 45.509 25.3217 45.8188 25.1588L50.1688 22.8713L54.5226 25.1588C54.8324 25.3217 55.1816 25.3947 55.5307 25.3695C55.8799 25.3442 56.215 25.2217 56.4981 25.0159C56.7812 24.81 57.0011 24.529 57.1327 24.2047C57.2644 23.8803 57.3027 23.5256 57.2432 23.1807L56.4126 18.3338L59.9319 14.9025C60.1827 14.6585 60.3603 14.3492 60.4444 14.0096C60.5286 13.6699 60.516 13.3135 60.4082 12.9807ZM19.5501 11.7038L14.6863 10.9969L12.5113 6.58878C12.3566 6.27478 12.117 6.01037 11.8198 5.82548C11.5225 5.64058 11.1795 5.54259 10.8294 5.54259C10.4794 5.54259 10.1363 5.64058 9.83907 5.82548C9.54183 6.01037 9.30229 6.27478 9.14755 6.58878L6.97255 10.9969L2.10506 11.7038C1.75874 11.7541 1.43342 11.9003 1.16588 12.1259C0.89834 12.3514 0.699268 12.6474 0.591185 12.9802C0.483101 13.313 0.470319 13.6695 0.554285 14.0092C0.63825 14.3489 0.815612 14.6584 1.06631 14.9025L4.58756 18.3338L3.75693 23.1807C3.6981 23.5252 3.73676 23.8794 3.86854 24.2031C4.00033 24.5269 4.21999 24.8073 4.50273 25.0129C4.78548 25.2184 5.12005 25.3408 5.46867 25.3662C5.81729 25.3917 6.16609 25.3192 6.47568 25.1569L10.8294 22.8694L15.1794 25.1569C15.4891 25.3202 15.8384 25.3936 16.1876 25.3686C16.5369 25.3437 16.8722 25.2214 17.1555 25.0158C17.4389 24.8101 17.6589 24.5292 17.7909 24.2048C17.9228 23.8805 17.9613 23.5257 17.9019 23.1807L17.0713 18.3338L20.5926 14.9025C20.8427 14.6582 21.0196 14.3487 21.1031 14.0091C21.1867 13.6695 21.1736 13.3134 21.0654 12.9808C20.9571 12.6483 20.758 12.3526 20.4906 12.1273C20.2231 11.902 19.898 11.7559 19.5519 11.7057L19.5501 11.7038ZM49.2501 28.125H11.7501C10.2587 28.1265 8.82879 28.7196 7.77422 29.7742C6.71965 30.8288 6.12654 32.2586 6.12505 33.75V48.75C6.12654 50.2414 6.71965 51.6713 7.77422 52.7259C8.82879 53.7804 10.2587 54.3735 11.7501 54.375H24.0988L29.1744 59.4507C29.526 59.8022 30.0029 59.9996 30.5001 59.9996C30.9972 59.9996 31.4741 59.8022 31.8257 59.4507L36.9013 54.375H49.2501C50.7414 54.3735 52.1713 53.7804 53.2259 52.7259C54.2805 51.6713 54.8736 50.2414 54.8751 48.75V33.75C54.8736 32.2586 54.2805 30.8288 53.2259 29.7742C52.1713 28.7196 50.7414 28.1265 49.2501 28.125ZM45.5001 46.875H15.5001C15.0028 46.875 14.5259 46.6775 14.1742 46.3259C13.8226 45.9742 13.6251 45.4973 13.6251 45C13.6251 44.5028 13.8226 44.0258 14.1742 43.6742C14.5259 43.3226 15.0028 43.125 15.5001 43.125H45.5001C45.9973 43.125 46.4742 43.3226 46.8259 43.6742C47.1775 44.0258 47.3751 44.5028 47.3751 45C47.3751 45.4973 47.1775 45.9742 46.8259 46.3259C46.4742 46.6775 45.9973 46.875 45.5001 46.875ZM45.5001 39.375H15.5001C15.0028 39.375 14.5259 39.1775 14.1742 38.8259C13.8226 38.4742 13.6251 37.9973 13.6251 37.5C13.6251 37.0028 13.8226 36.5258 14.1742 36.1742C14.5259 35.8226 15.0028 35.625 15.5001 35.625H45.5001C45.9973 35.625 46.4742 35.8226 46.8259 36.1742C47.1775 36.5258 47.3751 37.0028 47.3751 37.5C47.3751 37.9973 47.1775 38.4742 46.8259 38.8259C46.4742 39.1775 45.9973 39.375 45.5001 39.375Z" fill="#767982"/>
</svg>
