<svg width="24" height="24" viewBox="0 0 24 24" fill="none" xmlns="http://www.w3.org/2000/svg">
<circle cx="12" cy="12" r="12" fill="#FDDA74"/>
<path d="M7.86913 10.4534C7.86081 11.5634 7.11093 12.4516 6.19841 12.4447C5.2859 12.4379 4.54942 11.5386 4.55774 10.4285C4.56606 9.31848 5.31593 8.43037 6.22844 8.43721C7.14096 8.44405 7.87745 9.34329 7.86913 10.4534Z" fill="#3C3C3B"/>
<path d="M3.51634 8.62385C3.45049 8.62335 3.38471 8.61344 3.31907 8.58473C3.05644 8.47927 2.93639 8.17733 3.04185 7.9147C3.358 7.15503 3.95511 6.56678 4.7195 6.25264C5.48389 5.9385 6.32116 5.94477 7.08076 6.27033C7.34339 6.37579 7.46341 6.67776 7.35796 6.94039C7.25251 7.20302 6.95056 7.32305 6.68793 7.21759C6.18148 7.00683 5.61705 7.0026 5.1169 7.20582C4.60729 7.41839 4.20921 7.81054 3.99844 8.31698C3.91229 8.5139 3.72323 8.63478 3.52568 8.6333L3.51634 8.62385Z" fill="#3C3C3B"/>
<path d="M17.8508 12.5395C18.7652 12.5463 19.5132 11.6547 19.5215 10.5481C19.5298 9.44144 18.7952 8.53879 17.8808 8.53194C16.9664 8.52509 16.2184 9.41662 16.2101 10.5233C16.2018 11.6299 16.9364 12.5326 17.8508 12.5395Z" fill="#3C3C3B"/>
<path d="M20.5893 8.75963C20.3918 8.75815 20.1952 8.63435 20.1214 8.43623C19.9182 7.92668 19.5261 7.52861 19.0197 7.30844C18.5133 7.09767 17.9583 7.0841 17.4487 7.29666C17.1845 7.39817 16.8844 7.27363 16.7829 7.00945C16.6719 6.7452 16.8059 6.44516 17.0701 6.34365C17.8344 6.03892 18.6717 6.04519 19.4313 6.36134C20.1909 6.6869 20.7792 7.28401 21.0839 8.04833C21.1948 8.31258 21.0608 8.61262 20.7967 8.71413C20.7306 8.74186 20.6647 8.75078 20.5988 8.75028L20.5893 8.75963Z" fill="#3C3C3B"/>
<path d="M16.313 18.4568C16.153 18.4556 16.0031 18.3792 15.9006 18.2467C15.0161 17.0171 13.6478 16.3107 12.1426 16.2994C10.6375 16.2881 9.25877 16.9739 8.35591 18.1902C8.18488 18.4147 7.8646 18.4688 7.64009 18.2977C7.41558 18.1267 7.36154 17.8064 7.53257 17.5819C8.616 16.1224 10.3441 15.2604 12.1503 15.274C13.9565 15.2875 15.6715 16.1753 16.733 17.6509C16.9006 17.8779 16.8511 18.2068 16.6147 18.365C16.5201 18.4301 16.4164 18.467 16.3129 18.4662L16.313 18.4568Z" fill="#3C3C3B"/>
<path d="M19.4745 23.1437C17.7248 23.1306 16.5433 21.353 17.2045 19.7398L19.5429 14.0185L21.7953 19.7742C22.4322 21.4066 21.2243 23.1568 19.4745 23.1437Z" fill="#4F90FC"/>
</svg>
