<svg width="20" height="20" viewBox="0 0 20 20" fill="none" xmlns="http://www.w3.org/2000/svg">
<g clip-path="url(#clip0_5518_4846)">
<path d="M19.9477 7.2613C19.8836 7.06345 19.7628 6.88879 19.6003 6.75901C19.4378 6.62923 19.2407 6.55005 19.0336 6.53129L13.2601 6.00714L10.9785 0.665246C10.81 0.272778 10.4267 0.0195312 10.0001 0.0195312C9.57341 0.0195312 9.18996 0.272778 9.02258 0.665246L6.74089 6.00714L0.966574 6.53129C0.543247 6.57035 0.184803 6.85707 0.0523786 7.2613C-0.0121484 7.45932 -0.0171677 7.67192 0.0379424 7.87277C0.0930526 8.07361 0.205871 8.25388 0.362423 8.39124L4.72668 12.218L3.4399 17.8856C3.34576 18.3023 3.50748 18.7333 3.85327 18.9832C4.03437 19.115 4.25262 19.1859 4.4766 19.1857C4.66858 19.1857 4.85697 19.1336 5.02165 19.0349L10.0001 16.0582L14.9776 19.0349C15.1561 19.1417 15.3621 19.1938 15.57 19.1846C15.7779 19.1754 15.9785 19.1054 16.1469 18.9832C16.4926 18.7333 16.6544 18.3023 16.5602 17.8856L15.2734 12.2181L19.6377 8.39128C19.7943 8.25393 19.9071 8.07367 19.9622 7.87282C20.0173 7.67196 20.0123 7.45936 19.9477 7.26134V7.2613Z" fill="#FDB805"/>
</g>
<defs>
<clipPath id="clip0_5518_4846">
<rect width="20" height="19.9613" fill="white"/>
</clipPath>
</defs>
</svg>
