<svg width="224" height="223" viewBox="0 0 224 223" fill="none" xmlns="http://www.w3.org/2000/svg">
<path d="M223.96 74.3333H0V83.625C0 88.5536 1.96666 93.2803 5.46734 96.7654C8.96802 100.25 13.716 102.208 18.6667 102.208H46.6667C51.6174 102.208 56.3653 100.25 59.866 96.7654C63.3667 93.2803 65.3333 88.5536 65.3333 83.625C65.3333 88.5536 67.3 93.2803 70.8007 96.7654C74.3013 100.25 79.0493 102.208 84 102.208H140C144.951 102.208 149.699 100.25 153.199 96.7654C156.7 93.2803 158.667 88.5536 158.667 83.625C158.667 88.5536 160.633 93.2803 164.134 96.7654C167.635 100.25 172.383 102.208 177.333 102.208H205.333C210.284 102.208 215.032 100.25 218.533 96.7654C222.033 93.2803 224 88.5536 224 83.625V74.3333H223.96ZM221.706 65.0417L204.974 6.73646C204.416 4.79549 203.239 3.08814 201.62 1.87271C200.001 0.657275 198.028 -0.000112581 196 1.44613e-08H153.251L166.318 65.0417H221.706ZM70.749 1.44613e-08H28C25.9721 -0.000112581 23.9994 0.657275 22.3803 1.87271C20.7611 3.08814 19.5837 4.79549 19.026 6.73646L2.29367 65.0417H57.6823L70.749 1.44613e-08ZM134.216 1.44613e-08H89.7843L76.7177 65.0417H147.282L134.216 1.44613e-08ZM177.333 111.5C170.442 111.506 163.792 108.971 158.667 104.385C153.541 108.971 146.892 111.506 140 111.5H84C77.1085 111.506 70.4589 108.971 65.3333 104.385C60.2078 108.971 53.5582 111.506 46.6667 111.5H18.6667C15.485 111.493 12.3281 110.943 9.33333 109.874V213.708C9.33333 216.173 10.3167 218.536 12.067 220.279C13.8173 222.021 16.1913 223 18.6667 223H37.3333V139.375C37.3333 136.911 38.3167 134.547 40.067 132.805C41.8173 131.062 44.1913 130.083 46.6667 130.083H93.3333C95.8087 130.083 98.1827 131.062 99.933 132.805C101.683 134.547 102.667 136.911 102.667 139.375V223H205.333C207.809 223 210.183 222.021 211.933 220.279C213.683 218.536 214.667 216.173 214.667 213.708V109.874C211.672 110.943 208.515 111.493 205.333 111.5H177.333ZM186.667 167.25C186.667 169.714 185.683 172.078 183.933 173.82C182.183 175.563 179.809 176.542 177.333 176.542H130.667C128.191 176.542 125.817 175.563 124.067 173.82C122.317 172.078 121.333 169.714 121.333 167.25V139.375C121.333 136.911 122.317 134.547 124.067 132.805C125.817 131.062 128.191 130.083 130.667 130.083H177.333C179.809 130.083 182.183 131.062 183.933 132.805C185.683 134.547 186.667 136.911 186.667 139.375V167.25Z" fill="#D3F0FF"/>
</svg>
