<svg width="22" height="22" viewBox="0 0 22 22" fill="none" xmlns="http://www.w3.org/2000/svg">
<path d="M8.39106 0.941772C5.67359 0.941772 3.4628 3.28583 3.4628 6.16704C3.4628 9.04824 5.67359 11.3923 8.39106 11.3923C11.1085 11.3923 13.3194 9.04824 13.3194 6.16704C13.3194 3.28583 11.1086 0.941772 8.39106 0.941772ZM16.5661 20.4713C16.4169 18.0671 15.1982 15.9525 13.3794 14.5972C12.0563 13.6111 10.4152 13.0273 8.63749 13.0273H8.14495C3.7569 13.0273 0.199951 16.5842 0.199951 20.9723V21.9152H16.582V20.9723C16.582 20.8041 16.5767 20.6369 16.5661 20.4713Z" fill="#FDB805"/>
<g clip-path="url(#clip0_4385_829)">
<path d="M21.6008 5.21165L18.565 2.17583C18.4418 2.05433 18.2731 1.97839 18.0874 1.97839H15.7249C15.352 1.97839 15.0499 2.28045 15.0499 2.6534V5.01591C15.0499 5.20322 15.1259 5.37197 15.2491 5.49348L18.2866 8.53099C18.4081 8.65249 18.5768 8.72843 18.7624 8.72843C18.9481 8.72843 19.1185 8.65249 19.24 8.53099L21.6025 6.16848C21.724 6.04529 21.8 5.87655 21.8 5.69091C21.8 5.5036 21.724 5.33484 21.6008 5.21165ZM16.2312 3.66591C15.9511 3.66591 15.7249 3.43979 15.7249 3.15965C15.7249 2.87952 15.9511 2.6534 16.2312 2.6534C16.5113 2.6534 16.7374 2.87952 16.7374 3.15965C16.7374 3.43979 16.5113 3.66591 16.2312 3.66591Z" fill="#FDB805"/>
</g>
<defs>
<clipPath id="clip0_4385_829">
<rect width="6.75003" height="6.75003" fill="white" transform="translate(15.0499 1.97839)"/>
</clipPath>
</defs>
</svg>
