<svg width="24" height="25" viewBox="0 0 24 25" fill="none" xmlns="http://www.w3.org/2000/svg">
<path fill-rule="evenodd" clip-rule="evenodd" d="M12.0001 24.7068C18.6277 24.7068 24 19.3345 24 12.7069C24 6.07939 18.6277 0.707031 12.0001 0.707031C5.3726 0.707031 0.000244141 6.07939 0.000244141 12.7069C0.000244141 19.3345 5.3726 24.7068 12.0001 24.7068ZM12.0001 7.00698C12.2388 7.00698 12.4678 7.1018 12.6365 7.27058C12.8053 7.43936 12.9001 7.66828 12.9001 7.90697V12.3349L15.6361 15.0709C15.7245 15.1533 15.7955 15.2527 15.8447 15.3631C15.8938 15.4735 15.9203 15.5926 15.9224 15.7135C15.9246 15.8343 15.9023 15.9544 15.8571 16.0664C15.8118 16.1785 15.7444 16.2803 15.659 16.3657C15.5735 16.4512 15.4717 16.5186 15.3596 16.5639C15.2476 16.6091 15.1275 16.6313 15.0067 16.6292C14.8859 16.6271 14.7667 16.6006 14.6563 16.5514C14.5459 16.5023 14.4465 16.4313 14.3641 16.3429L11.3642 13.3429C11.1953 13.1743 11.1004 12.9455 11.1002 12.7069V7.90697C11.1002 7.66828 11.195 7.43936 11.3638 7.27058C11.5325 7.1018 11.7615 7.00698 12.0001 7.00698Z" fill="url(#paint0_linear_4385_808)"/>
<defs>
<linearGradient id="paint0_linear_4385_808" x1="12.0001" y1="0.707031" x2="12.0001" y2="24.7068" gradientUnits="userSpaceOnUse">
<stop stop-color="#64D380"/>
<stop offset="1" stop-color="#489B5C"/>
</linearGradient>
</defs>
</svg>
