<svg width="27" height="27" viewBox="0 0 27 27" fill="none" xmlns="http://www.w3.org/2000/svg">
<g clip-path="url(#clip0_2996_72003)">
<path d="M14.4029 13.0388L20.4789 21.7296H17.9853L13.0272 14.6379V14.6374L12.2992 13.5964L6.50732 5.31152H9.00092L13.675 11.9977L14.4029 13.0388Z" fill="#151515"/>
<path d="M24.0826 0H2.91741C1.30621 0 0 1.30621 0 2.91741V24.0826C0 25.6938 1.30621 27 2.91741 27H24.0826C25.6938 27 27 25.6938 27 24.0826V2.91741C27 1.30621 25.6938 0 24.0826 0ZM17.2215 22.8965L12.2041 15.5944L5.9224 22.8965H4.29888L11.4833 14.5457L4.29888 4.08961H9.77853L14.5296 11.0042L20.478 4.08961H22.1015L15.2507 12.0532H15.2503L22.7011 22.8965H17.2215Z" fill="#151515"/>
</g>
<defs>
<clipPath id="clip0_2996_72003">
<rect width="27" height="27" fill="white"/>
</clipPath>
</defs>
</svg>
