<svg width="30" height="25" viewBox="0 0 30 25" fill="none" xmlns="http://www.w3.org/2000/svg">
<path d="M11.1921 24.5533C9.8948 24.5533 8.55946 24.4482 7.21614 24.2376C4.8502 23.8664 2.45519 22.6288 1.77749 22.2583L0 21.2865L1.92445 20.6536C4.02807 19.9619 5.30775 19.5327 6.89183 18.8608C5.3057 18.0926 4.08327 16.7109 3.49481 14.9247L3.0471 13.5656L3.41424 13.6217C3.10198 13.3067 2.82189 12.9613 2.57811 12.5908C1.82027 11.4397 1.41908 10.0332 1.50445 8.82796L1.58865 7.64167L2.29886 7.91677C1.99841 7.3499 1.7817 6.74247 1.6555 6.11343C1.34537 4.5689 1.60494 2.9281 2.38651 1.49319L3.00526 0.357529L3.8326 1.35128C6.44939 4.49478 9.76385 6.35946 13.6976 6.90538C13.5369 5.79778 13.6573 4.72892 14.0558 3.77079C14.5198 2.65522 15.3451 1.70929 16.4419 1.03505C17.66 0.286338 19.1372 -0.0764747 20.6014 0.0134667C22.1547 0.108974 23.5651 0.690986 24.6853 1.69786C25.2323 1.55571 25.6354 1.40395 26.1801 1.19888C26.5078 1.07548 26.8795 0.935439 27.3447 0.775244L29.0585 0.184678L27.9408 3.37669C28.0171 3.37018 28.0935 3.36521 28.1699 3.36181L30.0001 3.27895L28.9184 4.75728C28.8564 4.842 28.8406 4.86603 28.8186 4.89919C28.7314 5.03056 28.6229 5.19403 27.1382 7.17655C26.7665 7.67302 26.5808 8.3196 26.6154 8.99759C26.747 11.5738 26.431 13.9048 25.6754 15.9254C24.9608 17.837 23.8535 19.4771 22.3845 20.8004C20.5668 22.4373 18.2489 23.5581 15.495 24.1312C14.1442 24.4123 12.6935 24.5533 11.1921 24.5533Z" fill="#26A7DE"/>
</svg>
