<svg width="37" height="40" viewBox="0 0 37 40" fill="none" xmlns="http://www.w3.org/2000/svg">
<path d="M27.7613 17.3156V9.74576C27.7613 9.52912 27.6613 9.32889 27.5197 9.17053L19.0327 0.258515C18.8742 0.0918748 18.6491 0 18.4241 0H4.96844C2.48422 0 0.5 2.02578 0.5 4.51015V29.9542C0.5 32.4385 2.48422 34.4311 4.96836 34.4311H15.5897C17.5987 37.7657 21.2504 39.9999 25.4103 39.9999C31.7295 39.9999 36.8901 34.8645 36.8901 28.5369C36.8987 23.0096 32.9301 18.3911 27.7613 17.3157V17.3156ZM19.258 2.9264L24.9519 8.92037H21.2587C20.1582 8.92037 19.2579 8.01178 19.2579 6.91139L19.258 2.9264ZM4.96836 32.7636C3.40953 32.7636 2.1675 31.513 2.1675 29.9542V4.51015C2.1675 2.94281 3.40953 1.6675 4.96836 1.6675H17.5905V6.91124C17.5905 8.93701 19.2329 10.5878 21.2587 10.5878H26.0938V17.0987C25.8439 17.0904 25.6438 17.0654 25.427 17.0654C22.5175 17.0654 19.8414 18.1826 17.8239 19.9334H7.23617C6.7775 19.9334 6.40242 20.3085 6.40242 20.7668C6.40242 21.2256 6.77742 21.6006 7.23617 21.6006H16.2733C15.6812 22.4343 15.1893 23.2681 14.8061 24.1851H7.23609C6.77742 24.1851 6.40234 24.5602 6.40234 25.0189C6.40234 25.4772 6.77734 25.8526 7.23609 25.8526H14.264C14.0555 26.6864 13.9472 27.6117 13.9472 28.537C13.9472 30.0374 14.2389 31.5216 14.7641 32.7721H4.96836V32.7636ZM25.4188 38.3409C20.0166 38.3409 15.623 33.9474 15.623 28.5452C15.623 23.1429 20.0081 18.7493 25.4188 18.7493C30.8293 18.7493 35.2144 23.1429 35.2144 28.5452C35.2144 33.9474 30.821 38.3409 25.4188 38.3409Z" fill="#05AAFD"/>
<path d="M7.23615 17.424H15.6812C16.1399 17.424 16.515 17.0486 16.515 16.5902C16.515 16.1316 16.14 15.7565 15.6812 15.7565H7.23615C6.77748 15.7565 6.4024 16.1315 6.4024 16.5902C6.4024 17.0486 6.7774 17.424 7.23615 17.424ZM26.0105 22.3925C25.8522 22.2259 25.6355 22.1258 25.402 22.1258C25.1686 22.1258 24.9519 22.2259 24.7935 22.3925L19.908 27.6364C19.5912 27.9699 19.6162 28.5034 19.9497 28.8119C20.2833 29.1287 20.825 29.1036 21.1418 28.7704L24.5933 25.0771V34.1809C24.5933 34.6395 24.9683 35.0145 25.427 35.0145C25.8855 35.0145 26.2608 34.6395 26.2608 34.1809V25.0771L29.687 28.7704C29.8539 28.9453 30.0706 29.0371 30.2958 29.0371C30.4957 29.0371 30.6958 28.9621 30.8626 28.8119C31.1962 28.4951 31.2212 27.9699 30.9044 27.6364L26.0105 22.3925Z" fill="#05AAFD"/>
</svg>
