<svg width="61" height="60" viewBox="0 0 61 60" fill="none" xmlns="http://www.w3.org/2000/svg">
<path d="M51.7152 8.78644C39.9993 -2.92816 21.0037 -2.92947 9.28644 8.78644C-2.42947 20.5023 -2.42816 39.498 9.28644 51.2152C21.0023 62.9285 39.998 62.9298 51.7152 51.2152C63.4298 39.498 63.4285 20.5037 51.7152 8.78644ZM34.4126 43.0446C34.4126 44.0824 34.0004 45.0777 33.2665 45.8116C32.5327 46.5454 31.5373 46.9577 30.4995 46.9577C29.4617 46.9577 28.4664 46.5454 27.7325 45.8116C26.9987 45.0777 26.5864 44.0824 26.5864 43.0446V27.3921C26.5864 26.3542 26.9987 25.3589 27.7325 24.6251C28.4664 23.8912 29.4617 23.4789 30.4995 23.4789C31.5373 23.4789 32.5327 23.8912 33.2665 24.6251C34.0004 25.3589 34.4126 26.3542 34.4126 27.3921V43.0446ZM30.4304 20.7032C28.1764 20.7032 26.6738 19.1067 26.7207 17.1358C26.6738 15.0696 28.1764 13.5213 30.476 13.5213C32.777 13.5213 34.2326 15.0709 34.2809 17.1358C34.2796 19.1067 32.7783 20.7032 30.4304 20.7032Z" fill="#FF5E5E"/>
</svg>
