<svg width="30" height="30" viewBox="0 0 30 30" fill="none" xmlns="http://www.w3.org/2000/svg">
<path d="M28.2364 19.8867C24.6152 27.4804 19.043 29.1211 15 29.1211C10.4472 29.1211 6.15815 26.8477 3.52143 23.1387C0.867252 19.3945 0.234323 14.6484 1.76362 10.1132L2.04493 9.5332C4.1894 4.41791 9.39258 0.878906 15 0.878906C19.5528 0.878906 23.8419 3.15234 26.4786 6.86133C29.1328 10.6055 29.7657 15.3516 28.2364 19.8867Z" fill="#65B1FC"/>
<path d="M27.1992 6.3515C24.3868 2.414 19.834 0 15 0C8.9707 0 3.45117 3.78516 1.18359 9.35736L0.884705 9.97266C-0.72926 14.8873 -0.100842 19.5424 2.80078 23.6484C5.61322 27.5859 10.166 30 15 30C20.959 30 26.4082 26.3027 28.7461 20.8535L29.0097 20.3261C30.7667 15.327 30.1512 10.5245 27.1992 6.3515ZM4.24219 22.6288C1.74615 19.1132 1.16601 14.666 2.60742 10.3945L2.83594 9.91986C4.25976 6.50971 7.08984 3.86719 10.4648 2.6015C8.33789 5.37891 7.05463 10.7812 7.21289 12.539C7.19531 12.5918 7.17767 12.6445 7.17767 12.7148C6.72064 18.6035 8.05658 24.2871 10.5703 27.4687C8.05664 26.5546 5.82428 24.8613 4.24219 22.6288ZM14.1211 28.0839C13.5059 27.873 12.8906 27.4102 12.3105 26.7949C9.84961 24.1406 8.49609 18.5332 8.93555 12.8554V12.6973C8.93555 12.6445 8.95312 12.5742 8.95312 12.5214C9.46283 7.05463 11.6074 2.74219 14.1211 1.91596V28.0839ZM15.8789 28.0663V1.91596C18.5859 2.81244 20.8536 7.79291 21.1171 13.7343C21.3632 19.2187 19.9922 24.3691 17.6191 26.8652C17.0566 27.4453 16.4766 27.873 15.8789 28.0663ZM27.3926 19.6055C25.4238 23.7539 22.6465 26.3085 19.4297 27.4512C21.7852 24.4805 23.1211 19.1836 22.8749 13.6641C22.664 8.98822 21.3456 4.95709 19.4297 2.53125C21.9434 3.44525 24.1757 5.13867 25.7578 7.37104C28.2538 10.8867 28.834 15.334 27.3926 19.6055Z" fill="#96EBE6"/>
<path d="M27.3047 8.84766H2.69531C1.23627 8.84766 0 10.0253 0 11.4844V18.5156C0 19.9746 1.23627 21.1523 2.69531 21.1523H27.3047C28.7637 21.1523 30 19.9746 30 18.5156V11.4844C30 10.0253 28.7637 8.84766 27.3047 8.84766Z" fill="#0053BF"/>
<path d="M19.3067 13.629L17.5489 17.1446C17.3906 17.4435 17.0918 17.6368 16.7578 17.6368C16.4239 17.6368 16.125 17.4435 15.9668 17.1446L15 15.211L14.0332 17.1446C13.7345 17.7423 12.75 17.7423 12.4511 17.1446L10.6933 13.629C10.4824 13.2071 10.6582 12.6798 11.0977 12.4513C11.5196 12.2403 12.0468 12.4161 12.2754 12.8555L13.2422 14.7892L14.209 12.8555C14.3673 12.5568 14.6837 12.3985 15 12.3985C15.3164 12.3985 15.6328 12.5568 15.791 12.8555L16.7578 14.7892L17.7246 12.8555C17.9531 12.4161 18.4805 12.2403 18.9023 12.4513C19.3418 12.6798 19.5176 13.2071 19.3067 13.629Z" fill="#E1F1FA"/>
<path d="M25.5469 17.6371C25.3836 17.637 25.2236 17.5916 25.0848 17.5058C24.9459 17.42 24.8337 17.2972 24.7607 17.1513L23.789 15.208L22.8174 17.1513C22.5187 17.7469 21.5437 17.7469 21.245 17.1513L19.561 13.7824C19.4521 13.6485 19.3816 13.4829 19.3696 13.3009C19.3387 12.8168 19.6795 12.4005 20.1635 12.3688C20.5309 12.3602 20.9017 12.5336 21.0596 12.8494L22.0312 14.7926L23.0028 12.8494C23.3016 12.2538 24.2765 12.2538 24.5753 12.8494L25.5469 14.7926L26.5185 12.8494C26.7365 12.4142 27.2643 12.2417 27.6978 12.4563C28.1321 12.6735 28.308 13.2013 28.0909 13.6356L26.3331 17.1513C26.26 17.2972 26.1478 17.42 26.0089 17.5058C25.8701 17.5916 25.7101 17.637 25.5469 17.6371Z" fill="white"/>
<path d="M9.78319 12.3653C9.43731 12.3619 9.09828 12.5335 8.94032 12.8494L7.96871 14.7926L6.99711 12.8494C6.68053 12.2184 5.73782 12.2232 5.42469 12.8494L4.45309 14.7926L3.48149 12.8494C3.26346 12.4142 2.73477 12.2417 2.30217 12.4563C1.86787 12.6735 1.69192 13.2013 1.90907 13.6356L3.66688 17.1513C3.81623 17.4491 4.12004 17.6371 4.45309 17.6371C4.78614 17.6371 5.08995 17.4491 5.2393 17.1513L6.2109 15.208L7.1825 17.1513C7.33186 17.4491 7.63567 17.6371 7.96871 17.6371C8.30176 17.6371 8.60557 17.4491 8.75493 17.1513L10.4106 13.8399C10.5359 13.6974 10.6166 13.5094 10.6303 13.3009C10.6612 12.8168 10.2673 12.3971 9.78319 12.3653Z" fill="#E1F1FA"/>
</svg>
