<svg width="24" height="24" viewBox="0 0 24 24" fill="none" xmlns="http://www.w3.org/2000/svg">
<path d="M10.6427 2.67973L7.73659 5.89512L3.9095 3.60861H2.36328L4.3416 12.591C4.3416 12.9793 4.65775 13.2942 5.04772 13.2942H19.1702C19.5601 13.2942 19.8763 12.9793 19.8763 12.591L21.8546 3.60861H20.3084L16.4813 5.89508L13.5751 2.67969L10.6427 2.67973Z" fill="#FFF68E"/>
<path d="M20.3088 3.60861L16.4817 5.89508L13.5756 2.67969H12.1094V13.2941H19.1706C19.5606 13.2941 19.8767 12.9793 19.8767 12.591L21.855 3.60861H20.3088Z" fill="#FFCD00"/>
<path d="M4.34375 12.5938H19.8784V16.6895H4.34375V12.5938Z" fill="#FFCD00"/>
<path d="M12.1094 12.5938H19.8767V16.6895H12.1094V12.5938Z" fill="#FF9F00"/>
<path d="M12.1085 10.3125C12.4984 10.3125 12.8146 9.9977 12.8146 9.60938C12.8146 9.22105 12.4984 8.90625 12.1085 8.90625C11.7185 8.90625 11.4023 9.22105 11.4023 9.60938C11.4023 9.9977 11.7185 10.3125 12.1085 10.3125Z" fill="#FF3C7D"/>
<path d="M12.8155 9.60938C12.8155 9.22106 12.4993 8.90625 12.1094 8.90625V10.3125C12.4993 10.3125 12.8155 9.99769 12.8155 9.60938Z" fill="#E50058"/>
<path d="M9.28815 10.3125C9.67813 10.3125 9.99427 9.9977 9.99427 9.60938C9.99427 9.22105 9.67813 8.90625 9.28815 8.90625C8.89817 8.90625 8.58203 9.22105 8.58203 9.60938C8.58203 9.9977 8.89817 10.3125 9.28815 10.3125Z" fill="#FF3C7D"/>
<path d="M14.9366 10.3125C15.3266 10.3125 15.6427 9.9977 15.6427 9.60938C15.6427 9.22105 15.3266 8.90625 14.9366 8.90625C14.5466 8.90625 14.2305 9.22105 14.2305 9.60938C14.2305 9.9977 14.5466 10.3125 14.9366 10.3125Z" fill="#E50058"/>
<path d="M22.0425 24H2.17696C1.00889 24 0.0585938 23.0537 0.0585938 21.8906V17.6719C0.0585938 16.5088 1.00889 15.5625 2.17696 15.5625H22.0425C23.2106 15.5625 24.1609 16.5088 24.1609 17.6719V21.8906C24.1609 23.0537 23.2106 24 22.0425 24Z" fill="#FF3C7D"/>
<path d="M22.0422 15.5625H12.1094V24H22.0422C23.2102 24 24.1605 23.0537 24.1605 21.8906V17.6719C24.1605 16.5088 23.2102 15.5625 22.0422 15.5625Z" fill="#E50058"/>
<path d="M12.1108 4.21875C10.9427 4.21875 9.99243 3.27248 9.99243 2.10938C9.99243 0.946266 10.9427 0 12.1108 0C13.2789 0 14.2292 0.946266 14.2292 2.10938C14.2292 3.27248 13.2789 4.21875 12.1108 4.21875Z" fill="#FFCD00"/>
<path d="M14.2275 2.10938C14.2275 0.946266 13.2772 0 12.1091 0V4.21875C13.2772 4.21875 14.2275 3.27248 14.2275 2.10938ZM21.0533 6.09375C19.8853 6.09375 18.935 5.14748 18.935 3.98438C18.935 2.82127 19.8853 1.875 21.0533 1.875C22.2214 1.875 23.1717 2.82127 23.1717 3.98438C23.1717 5.14748 22.2214 6.09375 21.0533 6.09375Z" fill="#FF9F00"/>
<path d="M3.16524 6.09375C1.99717 6.09375 1.04688 5.14748 1.04688 3.98438C1.04688 2.82127 1.99717 1.875 3.16524 1.875C4.33331 1.875 5.28361 2.82127 5.28361 3.98438C5.28361 5.14748 4.33331 6.09375 3.16524 6.09375Z" fill="#FFCD00"/>
<path d="M7.88274 17.676C7.62279 17.676 7.41199 17.8859 7.41199 18.1447V21.426C7.41199 21.6848 7.62279 21.8947 7.88274 21.8947C8.14269 21.8947 8.35349 21.6848 8.35349 21.426V18.1447C8.35349 17.8858 8.14274 17.676 7.88274 17.676ZM6.56239 17.691C6.30743 17.6406 6.05953 17.8053 6.00879 18.0592L5.67239 19.7424L5.13536 18.0067C5.05877 17.7593 4.79534 17.6204 4.54688 17.6967C4.37976 17.748 4.26241 17.8836 4.22649 18.0421L3.69784 19.7428L3.36229 18.0537C3.31187 17.7998 3.06421 17.6343 2.80916 17.6849C2.55411 17.7351 2.38827 17.9817 2.43873 18.2357L3.08078 21.4676C3.08521 21.49 3.09128 21.512 3.09895 21.5335C3.13668 21.6391 3.2063 21.7305 3.29827 21.7952C3.39024 21.8599 3.50005 21.8946 3.61263 21.8947H3.61621C3.73165 21.8938 3.84386 21.8566 3.93668 21.7882C4.0295 21.7199 4.09815 21.6239 4.13276 21.5143L4.68542 19.7364L5.23558 21.5147C5.27046 21.6248 5.33966 21.721 5.43315 21.7893C5.52664 21.8576 5.63956 21.8945 5.75553 21.8946H5.75929C5.87247 21.8938 5.98259 21.8579 6.07438 21.792C6.16617 21.726 6.2351 21.6333 6.27161 21.5266C6.27829 21.5072 6.28361 21.4873 6.28766 21.4671L6.93225 18.2421C6.98295 17.9883 6.81734 17.7415 6.56239 17.691ZM11.5734 17.676H11.5687C11.3088 17.6785 11.1001 17.8904 11.1026 18.1493L11.1202 19.9577L9.68236 17.8845C9.62532 17.8022 9.54337 17.7403 9.44849 17.7077C9.3536 17.6751 9.25074 17.6736 9.15492 17.7034C9.0591 17.7331 8.97533 17.7926 8.91585 17.8731C8.85637 17.9536 8.82429 18.0509 8.82428 18.1509V21.426C8.82428 21.6848 9.03508 21.8947 9.29503 21.8947C9.55498 21.8947 9.76578 21.6848 9.76578 21.426V19.6546L11.1317 21.6241C11.2677 21.8197 11.4955 21.9025 11.7119 21.8353C11.9324 21.7667 12.0749 21.5627 12.0749 21.3109L12.0441 18.1402C12.0415 17.8828 11.8313 17.676 11.5734 17.676Z" fill="#FFF5F5"/>
<path d="M15.296 17.6758H15.2913C15.0314 17.6783 14.8227 17.8902 14.8252 18.1491L14.8428 19.9575L13.405 17.8843C13.3479 17.802 13.266 17.7401 13.1711 17.7075C13.0762 17.675 12.9733 17.6734 12.8775 17.7032C12.7817 17.7329 12.6979 17.7924 12.6384 17.8729C12.579 17.9534 12.5469 18.0507 12.5469 18.1507V21.4258C12.5469 21.6846 12.7577 21.8945 13.0176 21.8945C13.2776 21.8945 13.4884 21.6846 13.4884 21.4258V19.6543L14.8543 21.6239C14.9903 21.8195 15.2182 21.9024 15.4346 21.8351C15.655 21.7666 15.7975 21.5625 15.7975 21.3107L15.7667 18.14C15.7642 17.8826 15.5539 17.6758 15.296 17.6758ZM18.1274 18.6133C18.3874 18.6133 18.5982 18.4034 18.5982 18.1445C18.5982 17.8857 18.3874 17.6758 18.1274 17.6758H16.739C16.479 17.6758 16.2682 17.8857 16.2682 18.1445V21.4258C16.2682 21.6846 16.479 21.8945 16.739 21.8945H18.1274C18.3874 21.8945 18.5982 21.6846 18.5982 21.4258C18.5982 21.1669 18.3874 20.957 18.1274 20.957H17.2097V20.2539H18.0251C18.285 20.2539 18.4958 20.044 18.4958 19.7852C18.4958 19.5263 18.285 19.3164 18.0251 19.3164H17.2097V18.6133H18.1274ZM20.8964 20.2356C21.4189 20.0481 21.792 19.5638 21.792 18.9973C21.792 18.2686 21.175 17.6758 20.4164 17.6758H19.5397C19.2797 17.6758 19.0689 17.8857 19.0689 18.1445V21.4258C19.0689 21.6846 19.2797 21.8945 19.5397 21.8945C19.7996 21.8945 20.0104 21.6846 20.0104 21.4258V20.6522L20.9679 21.7355C21.012 21.7856 21.0664 21.8257 21.1274 21.8531C21.1884 21.8805 21.2546 21.8947 21.3215 21.8946C21.4359 21.8947 21.5465 21.8531 21.6323 21.7777C21.8275 21.6067 21.8465 21.3105 21.6747 21.1162L20.8964 20.2356ZM20.4164 18.6133C20.6517 18.6133 20.8505 18.7892 20.8505 18.9973C20.8505 19.2054 20.6517 19.3813 20.4164 19.3813C20.3212 19.3813 20.1672 19.3819 20.015 19.3825C20.0143 19.2356 20.0134 18.7675 20.0129 18.6132H20.4164V18.6133Z" fill="#D8F1FB"/>
</svg>
