<svg width="20" height="20" viewBox="0 0 20 20" fill="none" xmlns="http://www.w3.org/2000/svg">
<g clip-path="url(#clip0_5049_206071)">
<path d="M14.8051 18.3217C10.2101 20.9746 4.33466 19.4002 1.68177 14.8053C-0.97112 10.2104 0.603178 4.33483 5.19814 1.68198C9.7931 -0.970871 15.6685 0.603465 18.3214 5.19835C20.9743 9.79323 19.4 15.6688 14.8051 18.3217Z" fill="#78D2FA"/>
<path d="M10.6796 7.1269C10.6105 7.14311 10.4765 7.17714 10.4186 7.22362C10.3462 7.28163 10.4593 7.35706 10.418 7.3901C10.3467 7.44714 10.295 7.55057 10.1424 7.54081C9.82358 7.52046 9.33358 7.10803 9.04221 6.95214C9.5119 6.46878 8.76881 6.39636 8.4792 6.42057C8.10416 6.45194 7.45514 6.41811 7.11635 6.60885C6.88123 6.74124 6.56522 7.29069 6.3758 7.50893C6.11213 7.81268 5.84682 8.07639 5.67502 8.44007C5.04475 9.77417 6.01483 11.3058 7.53944 11.1266C7.96272 11.0769 8.40674 10.8108 8.7819 11.1619C9.05834 11.4207 8.91205 11.6643 8.98533 11.9661C9.04877 12.2273 9.33795 12.3879 9.43803 12.6278C9.62994 13.0875 9.50842 13.3751 9.37143 13.7991C9.19166 14.3556 9.65655 15.0162 9.83748 15.5532C9.92858 15.8236 10.1941 16.5808 10.4547 16.6993C10.8646 16.8856 11.507 16.3268 11.7517 16.0263C11.943 15.7913 11.8806 15.5526 12.0091 15.3326C12.1482 15.0946 12.3242 15.0231 12.4217 14.7161C12.5267 14.3853 12.6358 14.303 12.8577 14.0615C13.2148 13.6729 13.1594 13.4457 13.0166 12.9849C12.7199 12.0276 13.7975 11.5801 14.2829 10.8774C14.7898 10.1437 13.81 10.3883 13.426 10.1373C13.0312 9.87925 12.8587 9.38882 12.6685 8.98225C12.4781 8.57565 12.3207 7.96464 12.0056 7.63065C11.7628 7.3735 11.0244 7.25421 10.6796 7.1269ZM15.6387 13.5485L15.1792 15.097C15.0722 15.4579 14.6936 16.6383 14.1625 15.8822C13.9606 15.5949 14.1248 15.2183 14.2374 14.9539C14.3795 14.6203 14.1875 14.4524 14.2866 14.1366C14.4002 13.7746 14.8675 13.7622 15.0887 13.5076C15.2429 13.3301 15.338 13.0478 15.4507 12.84C15.5134 13.0762 15.5761 13.3123 15.6387 13.5485Z" fill="#A5DC69"/>
<path d="M18.3217 5.19831C16.667 2.33233 13.7585 0.64167 10.6891 0.418701L9.43279 1.99464L6.74018 2.93862L6.01783 4.68972L7.13209 6.25062L7.25053 5.92062C7.34704 5.65172 7.52423 5.41918 7.75788 5.25479C7.99154 5.0904 8.27026 5.00218 8.55596 5.00218H10.3924L12.5033 5.74398L13.2304 6.43804V6.8789L14.2412 8.81511L14.5356 8.70655C15.1712 8.47217 15.7484 8.10273 16.2274 7.6237L15.9834 7.25761C15.9058 7.1412 15.9892 6.9853 16.1291 6.9853H16.7182C16.8907 6.9853 17.0545 7.06085 17.1665 7.19202L17.6478 7.75542C17.6936 7.8091 17.7294 7.87057 17.7536 7.9369L18.2846 9.39718L18.5374 9.1444C18.6967 8.98499 18.7774 8.76784 18.7812 8.54245C18.7827 8.45273 18.8028 8.3643 18.8401 8.28272C18.8775 8.20114 18.9314 8.12819 18.9983 8.06847L19.1919 7.89581C19.24 7.85294 19.2942 7.81744 19.3527 7.79046C19.1423 6.90237 18.8015 6.02937 18.3217 5.19831ZM3.94951 5.57358L4.409 5.0812C4.57307 4.90539 4.68318 4.68614 4.72624 4.44955C4.76929 4.21295 4.74347 3.96897 4.65186 3.74663C4.45404 3.26655 4.02033 2.9553 3.54025 2.89093C1.84338 4.42991 0.78834 6.49901 0.484824 8.69069C0.843574 9.00429 1.219 9.33999 1.21686 9.36956C1.21271 9.42616 2.56096 9.20011 2.56096 9.20011L1.86689 8.18194L2.86365 7.46925L3.94951 5.57358ZM4.88381 15.146C5.31693 15.0053 5.55396 14.5401 5.41326 14.107L5.28955 13.7262C5.23549 13.5598 5.23575 13.3806 5.29029 13.2144C5.44486 12.7432 5.15158 12.2432 4.66494 12.1481L3.69412 11.9583L1.92072 10.61L0.45459 11.0863C0.598574 12.3596 1.00041 13.6246 1.68197 14.8052C2.31236 15.8971 3.12494 16.8179 4.05877 17.5525L4.49564 15.2721L4.88381 15.146Z" fill="#A5DC69"/>
<path d="M14.6091 17.9839L14.594 17.9926C14.4075 18.1009 14.344 18.3399 14.4522 18.5265C14.4779 18.5709 14.5122 18.6097 14.5529 18.6409C14.5937 18.672 14.6402 18.6948 14.6897 18.708C14.7393 18.7212 14.791 18.7244 14.8419 18.7176C14.8927 18.7108 14.9417 18.694 14.9861 18.6683L15.0011 18.6596C15.1877 18.5514 15.2511 18.3123 15.1429 18.1257C15.0347 17.9393 14.7957 17.8757 14.6091 17.9839Z" fill="black"/>
<path d="M18.6599 5.00309C17.3247 2.69039 15.1688 1.03614 12.5893 0.344963C10.0099 -0.346209 7.31573 0.0085181 5.00303 1.34371C2.69034 2.67891 1.03608 4.83485 0.344946 7.41426C-0.346187 9.99367 0.00850067 12.6879 1.3437 15.0006C2.54139 17.0751 4.44498 18.6517 6.70381 19.4399C7.76614 19.8106 8.88325 19.9999 10.0084 19.9999C11.2219 19.9999 12.4332 19.7794 13.5781 19.3393C13.7795 19.2619 13.8799 19.0359 13.8025 18.8346C13.7251 18.6332 13.4991 18.5326 13.2978 18.6102C10.2501 19.7815 6.95084 19.2493 4.48588 17.3991L4.83584 15.5723L5.00448 15.5175C5.6417 15.3105 5.9917 14.6236 5.78475 13.9864L5.661 13.6055C5.63238 13.518 5.63252 13.4236 5.66139 13.3362C5.76995 13.0053 5.73116 12.6432 5.55495 12.3427C5.37874 12.0423 5.08166 11.8316 4.73983 11.7648L3.85819 11.5925L2.15709 10.2992C2.10688 10.261 2.04818 10.2355 1.98599 10.225C1.9238 10.2144 1.85998 10.2191 1.79999 10.2386L0.804048 10.5621C0.782988 10.2069 0.782532 9.85082 0.80268 9.49559C0.830193 9.52086 0.857077 9.5468 0.883305 9.5734C0.902878 9.60607 0.927104 9.63572 0.95522 9.66141C1.03655 9.73547 1.11022 9.76907 1.26491 9.76907C1.40706 9.76903 1.61749 9.74071 1.96495 9.68938C2.18543 9.65652 2.40563 9.6218 2.62553 9.58524C2.69016 9.57439 2.75102 9.54745 2.8025 9.50691C2.85399 9.46637 2.89445 9.41353 2.92016 9.35326C2.94587 9.29298 2.956 9.2272 2.94962 9.16198C2.94324 9.09676 2.92056 9.0342 2.88366 8.98004L2.40471 8.27754L3.09073 7.78699C3.13643 7.75431 3.17455 7.71215 3.20249 7.6634L4.26588 5.80696L4.69452 5.34766C5.13252 4.87821 5.25752 4.19137 5.01291 3.59778C4.86862 3.24766 4.61659 2.95617 4.30135 2.75973C4.64738 2.48752 5.01241 2.24038 5.39366 2.0202C6.81311 1.20067 8.36217 0.803518 9.89495 0.788323L9.19745 1.66328L6.61092 2.57008C6.55898 2.58828 6.51147 2.61726 6.47152 2.65511C6.43156 2.69297 6.40006 2.73884 6.37909 2.78973L5.65674 4.54082C5.6315 4.602 5.62222 4.6686 5.62978 4.73435C5.63733 4.8001 5.66146 4.86285 5.69991 4.91672L6.75491 6.39453C6.60381 6.53239 6.45674 6.73317 6.28108 6.98246C6.20405 7.0918 6.13131 7.19504 6.08104 7.25293C6.03774 7.30266 5.99413 7.35211 5.95022 7.40129C5.72331 7.65657 5.4887 7.92059 5.32202 8.27324C4.95553 9.04899 5.02956 9.95063 5.51518 10.6263C5.98475 11.2797 6.75889 11.6118 7.58514 11.5146C7.71975 11.4988 7.84526 11.4677 7.9667 11.4377C8.30159 11.3548 8.40768 11.3465 8.5151 11.4471C8.56737 11.496 8.57217 11.5053 8.57112 11.6712C8.57038 11.7768 8.56956 11.9082 8.60596 12.0583C8.66428 12.2983 8.81506 12.4642 8.93612 12.5975C8.99631 12.6637 9.05858 12.7322 9.07776 12.7782C9.19959 13.0702 9.14655 13.2318 9.0303 13.5861C9.02009 13.6171 9.00999 13.6481 8.99998 13.6791C8.82338 14.2258 9.06956 14.768 9.28674 15.2464C9.35729 15.4018 9.42389 15.5484 9.46752 15.678C9.81874 16.7202 10.082 16.9589 10.2933 17.055C10.404 17.1053 10.5185 17.1273 10.6342 17.1273C11.1973 17.1273 11.7849 16.6045 12.0548 16.273C12.2243 16.0649 12.2661 15.8565 12.2965 15.7043C12.3117 15.6286 12.3237 15.5688 12.3465 15.5297C12.3814 15.47 12.4226 15.4236 12.4746 15.365C12.5794 15.247 12.7097 15.1003 12.7941 14.8343C12.8583 14.6323 12.9049 14.5828 13.0592 14.4184C13.0881 14.3877 13.1169 14.3569 13.1455 14.3259C13.6657 13.7597 13.5317 13.3273 13.3898 12.8694C13.2704 12.4841 13.4793 12.2377 13.9843 11.7674C14.2032 11.5636 14.4295 11.3528 14.6045 11.0995C14.681 10.9887 14.914 10.6514 14.7698 10.3172C14.6285 9.98946 14.2694 9.93438 13.9809 9.89016C13.867 9.87266 13.6948 9.84625 13.64 9.81043C13.3983 9.65242 13.2505 9.32266 13.1074 9.00371C13.079 8.94024 13.0509 8.87758 13.0224 8.81676C12.9716 8.70825 12.9209 8.57696 12.8672 8.43797C12.7251 8.07016 12.564 7.65324 12.2898 7.36262C12.0434 7.10149 11.5788 6.97571 11.1689 6.86469C11.0311 6.82739 10.901 6.79215 10.8151 6.76047C10.7433 6.73392 10.6652 6.7291 10.5907 6.7466C10.3912 6.79336 10.2667 6.84489 10.1743 6.91895C10.1499 6.93852 10.0776 7.00278 10.0353 7.10606C9.89225 7.03742 9.69561 6.90637 9.57459 6.82571L9.56706 6.82067C9.60784 6.65746 9.57092 6.52649 9.53225 6.44469C9.31401 5.98313 8.58971 6.01926 8.44682 6.03141C8.36565 6.03821 8.26295 6.04184 8.15432 6.04567C7.9837 6.05172 7.7951 6.05852 7.6085 6.07946L7.61811 6.05266C7.75975 5.65801 8.13663 5.39282 8.55592 5.39282H8.77795C8.99366 5.39282 9.16854 5.21789 9.16854 5.00223C9.16854 4.78653 8.99362 4.61164 8.77795 4.61164H8.55592C7.93342 4.61164 7.36338 4.93926 7.04389 5.45492L6.46127 4.63879L7.03448 3.24938L9.56198 2.36324C9.63131 2.33893 9.69238 2.29557 9.73819 2.23813L10.8617 0.828792C13.7326 1.10188 16.4349 2.71149 17.9834 5.3936C18.3881 6.09468 18.6977 6.84655 18.9039 7.62938L18.7383 7.77703C18.6312 7.87279 18.5451 7.98963 18.4852 8.12022C18.4254 8.25082 18.3932 8.39236 18.3906 8.53598C18.3906 8.53912 18.3905 8.54226 18.3904 8.54539L18.1206 7.80352C18.0807 7.69318 18.0211 7.59097 17.9448 7.5018L17.4635 6.9384C17.3716 6.8306 17.2573 6.74404 17.1286 6.68472C16.9999 6.6254 16.8599 6.59472 16.7182 6.59481H16.1292C16.0267 6.5947 15.9262 6.62245 15.8384 6.67508C15.7505 6.72771 15.6786 6.80325 15.6303 6.8936C15.5819 6.98386 15.559 7.08558 15.5639 7.18788C15.5689 7.29019 15.6016 7.38922 15.6585 7.47438L15.7181 7.56387C15.3374 7.89117 14.8972 8.15309 14.4285 8.32973L13.6211 6.78313V6.43809C13.6211 6.38527 13.6104 6.333 13.5896 6.28444C13.5688 6.23589 13.5384 6.19205 13.5002 6.15559L12.7731 5.46149C12.733 5.42321 12.6852 5.3939 12.6329 5.37551L11.9783 5.14551C11.7747 5.07387 11.5518 5.18102 11.4803 5.38449C11.4088 5.58805 11.5158 5.81098 11.7193 5.8825L12.2945 6.08465L12.8399 6.60524V6.87899C12.8399 6.94192 12.8551 7.00395 12.8842 7.05977L13.8951 8.99598C13.939 9.08018 14.0121 9.14549 14.1007 9.17967C14.1893 9.21386 14.2873 9.21457 14.3764 9.18168L14.6708 9.07317C15.3546 8.82098 15.9883 8.41531 16.5037 7.90008C16.5675 7.83624 16.6073 7.75224 16.6162 7.66238C16.6251 7.57252 16.6025 7.48236 16.5524 7.40723L16.5317 7.37602H16.7182C16.747 7.376 16.7754 7.38223 16.8016 7.39428C16.8277 7.40634 16.8509 7.42392 16.8696 7.44582L17.3508 8.00922C17.3663 8.02739 17.3783 8.04793 17.3865 8.07047L17.9176 9.53075C17.94 9.59245 17.9777 9.6475 18.0271 9.6908C18.0764 9.7341 18.1359 9.76426 18.2 9.77848C18.2642 9.7927 18.3308 9.79052 18.3939 9.77216C18.4569 9.75379 18.5143 9.71983 18.5608 9.6734L18.8135 9.42063C18.9736 9.26051 19.0838 9.05793 19.1365 8.83336C19.5274 11.9664 18.2989 15.2073 15.7023 17.2454C15.5326 17.3785 15.503 17.624 15.6362 17.7938C15.7694 17.9635 16.0148 17.9931 16.1846 17.8598C18.0593 16.3885 19.3472 14.284 19.811 11.934C20.2793 9.56141 19.8705 7.09989 18.6599 5.00309ZM1.84698 11.0448L3.45764 12.2694C3.50522 12.3056 3.56049 12.3304 3.61916 12.3418L4.58995 12.5315C4.71385 12.5557 4.81721 12.629 4.88108 12.7379C4.94495 12.8468 4.95838 12.9728 4.91909 13.0927C4.83822 13.3376 4.83785 13.6019 4.91803 13.8469L5.04178 14.2277C5.11573 14.4553 4.99065 14.7006 4.76311 14.7746L4.37495 14.9007C4.30847 14.9223 4.24901 14.9613 4.20277 15.0138C4.15653 15.0662 4.1252 15.13 4.11206 15.1987L3.79963 16.8295C3.1128 16.2009 2.50975 15.4579 2.02026 14.61C1.42303 13.5758 1.04991 12.4726 0.885454 11.3572L1.84698 11.0448ZM4.29065 3.89539C4.41917 4.20723 4.35346 4.56809 4.12338 4.81473L3.66389 5.30703C3.64337 5.32903 3.62546 5.35332 3.61049 5.37942L2.56706 7.20114L1.63967 7.86426C1.55663 7.92363 1.50013 8.01316 1.48227 8.11367C1.46441 8.21418 1.48662 8.31769 1.54413 8.40203L1.89096 8.91078C1.69104 8.94055 1.51163 8.96508 1.39233 8.97809C1.3686 8.95545 1.34469 8.933 1.32061 8.91074C1.22776 8.82449 1.09874 8.7093 0.906391 8.54098C1.22362 6.57758 2.16971 4.72789 3.65768 3.31598C3.94264 3.40563 4.17643 3.61821 4.29065 3.89539ZM8.18198 6.82641C8.3003 6.82223 8.4121 6.81824 8.51194 6.80989C8.56463 6.80547 8.62315 6.80629 8.67834 6.81059C8.64368 6.89955 8.64282 6.99813 8.67593 7.08769C8.70904 7.17724 8.77383 7.25155 8.85803 7.29657C8.93131 7.33578 9.03331 7.40379 9.14127 7.47578C9.44655 7.6793 9.79264 7.90996 10.1177 7.93067C10.4133 7.94985 10.5778 7.78137 10.6483 7.70957C10.6539 7.70387 10.6592 7.69817 10.6648 7.69297C10.7078 7.65767 10.7434 7.61416 10.7694 7.56496C10.8318 7.58282 10.8974 7.60059 10.9647 7.61883C11.196 7.68145 11.6265 7.79801 11.7216 7.89879C11.8906 8.07789 12.0223 8.41879 12.1385 8.71953C12.1972 8.87153 12.2526 9.01496 12.3149 9.14797C12.3416 9.20504 12.3679 9.26383 12.3946 9.32336C12.5748 9.72539 12.7791 10.1811 13.2125 10.4644C13.409 10.5929 13.6499 10.6298 13.8625 10.6624C13.8882 10.6663 13.9177 10.6709 13.9476 10.6758C13.8214 10.8518 13.6418 11.0191 13.452 11.1958C12.9684 11.6461 12.3666 12.2066 12.6438 13.1007C12.7746 13.5229 12.7807 13.5685 12.5703 13.7973C12.5417 13.8286 12.5149 13.857 12.4899 13.8836C12.3098 14.0754 12.1674 14.2269 12.0496 14.598C12.0154 14.7058 11.9711 14.7557 11.8906 14.8463C11.8262 14.9188 11.746 15.0091 11.672 15.1357C11.5834 15.2873 11.5541 15.4334 11.5306 15.5507C11.5075 15.6661 11.4944 15.724 11.449 15.7797C11.3459 15.9063 11.1535 16.0902 10.9559 16.2157C10.7723 16.3323 10.6651 16.3482 10.6286 16.3461C10.5869 16.3014 10.436 16.1057 10.2078 15.4286C10.1516 15.2616 10.0735 15.0897 9.99807 14.9235C9.8317 14.5571 9.65971 14.1782 9.74338 13.9193C9.75327 13.8887 9.76303 13.8589 9.77264 13.8297C9.90631 13.4223 10.0325 13.0375 9.79874 12.4774C9.72756 12.3068 9.61424 12.1822 9.51436 12.0722C9.44971 12.001 9.37647 11.9204 9.36518 11.874C9.35143 11.8174 9.35186 11.752 9.35237 11.6764C9.3537 11.4723 9.35573 11.1639 9.04913 10.8768C8.61686 10.4722 8.1128 10.5968 7.7792 10.6793C7.67674 10.7046 7.57995 10.7286 7.49416 10.7387C6.94541 10.803 6.45549 10.5959 6.14963 10.1703C5.82967 9.72512 5.78323 9.12602 6.02846 8.60688C6.14717 8.35567 6.32651 8.15383 6.53416 7.92024C6.57952 7.86918 6.6253 7.8177 6.67108 7.76496C6.74725 7.67715 6.83108 7.55824 6.91971 7.43235C7.02561 7.28203 7.22264 7.00239 7.30819 6.94918C7.48237 6.85121 7.88674 6.83688 8.18198 6.82641Z" fill="black"/>
<path d="M14.611 16.5125C15.0094 16.4473 15.309 16.0329 15.5537 15.208L16.0132 13.6595C16.0336 13.5907 16.0347 13.5176 16.0162 13.4482L15.8283 12.7398C15.8083 12.6643 15.766 12.5964 15.7069 12.5451C15.6479 12.4939 15.5748 12.4615 15.4971 12.4522C15.4195 12.443 15.3408 12.4573 15.2714 12.4932C15.2019 12.5292 15.1448 12.5851 15.1075 12.6538C15.0646 12.7327 15.0261 12.8163 14.9888 12.8971C14.9261 13.0331 14.8613 13.1737 14.7938 13.2513C14.7559 13.2949 14.6586 13.3419 14.5645 13.3873C14.3396 13.4958 14.0316 13.6445 13.914 14.0195C13.8409 14.2522 13.8682 14.4363 13.8881 14.5706C13.9053 14.6872 13.9093 14.7275 13.8781 14.8008L13.8742 14.8099C13.7499 15.1017 13.5186 15.6448 13.8429 16.1066C14.0744 16.4361 14.3177 16.5209 14.5068 16.5209C14.5438 16.521 14.5787 16.5177 14.611 16.5125ZM14.4821 15.6577C14.4075 15.5513 14.5191 15.2895 14.5929 15.1161L14.5968 15.107C14.7159 14.8275 14.6841 14.6129 14.6609 14.4562C14.646 14.3559 14.6407 14.3127 14.6593 14.2535C14.6746 14.2048 14.7662 14.1575 14.9041 14.0909C14.9652 14.0614 15.0325 14.0289 15.1004 13.9897L14.8049 14.9858C14.6801 15.4064 14.5697 15.6027 14.506 15.6897C14.4986 15.6804 14.4907 15.6698 14.4821 15.6577ZM10.5214 4.63363C10.318 4.56238 10.095 4.66938 10.0236 4.87293C9.95218 5.07653 10.0593 5.29938 10.2629 5.37078L10.2892 5.38C10.3308 5.39462 10.3745 5.4021 10.4185 5.40211C10.5798 5.40211 10.7307 5.30145 10.7871 5.1407C10.8585 4.93711 10.7514 4.71426 10.5478 4.64285L10.5214 4.63363Z" fill="black"/>
</g>
<defs>
<clipPath id="clip0_5049_206071">
<rect width="20" height="20" fill="white"/>
</clipPath>
</defs>
</svg>
