<svg width="20" height="20" viewBox="0 0 20 20" fill="none" xmlns="http://www.w3.org/2000/svg">
<circle cx="10" cy="10" r="10" fill="#FDDA74"/>
<path d="M9.99105 18.0162C11.3987 18.0268 12.5527 16.311 12.5687 14.1839C12.5846 12.0568 11.4564 10.3238 10.0488 10.3133C8.64112 10.3027 7.48708 12.0186 7.47114 14.1457C7.4552 16.2728 8.5834 18.0057 9.99105 18.0162Z" fill="#3C3C3B"/>
<path d="M5.67243 9.52805C6.36061 9.53321 6.92482 8.69423 6.93261 7.65413C6.9404 6.61404 6.38884 5.76669 5.70066 5.76153C5.01247 5.75638 4.44827 6.59536 4.44048 7.63546C4.43268 8.67555 4.98425 9.5229 5.67243 9.52805Z" fill="#3C3C3B"/>
<path d="M14.0721 9.59696C14.7603 9.60212 15.3245 8.76313 15.3323 7.72304C15.3401 6.68295 14.7885 5.8356 14.1003 5.83044C13.4121 5.82529 12.8479 6.66427 12.8401 7.70437C12.8323 8.74446 13.3839 9.5918 14.0721 9.59696Z" fill="#3C3C3B"/>
<path d="M7.2872 3.8615C7.18808 3.86075 7.08923 3.82461 7.01193 3.74615C6.42871 3.15411 5.4092 3.14647 4.82424 3.72975C4.67445 3.87732 4.42665 3.87546 4.27909 3.72567C4.13152 3.57588 4.13338 3.32809 4.28317 3.18052C4.72542 2.74486 5.30777 2.50848 5.93081 2.51314C6.55384 2.51781 7.13259 2.7629 7.56825 3.20514C7.71582 3.35493 7.71396 3.60272 7.56417 3.75028C7.4857 3.82758 7.38632 3.86224 7.2872 3.8615Z" fill="#3C3C3B"/>
<path d="M15.141 3.92699C15.0418 3.92624 14.943 3.8901 14.8657 3.81164C14.2825 3.2196 13.263 3.21196 12.678 3.79524C12.5282 3.94281 12.2804 3.94095 12.1328 3.79116C11.9853 3.64137 11.9871 3.39358 12.1369 3.24601C12.5792 2.81035 13.1615 2.57397 13.7846 2.57863C14.4076 2.5833 14.9863 2.82839 15.422 3.27063C15.5696 3.42042 15.5677 3.66821 15.4179 3.81578C15.3395 3.89307 15.2401 3.92773 15.141 3.92699Z" fill="#3C3C3B"/>
</svg>
